{"glyphs":{"0":{"ha":529,"x_min":0,"x_max":529,"o":"m 218 -1 q 129 54 172 10 q 8 324 42 138 q 1 378 3 350 q 0 469 0 406 q 1 563 0 535 q 8 619 3 590 q 138 913 44 819 q 271 976 203 976 q 407 908 343 976 q 504 715 471 840 q 528 522 529 629 q 529 475 529 496 q 511 311 529 381 q 311 3 454 61 q 254 -6 283 -6 q 218 -1 233 -6 m 279 90 q 397 247 347 119 q 436 496 436 367 q 416 678 436 592 q 357 822 396 764 q 269 883 318 883 q 173 810 219 883 q 104 618 126 736 q 93 456 93 542 q 96 381 93 411 q 236 89 129 139 q 256 83 249 83 q 279 90 264 83 z "},"1":{"ha":196,"x_min":0,"x_max":196,"o":"m 131 4 q 111 19 117 8 q 104 65 106 31 q 103 178 103 100 q 100 556 103 294 l 97 793 l 82 778 q 47 758 65 758 q 33 761 40 758 q 0 806 0 778 q 7 828 0 817 q 104 953 58 897 q 142 971 122 971 q 182 946 165 971 l 190 932 l 194 483 q 196 189 196 293 q 195 94 196 129 q 194 44 194 60 q 192 25 193 28 q 151 -3 171 -3 q 131 4 146 -3 z "},"2":{"ha":378,"x_min":0,"x_max":378,"o":"m 122 0 q 47 3 65 1 q 22 10 28 6 q 0 54 0 28 q 10 89 0 71 q 54 163 22 108 q 278 686 233 454 q 285 764 285 725 q 278 829 285 804 q 231 882 264 876 l 225 882 q 173 863 200 882 q 132 814 146 843 q 89 782 118 782 l 82 782 q 42 831 42 794 q 43 843 42 836 q 147 956 68 913 q 225 975 188 975 q 328 928 283 975 q 378 772 378 878 l 378 764 q 329 514 378 651 q 160 154 268 340 q 138 115 146 132 q 129 96 129 99 q 153 94 131 94 q 210 92 176 93 q 280 88 264 90 q 303 81 296 86 q 322 42 322 64 q 310 14 322 26 q 247 -3 304 -3 q 122 0 196 0 z "},"3":{"ha":411,"x_min":0,"x_max":411,"o":"m 89 -1 q 40 8 54 4 q 21 15 26 11 q 0 53 0 31 q 10 81 0 68 q 46 96 19 96 q 82 92 60 96 q 118 89 103 89 q 143 90 131 89 q 294 210 261 111 q 301 257 301 233 q 268 347 301 311 q 249 358 260 358 q 225 349 240 358 q 179 336 201 336 q 132 360 149 336 q 125 383 125 372 q 153 431 125 408 q 208 454 192 454 q 233 476 215 454 q 265 521 251 497 q 318 707 318 610 q 287 832 317 786 q 207 878 257 878 l 199 878 q 94 811 146 876 q 63 793 81 793 q 40 799 51 793 q 14 835 14 811 q 54 903 14 863 q 208 968 113 968 q 251 965 240 968 q 283 953 263 963 q 403 799 371 910 q 411 708 411 760 q 406 633 411 665 q 332 453 386 533 l 317 429 l 340 404 q 390 304 379 365 q 394 257 394 281 q 321 81 394 156 q 132 -1 247 7 l 89 -1 z "},"4":{"ha":468,"x_min":0,"x_max":468,"o":"m 326 28 l 326 374 l 268 376 q 165 389 210 378 l 119 399 l 97 388 q 54 375 74 375 q 7 403 24 375 q 0 429 0 415 q 58 490 0 469 q 85 513 76 493 q 118 631 104 553 q 126 689 124 657 q 128 806 128 721 q 130 917 129 893 q 136 946 131 942 q 176 964 157 964 l 182 964 q 206 950 193 961 q 217 933 214 943 q 221 885 219 924 q 224 807 224 847 q 203 569 224 676 q 186 514 196 542 q 179 483 179 490 l 179 481 q 282 467 231 467 l 293 467 q 325 471 318 467 q 327 503 326 471 q 328 587 328 535 q 329 703 329 639 q 335 919 331 881 q 354 960 339 958 q 376 965 365 965 q 418 940 401 965 q 420 910 419 938 q 421 822 421 882 l 421 499 l 433 496 q 457 482 444 492 q 468 453 468 474 q 436 406 468 422 l 421 399 l 421 329 q 418 143 421 271 l 415 26 l 403 14 q 372 1 396 1 q 340 14 347 1 l 326 28 z "},"5":{"ha":421,"x_min":0,"x_max":421,"o":"m 92 3 q 46 39 54 11 q 43 53 43 47 q 47 69 43 60 q 88 94 58 94 q 101 93 94 94 q 140 89 125 89 q 196 104 171 89 q 292 197 257 135 q 326 324 326 258 q 310 404 326 367 q 231 467 279 467 q 167 440 200 467 q 133 415 142 421 q 108 410 124 410 q 60 439 75 410 q 38 635 38 503 q 49 810 38 725 q 53 851 53 842 q 50 861 53 860 q 39 864 47 863 q 10 881 19 868 q 0 908 0 894 q 28 950 0 933 q 178 972 69 969 q 219 974 200 974 q 357 960 318 974 q 382 921 382 943 q 357 881 382 897 q 338 876 351 876 q 300 879 325 876 q 207 883 247 883 q 165 882 174 883 q 154 876 156 881 q 136 763 146 840 q 131 606 131 690 q 133 538 131 551 q 138 536 135 536 q 158 543 143 536 q 229 558 194 558 q 353 504 296 558 q 421 325 421 431 q 410 243 421 285 q 303 65 381 135 q 139 -4 225 -4 q 92 3 115 -4 z "},"6":{"ha":503,"x_min":0,"x_max":503,"o":"m 189 3 q 44 132 97 32 q 0 358 0 229 q 53 663 0 500 q 150 860 92 764 q 251 968 204 935 q 282 975 267 975 q 325 953 310 975 q 331 929 331 942 q 299 886 331 901 q 185 733 249 856 q 163 684 175 714 q 140 628 150 654 q 131 597 131 603 l 132 597 q 160 608 136 597 q 268 635 214 635 q 363 614 317 635 q 464 510 424 582 q 503 338 503 431 q 461 153 503 243 q 294 3 401 32 q 242 -3 272 -3 q 189 3 211 -3 m 294 101 q 400 254 368 143 q 407 340 407 292 q 401 410 407 382 q 358 501 386 467 q 268 543 319 543 q 246 540 257 543 q 114 443 168 525 l 94 413 l 94 360 q 217 90 94 138 q 233 88 224 88 q 293 101 261 88 l 294 101 z "},"7":{"ha":354,"x_min":0,"x_max":354,"o":"m 104 6 q 86 47 86 13 q 89 92 86 64 q 210 676 101 249 q 242 806 229 751 q 257 867 256 860 l 258 879 l 92 879 q 44 880 61 879 q 25 882 28 881 q 0 921 0 899 q 8 946 0 933 q 31 964 18 960 q 222 972 111 972 q 294 969 275 972 q 354 892 354 950 q 341 819 354 875 q 294 631 328 764 q 182 89 196 240 q 174 26 178 39 q 160 7 171 14 q 131 -4 147 -4 q 104 6 117 -4 z "},"8":{"ha":464,"x_min":0,"x_max":464,"o":"m 171 -1 q 69 57 117 11 q 0 247 0 131 q 18 369 0 304 q 113 544 49 471 l 132 564 l 119 575 q 57 672 81 610 q 44 750 44 708 q 54 819 44 788 q 117 922 75 882 q 210 964 160 963 l 225 964 q 367 878 311 964 q 401 753 401 821 q 396 703 401 728 q 324 571 382 629 l 303 550 l 322 536 q 433 408 393 483 q 464 267 464 340 q 444 157 464 210 q 269 0 393 36 q 218 -7 243 -7 q 171 -1 194 -7 m 274 99 q 345 167 319 121 q 371 269 371 214 q 344 376 371 324 q 271 460 318 425 q 228 485 249 474 q 200 497 207 497 q 174 472 193 497 q 139 419 154 447 q 94 247 94 329 q 114 151 94 193 q 217 85 153 85 q 274 99 244 85 m 256 633 q 292 683 279 657 q 303 713 301 701 q 306 753 306 724 q 297 813 306 803 q 222 875 260 875 q 146 797 179 875 q 139 749 139 774 q 163 664 139 703 q 228 611 214 611 q 256 633 232 611 z "},"9":{"ha":521,"x_min":0,"x_max":521,"o":"m 213 3 q 121 50 161 17 q 53 144 53 119 q 67 176 53 161 q 100 190 82 190 q 147 158 129 190 q 267 88 196 88 q 367 157 333 88 q 388 297 388 189 l 388 322 q 385 382 386 357 q 383 408 385 407 q 360 393 379 408 q 208 328 283 328 q 107 361 154 328 q 29 458 60 394 q 0 601 0 525 q 40 781 0 693 q 121 893 71 849 q 308 972 203 972 l 325 972 q 429 929 393 972 q 447 896 447 915 q 424 857 447 869 q 403 851 413 851 q 365 867 385 851 q 310 886 342 886 q 286 883 299 886 q 147 781 200 863 q 93 604 93 700 q 118 492 93 546 q 210 418 150 418 q 360 529 275 418 l 379 558 l 381 618 q 428 778 386 743 q 464 792 446 792 q 518 744 500 792 q 521 714 521 732 q 485 565 521 651 l 471 538 l 475 472 q 481 310 481 392 q 478 219 481 242 q 471 176 476 197 q 410 58 453 101 q 261 -3 344 -3 q 213 3 238 -3 z "}," ":{"ha":463,"x_min":0,"x_max":0,"o":""},"!":{"ha":214,"x_min":60,"x_max":154,"o":"m 88 10 q 63 51 63 26 q 71 75 63 64 q 92 93 79 85 q 108 97 101 97 q 121 96 114 97 q 154 50 154 78 q 131 11 154 26 q 107 4 119 4 q 88 10 97 4 m 76 264 q 61 286 65 275 q 60 622 60 354 q 62 829 61 757 q 65 930 63 901 q 73 965 67 958 q 90 975 79 971 q 110 981 100 981 q 142 965 126 981 l 154 953 l 154 622 q 153 402 154 474 q 151 306 153 331 q 147 278 150 282 q 106 253 131 253 q 76 264 90 253 z "},"\"":{"ha":360,"x_min":69,"x_max":290,"o":"m 103 801 q 78 826 83 808 q 71 908 74 843 q 69 971 69 950 q 74 1006 69 1000 q 117 1035 90 1035 q 140 1028 129 1035 q 158 1008 153 1018 q 163 979 161 1004 q 164 914 164 954 l 164 871 q 163 835 164 844 q 158 821 161 825 q 119 799 142 799 q 103 801 111 799 m 228 801 q 204 826 208 808 q 197 908 200 843 q 196 971 196 950 q 200 1006 196 1000 q 242 1035 217 1035 q 265 1028 254 1035 q 285 1008 279 1018 q 288 979 286 1004 q 290 914 289 954 l 290 871 q 289 835 290 844 q 285 821 288 825 q 244 799 267 799 q 228 801 236 799 z "},"#":{"ha":492,"x_min":21,"x_max":492,"o":"m 97 201 l 96 264 l 93 325 l 76 328 q 35 353 44 331 q 31 374 31 364 q 44 406 31 390 q 69 418 57 418 l 76 418 q 93 427 90 418 q 96 483 96 436 l 96 588 l 67 588 q 35 601 42 588 q 21 633 21 608 q 35 665 21 657 q 71 678 40 678 l 94 678 l 97 728 q 100 803 100 785 q 125 857 100 849 q 146 863 136 863 q 178 847 163 863 l 190 835 l 190 682 l 253 682 q 319 685 303 682 q 324 705 322 686 q 326 758 325 724 q 333 833 328 815 q 354 857 338 851 q 375 861 364 861 q 407 847 392 861 l 418 835 l 418 688 l 442 685 q 478 672 467 685 q 492 640 492 657 q 476 606 492 621 q 435 592 461 592 l 418 592 l 418 424 l 438 421 q 478 376 478 414 q 464 344 478 354 q 435 329 451 332 l 418 326 l 418 276 q 415 215 418 233 q 399 188 411 197 q 371 176 386 176 q 338 192 353 176 l 324 204 l 324 328 l 190 328 l 190 278 q 186 213 190 236 q 140 178 169 178 q 111 189 125 178 l 97 201 m 324 593 l 292 590 q 225 588 258 588 l 190 588 l 190 422 l 324 422 l 324 593 z "},"$":{"ha":489,"x_min":0,"x_max":464,"o":"m 235 -4 q 217 11 226 1 q 210 28 211 17 q 208 82 208 40 l 208 110 q 202 145 208 140 q 169 156 196 150 q 122 176 147 163 q 36 267 67 217 q 29 294 29 281 q 64 336 29 324 q 75 338 69 338 q 122 304 100 338 q 239 238 171 238 q 301 253 269 238 q 361 331 361 290 l 361 335 q 340 362 361 353 q 271 371 319 371 q 81 413 140 371 q 20 483 40 442 q 0 571 0 524 q 26 679 0 625 q 104 776 53 733 q 211 833 161 818 l 225 836 l 225 893 q 230 960 225 942 q 249 983 235 978 q 271 989 258 989 q 300 979 288 989 q 315 952 311 969 q 319 893 319 935 l 319 840 l 342 835 q 449 728 418 810 q 464 638 464 678 q 463 622 464 629 q 417 575 450 575 q 392 582 404 575 q 369 643 369 590 q 322 742 368 722 q 289 749 313 749 l 272 749 q 208 732 239 749 q 111 639 142 699 q 96 579 96 617 l 96 565 q 125 497 96 518 q 257 465 147 468 q 356 456 328 463 q 451 369 429 435 q 457 332 457 351 q 419 231 457 279 q 314 157 381 183 l 300 151 l 300 21 l 289 8 q 260 -6 279 -4 l 251 -6 q 235 -4 240 -6 z "},"%":{"ha":476,"x_min":-17,"x_max":467,"o":"m 114 4 q 94 26 103 13 q 93 38 93 29 q 99 88 93 49 q 124 223 106 126 q 176 497 142 319 q 221 730 200 625 q 255 899 242 835 q 269 968 268 963 q 311 994 281 994 q 353 964 340 994 q 354 953 354 961 q 348 901 354 940 q 323 765 342 861 q 271 493 304 669 q 226 263 246 367 q 192 94 206 158 q 178 25 179 31 q 136 -3 160 -3 q 114 4 131 -3 m 326 60 q 253 132 274 78 q 247 171 247 150 q 260 231 247 204 q 305 281 278 264 q 361 299 332 299 q 414 283 389 299 q 454 235 439 267 q 467 183 467 208 q 460 142 467 164 q 429 92 453 113 q 385 63 406 67 q 349 57 365 57 q 326 60 336 57 m 367 163 q 372 185 372 174 q 360 206 372 201 q 356 204 358 206 q 340 172 340 188 l 340 168 q 343 157 340 164 q 351 150 346 150 q 367 163 360 150 m 63 714 q -11 785 10 733 q -17 825 -17 803 q -4 885 -17 857 q 41 935 14 918 q 97 951 68 951 q 150 935 125 951 q 190 888 175 919 q 203 838 203 863 q 196 796 203 818 q 165 744 189 767 q 121 715 142 722 q 86 710 101 710 q 63 714 72 710 m 103 815 q 108 838 108 826 q 96 860 108 856 q 92 858 93 860 q 76 826 76 842 l 76 822 q 79 810 76 817 q 88 804 82 804 q 103 815 96 804 z "},"&":{"ha":515,"x_min":38,"x_max":513,"o":"m 188 117 q 99 168 135 131 q 38 328 38 224 q 85 485 38 414 q 90 497 90 490 q 82 526 90 506 q 68 611 68 567 q 103 754 68 682 q 156 824 119 792 q 286 888 211 888 q 369 856 336 888 q 418 765 407 822 q 422 735 422 747 q 407 697 422 710 q 374 683 392 683 q 354 688 364 683 q 328 736 331 697 q 297 793 321 782 q 285 794 292 794 q 178 694 232 794 q 167 663 169 675 q 165 617 165 650 q 168 567 165 578 l 169 567 q 194 574 175 567 q 257 586 228 586 q 325 561 299 586 q 349 504 349 544 q 286 418 349 453 q 231 408 260 408 q 182 417 204 408 q 160 426 163 426 q 145 401 154 426 q 132 353 136 375 q 131 326 131 339 q 168 232 131 267 q 233 206 197 206 q 279 217 256 206 q 313 238 303 228 l 322 249 l 313 271 q 303 331 303 301 q 324 403 303 374 q 374 426 346 426 q 431 394 406 426 q 447 329 447 368 q 440 279 447 306 q 436 251 436 256 q 465 232 440 246 q 513 178 513 214 q 500 147 513 156 q 472 132 488 132 q 433 144 457 132 q 392 165 406 157 l 382 174 l 368 163 q 297 122 333 135 q 231 113 265 113 q 188 117 206 113 z "},"'":{"ha":233,"x_min":69,"x_max":164,"o":"m 103 801 q 78 826 83 808 q 71 908 74 843 q 69 971 69 950 q 74 1006 69 1000 q 117 1035 90 1035 q 140 1028 129 1035 q 158 1008 153 1018 q 163 979 161 1004 q 164 914 164 954 l 164 871 q 163 835 164 844 q 158 821 161 825 q 119 799 142 799 q 103 801 111 799 z "},"(":{"ha":251,"x_min":29,"x_max":267,"o":"m 201 -35 q 108 97 161 -7 q 29 479 29 274 q 117 893 29 696 q 193 1015 164 985 q 219 1025 206 1025 q 252 1011 238 1025 q 267 976 267 997 q 244 932 267 968 q 124 478 124 726 q 138 313 124 394 q 247 47 168 150 q 265 6 265 24 q 249 -28 265 -12 q 217 -37 235 -37 q 201 -35 208 -37 z "},")":{"ha":244,"x_min":-4,"x_max":233,"o":"m 28 -36 q 1 -10 11 -29 q -3 7 -3 -1 q 15 47 -3 25 q 125 313 94 150 q 140 479 140 396 q 18 932 140 726 q -4 976 -4 968 q 43 1025 -4 1018 q 69 1015 57 1025 q 181 808 128 950 q 233 475 233 642 q 203 231 233 347 q 114 26 174 115 q 49 -37 74 -37 q 28 -36 36 -37 z "},"*":{"ha":403,"x_min":69,"x_max":333,"o":"m 118 800 q 100 817 106 807 q 97 832 97 822 q 103 865 97 847 l 103 868 q 93 878 103 874 q 69 918 69 893 q 94 960 69 944 q 106 968 106 964 q 103 976 106 971 q 96 1003 96 990 q 110 1035 96 1021 q 142 1049 119 1049 q 172 1036 165 1049 q 192 1013 185 1022 l 199 1003 l 206 1013 q 225 1036 214 1022 q 256 1049 233 1049 q 301 1004 296 1049 q 299 988 301 996 q 293 969 293 974 q 300 965 293 964 q 319 953 304 965 q 333 921 333 944 q 319 889 333 896 q 297 875 306 875 q 292 874 292 875 q 296 864 292 871 q 301 836 301 851 q 296 813 301 822 q 258 793 279 793 q 211 821 232 793 q 199 836 203 836 q 188 821 197 836 q 142 793 167 793 q 118 800 129 793 z "},"+":{"ha":286,"x_min":-1,"x_max":292,"o":"m 121 294 q 97 323 101 301 q 93 429 93 344 l 93 528 l 60 528 q 22 533 33 528 q 4 551 11 538 q -1 574 -1 563 q 18 613 -1 597 q 60 619 25 619 l 93 619 l 93 661 q 97 718 93 697 q 142 753 113 753 q 172 742 158 753 l 185 731 l 188 675 l 189 621 l 228 619 q 278 607 272 621 q 292 575 292 592 q 288 554 292 565 q 226 528 282 529 l 189 526 l 188 424 q 181 320 186 342 q 157 294 176 299 q 139 289 146 289 q 121 294 131 289 z "},",":{"ha":265,"x_min":69,"x_max":196,"o":"m 93 -136 q 72 -96 72 -117 q 83 -65 72 -87 l 96 -44 l 86 -35 q 69 7 69 -17 q 81 40 69 25 q 126 63 100 63 q 158 54 143 63 q 196 -17 196 32 q 176 -90 196 -50 q 121 -142 154 -142 q 93 -136 104 -142 z "},"-":{"ha":314,"x_min":-3,"x_max":325,"o":"m 25 532 q -3 575 -3 549 q 4 599 -3 588 q 35 619 11 615 q 157 624 60 624 q 288 621 253 624 q 324 583 315 611 q 325 575 325 579 q 303 536 325 553 q 285 531 297 532 q 228 529 272 529 l 161 529 q 25 532 56 529 z "},".":{"ha":249,"x_min":69,"x_max":179,"o":"m 96 -43 q 69 6 69 -22 q 100 56 69 36 q 124 61 111 61 q 162 45 144 61 q 179 6 179 29 q 162 -34 179 -17 q 124 -51 144 -51 q 96 -43 111 -51 z "},"/":{"ha":403,"x_min":-26,"x_max":478,"o":"m -3 3 q -26 44 -26 24 q -17 69 -26 47 q 8 126 -7 92 q 43 203 24 161 q 251 654 119 367 q 333 830 301 763 q 382 930 365 897 q 403 967 399 963 q 432 978 417 978 q 463 967 449 978 q 478 935 478 953 q 474 913 478 925 q 410 771 468 899 q 265 460 351 643 q 171 257 210 340 q 107 121 132 174 q 69 42 82 68 q 51 11 56 15 q 22 -3 42 -3 q -3 3 10 -3 z "},":":{"ha":131,"x_min":8,"x_max":122,"o":"m 39 396 q 13 444 13 417 q 43 494 13 474 q 65 500 54 500 q 105 483 88 500 q 122 443 122 467 q 105 404 122 422 q 67 386 88 386 q 39 396 54 386 m 35 647 q 8 696 8 668 q 39 746 8 725 q 63 751 50 751 q 101 735 83 751 q 118 696 118 719 q 101 656 118 674 q 63 639 83 639 q 35 647 50 639 z "},";":{"ha":151,"x_min":22,"x_max":149,"o":"m 46 303 q 25 342 25 321 q 36 374 25 350 l 49 393 l 39 403 q 22 444 22 421 q 33 479 22 463 q 81 500 53 500 q 111 493 96 500 q 149 422 149 469 q 129 347 149 388 q 74 296 107 296 q 46 303 57 296 m 53 647 q 26 696 26 668 q 57 746 26 725 q 79 751 68 751 q 118 735 101 751 q 135 696 135 719 q 118 656 135 674 q 81 639 101 639 q 53 647 68 639 z "},"<":{"ha":347,"x_min":1,"x_max":349,"o":"m 283 293 q 8 544 144 411 q 1 569 1 556 q 7 590 1 581 q 29 611 10 594 q 79 653 49 628 q 147 708 110 679 q 258 797 226 774 q 306 819 290 819 q 324 814 315 819 q 349 772 349 797 q 340 747 349 758 q 304 716 335 742 q 231 656 274 690 q 124 569 138 582 l 124 568 q 141 547 124 564 q 203 489 158 529 q 322 378 296 404 q 346 346 347 353 q 347 338 347 342 q 299 290 347 299 q 283 293 292 290 z "},"=":{"ha":485,"x_min":21,"x_max":472,"o":"m 47 429 q 26 451 35 438 q 21 468 21 461 q 24 481 21 474 q 38 506 28 496 l 49 515 l 232 518 q 367 519 313 519 q 432 518 421 519 q 472 474 472 511 q 467 447 472 460 q 428 430 463 433 q 250 425 394 426 q 108 424 151 424 q 63 425 74 424 q 47 429 53 426 m 47 603 q 26 625 35 611 q 21 642 21 635 q 24 654 21 647 q 38 678 28 669 l 49 688 l 232 690 q 385 693 328 693 q 432 692 424 693 q 472 647 472 683 q 467 619 472 631 q 428 603 463 607 q 250 597 394 599 q 128 596 169 596 q 67 597 81 596 q 47 603 53 599 z "},">":{"ha":335,"x_min":4,"x_max":350,"o":"m 32 294 q 6 338 6 311 q 17 367 6 353 q 129 471 35 382 q 206 543 185 522 q 228 568 228 564 l 228 569 q 121 656 214 582 q 69 699 93 679 q 31 731 46 718 q 13 747 15 744 q 4 772 4 758 q 28 814 4 797 q 46 819 36 819 q 93 797 61 819 q 204 708 125 774 q 272 653 242 679 q 322 611 303 628 q 344 590 342 594 q 350 568 350 581 q 343 544 350 556 q 68 293 208 411 q 51 289 58 289 q 32 294 43 289 z "},"?":{"ha":483,"x_min":-36,"x_max":489,"o":"m 85 10 q 60 51 60 26 q 68 75 60 64 q 90 93 76 85 q 107 97 100 97 q 118 96 111 97 q 151 50 151 78 q 128 11 151 26 q 106 4 117 4 q 85 10 94 4 m 82 256 q 58 296 58 267 l 58 304 q 169 432 58 360 q 383 651 354 554 q 396 724 396 686 q 390 771 396 750 q 300 875 369 842 q 215 893 264 893 l 196 893 q 131 878 160 894 q 57 804 74 851 q 14 765 46 768 l 8 765 q -32 790 -18 765 q -36 810 -36 799 q -3 883 -36 842 q 79 950 29 924 q 213 979 124 979 q 349 949 303 979 q 417 899 382 935 q 489 728 489 829 l 489 710 q 458 594 488 647 q 368 475 431 533 q 229 367 322 429 q 151 294 151 318 q 126 256 151 269 q 104 250 115 250 q 82 256 94 250 z "},"@":{"ha":1028,"x_min":44,"x_max":1000,"o":"m 358 -44 q 51 294 113 6 q 44 410 44 318 q 51 523 44 479 q 75 621 57 567 q 413 971 172 890 q 549 990 464 990 q 756 942 669 990 q 994 603 949 838 q 1000 507 1000 561 q 985 354 1000 410 q 944 332 969 332 q 918 339 931 332 q 899 372 899 347 q 901 399 899 383 q 908 496 908 449 q 831 763 908 654 q 614 901 753 871 q 554 906 588 906 q 456 894 503 906 q 237 738 321 854 q 138 451 153 621 q 136 407 136 429 q 170 220 136 306 q 265 88 204 135 q 415 36 338 36 q 524 63 471 36 q 615 139 576 89 q 690 322 672 219 l 693 339 l 625 339 q 520 335 574 339 q 430 328 467 332 q 390 318 393 324 l 390 314 q 425 204 390 288 q 440 158 440 171 q 404 121 440 133 q 396 119 400 119 q 307 257 342 119 q 298 287 301 278 q 292 296 294 296 l 290 296 q 267 292 278 292 q 218 332 224 292 q 221 349 218 340 q 275 383 228 369 q 281 399 279 385 q 283 460 282 414 q 307 635 286 564 q 501 861 363 819 q 544 867 524 867 q 665 821 610 867 q 754 693 721 775 q 794 465 794 585 l 794 419 l 815 417 q 867 375 867 411 q 811 332 867 333 l 788 332 l 785 317 q 574 -8 742 82 q 408 -49 490 -49 q 358 -44 382 -49 m 438 414 q 644 426 553 426 l 700 426 l 700 472 q 654 688 700 596 q 544 781 607 781 q 463 738 504 781 q 376 457 376 632 l 376 406 l 392 408 q 438 414 408 411 z "},"A":{"ha":814,"x_min":-6,"x_max":783,"o":"m 174 -8 q 100 156 138 14 q 89 197 89 196 q 61 192 88 197 q 38 186 46 186 q 21 192 31 186 q -6 232 -6 208 q -4 243 -6 238 q 49 281 3 268 l 75 289 l 72 310 q 69 382 69 333 q 75 521 69 458 q 240 890 110 754 q 383 975 308 956 q 446 981 413 981 q 500 975 478 981 q 736 650 681 919 q 743 517 743 600 q 735 361 743 428 q 731 314 731 326 l 731 311 q 742 308 733 308 q 760 301 749 308 q 783 265 783 288 q 772 236 783 250 q 736 221 765 222 l 711 219 l 703 178 q 678 70 689 113 q 664 21 668 28 q 622 1 647 1 q 594 11 607 1 q 578 43 578 24 q 582 65 578 53 q 617 232 607 169 q 594 235 615 233 q 542 238 572 236 q 464 240 503 240 q 378 238 424 240 q 288 231 331 235 q 217 224 246 228 q 185 217 189 219 q 183 213 183 215 q 199 149 183 197 q 231 63 214 100 q 240 29 240 38 q 215 -8 240 7 q 194 -14 204 -14 q 174 -8 185 -14 m 207 313 q 489 328 343 328 q 599 324 553 328 q 618 322 610 322 q 635 335 632 322 q 644 392 639 349 q 650 503 650 447 q 631 693 650 611 q 497 882 590 832 q 474 890 483 888 q 442 893 464 893 q 406 890 417 893 q 372 875 396 888 q 220 695 278 825 q 163 406 163 565 q 164 350 163 378 q 167 317 165 326 q 178 308 168 308 q 207 313 186 308 z "},"B":{"ha":654,"x_min":81,"x_max":629,"o":"m 221 -10 q 172 -1 213 -7 q 97 35 111 7 q 90 63 92 40 q 86 161 88 85 q 81 729 81 465 q 81 808 81 771 q 81 871 81 844 q 83 913 82 897 q 83 931 83 929 q 228 976 96 972 l 247 976 q 451 933 364 976 q 622 726 585 863 q 629 656 629 696 q 618 560 629 606 q 500 363 590 451 l 461 324 l 481 310 q 536 242 517 283 q 546 183 546 229 q 535 125 546 138 q 378 7 490 42 q 243 -11 299 -11 q 221 -10 229 -11 m 328 85 q 454 185 454 121 q 449 211 454 197 q 388 261 432 242 l 367 268 l 336 257 q 221 233 272 233 l 211 233 l 178 235 l 181 85 l 210 81 q 257 78 231 78 q 328 85 296 78 m 236 357 q 310 363 272 363 l 354 363 l 379 379 q 507 525 463 435 q 535 639 533 578 l 535 657 q 510 758 535 713 q 408 855 476 821 q 247 889 339 889 l 226 889 q 175 885 185 889 q 174 867 175 883 q 174 823 174 851 q 174 760 174 794 q 176 418 174 586 l 179 340 l 193 346 q 236 357 207 351 z "},"C":{"ha":681,"x_min":44,"x_max":671,"o":"m 339 -7 q 127 152 210 17 q 44 474 44 288 q 117 781 44 643 q 242 931 168 879 q 396 983 315 983 q 574 910 488 983 q 639 831 607 878 q 671 768 671 785 q 657 735 671 750 q 624 721 643 721 q 569 768 590 721 q 488 861 533 831 q 394 892 442 892 q 290 853 340 892 q 199 739 239 815 q 140 499 143 633 q 139 463 139 481 q 181 251 139 342 q 267 126 214 171 q 376 81 319 81 q 403 83 390 81 q 551 196 486 101 q 579 232 569 224 q 607 240 589 240 q 638 228 626 240 q 653 199 653 215 q 614 124 653 172 q 508 26 565 64 q 371 -10 440 -10 q 339 -7 354 -10 z "},"D":{"ha":651,"x_min":81,"x_max":626,"o":"m 124 0 q 90 32 101 11 q 88 56 89 35 q 85 127 86 78 q 84 261 85 176 q 82 475 83 346 q 81 786 81 664 q 81 883 81 846 q 82 922 82 919 q 129 968 89 954 q 207 975 158 975 q 279 969 249 975 q 556 771 460 929 q 626 497 626 643 q 588 288 626 390 q 457 107 543 183 q 289 14 382 43 q 247 1 263 4 q 190 -1 231 -1 l 163 -1 q 124 0 132 -1 m 265 100 q 463 249 392 144 q 533 497 533 354 q 468 736 533 635 q 292 874 403 838 q 203 889 239 889 q 188 888 193 889 l 175 886 l 175 629 q 178 228 175 417 l 179 82 l 204 85 q 265 100 229 89 z "},"E":{"ha":613,"x_min":53,"x_max":621,"o":"m 282 -7 q 82 157 121 22 q 78 194 78 175 q 135 346 78 267 q 136 349 136 347 q 128 361 136 353 q 60 503 82 414 q 53 575 53 533 q 61 667 53 622 q 206 910 94 818 q 393 981 300 981 q 557 908 486 981 q 621 731 621 833 q 619 697 621 706 q 611 682 617 689 q 576 665 594 665 q 544 678 558 665 q 531 713 531 690 q 497 836 531 789 q 406 889 463 883 q 390 890 397 890 q 244 818 315 890 q 164 686 189 763 q 146 579 146 631 q 172 464 146 517 q 197 419 188 433 l 207 408 l 242 425 q 342 450 286 450 q 413 432 392 450 q 443 388 439 415 l 443 375 q 424 325 443 346 q 306 281 385 281 l 290 281 q 235 289 254 283 q 219 294 224 294 q 208 288 214 294 q 172 200 178 253 l 172 188 q 183 150 172 165 q 322 82 222 82 l 328 82 q 451 115 393 82 q 496 129 482 129 q 517 124 507 129 q 543 82 543 108 q 535 58 543 69 q 403 -1 492 25 q 318 -8 363 -8 q 282 -7 299 -8 z "},"F":{"ha":688,"x_min":-26,"x_max":700,"o":"m 197 0 q 169 64 186 10 q 144 151 156 108 q 133 203 133 193 q 119 211 133 213 q 75 207 106 211 q 19 201 36 201 q -10 213 -3 201 q -26 244 -26 228 q -22 261 -26 253 q 47 294 -18 289 q 102 303 90 300 q 114 313 114 306 l 114 315 q 106 471 106 400 q 143 729 106 619 q 262 912 183 846 q 440 978 340 978 q 617 904 549 978 q 664 839 650 872 q 700 690 700 753 q 696 661 700 672 q 651 631 681 631 q 621 642 635 631 q 606 694 606 646 q 547 844 599 796 q 442 888 500 888 q 357 866 399 888 q 285 803 315 844 q 210 613 231 729 q 201 451 201 549 q 206 346 201 389 l 208 311 l 304 314 q 361 315 339 315 q 413 310 400 315 q 431 292 425 306 q 436 271 436 282 q 404 229 436 243 q 311 224 385 226 q 253 221 276 222 q 226 218 229 219 l 226 217 q 232 185 226 210 q 246 131 238 161 q 263 78 254 101 q 275 29 275 46 q 261 1 275 13 q 228 -11 256 -11 q 197 0 206 -11 z "},"G":{"ha":744,"x_min":46,"x_max":689,"o":"m 326 -8 q 72 261 144 26 q 46 457 46 343 q 53 569 46 531 q 162 834 81 729 q 361 969 243 939 q 421 976 386 976 l 443 976 q 608 904 544 976 q 678 781 663 856 q 686 706 686 742 q 679 657 686 674 q 636 631 664 631 q 614 636 625 631 q 597 655 601 643 q 593 697 593 667 q 497 874 592 831 q 472 883 483 881 q 429 885 461 885 q 369 878 392 885 q 313 850 346 871 q 154 601 200 776 q 139 458 139 529 q 185 226 139 329 q 308 90 231 122 q 361 82 332 82 q 414 90 389 82 q 582 288 528 132 q 591 324 589 308 q 593 381 593 340 q 591 434 593 421 q 583 456 589 447 q 536 485 569 485 q 447 456 503 485 q 378 401 415 442 q 328 358 340 365 q 317 357 322 357 q 283 370 299 357 q 268 400 268 383 q 322 476 268 425 q 535 575 433 575 q 604 560 572 575 q 689 389 689 518 q 614 142 689 253 q 426 -1 539 31 q 357 -8 392 -8 q 326 -7 340 -8 l 326 -8 z "},"H":{"ha":747,"x_min":3,"x_max":725,"o":"m 117 -1 q 96 24 100 4 q 92 117 92 44 q 91 186 92 172 q 86 200 90 200 l 85 200 q 44 190 60 190 q 35 192 39 190 q 3 235 3 204 q 7 253 3 243 q 67 290 19 278 q 92 299 88 296 q 94 344 93 300 q 95 460 94 388 q 96 622 96 532 q 97 816 96 744 q 100 919 99 888 q 103 953 101 950 q 144 978 119 978 q 175 965 161 978 l 189 954 l 186 311 l 213 313 q 385 318 250 315 q 485 320 454 319 q 523 323 515 321 q 531 329 531 325 q 533 631 533 389 q 538 940 533 879 q 582 978 553 978 q 613 965 599 978 l 625 954 l 625 314 l 658 311 q 719 282 713 308 q 725 265 725 272 q 722 251 725 260 q 703 226 715 235 q 672 218 694 218 l 657 218 l 625 219 l 624 122 q 618 27 622 47 q 599 0 614 7 q 576 -7 588 -7 q 554 -1 567 -7 q 533 26 538 4 q 529 128 529 47 l 529 224 l 508 226 q 429 229 481 229 q 206 219 317 229 l 186 217 l 186 126 q 183 28 186 50 q 163 0 179 7 q 139 -7 150 -7 q 117 -1 128 -7 z "},"I":{"ha":258,"x_min":72,"x_max":171,"o":"m 96 3 q 81 10 86 6 q 74 42 76 15 q 72 140 72 69 q 75 486 72 246 q 78 768 76 669 q 82 907 79 867 q 90 956 85 947 q 103 967 94 964 q 126 974 115 974 q 157 960 142 974 q 171 932 171 951 l 171 886 q 168 479 171 775 q 167 317 168 389 q 166 193 167 246 q 165 104 165 140 q 163 49 164 68 q 161 28 163 31 q 121 -3 144 -3 l 119 -3 q 96 3 111 -3 z "},"J":{"ha":628,"x_min":-6,"x_max":565,"o":"m 201 4 q 38 131 96 25 q -6 304 -6 219 q -4 329 -6 318 q 11 374 -4 364 q 40 386 19 386 q 83 367 69 386 q 89 306 89 351 q 117 179 90 232 q 236 93 164 93 q 344 142 289 93 q 474 569 474 265 q 438 904 474 724 q 432 932 432 924 q 438 949 432 940 q 478 976 453 976 q 486 975 482 976 q 521 948 510 972 q 543 854 532 924 q 565 574 565 743 l 565 551 q 556 395 565 458 q 526 269 547 332 q 415 83 490 157 q 232 1 329 1 q 201 4 217 1 z "},"K":{"ha":635,"x_min":82,"x_max":619,"o":"m 111 6 q 90 21 99 11 l 82 32 l 83 485 q 84 765 83 667 q 87 904 85 864 q 94 953 89 944 q 107 964 99 961 q 129 969 118 969 q 160 957 147 969 l 174 943 l 175 831 q 176 718 176 779 q 175 603 176 656 q 174 528 174 553 q 175 497 174 504 q 179 490 176 490 l 181 490 q 225 500 203 500 q 249 497 236 500 q 269 494 263 494 q 288 503 279 494 q 382 601 336 543 q 500 832 458 706 q 542 911 521 911 q 560 917 551 917 q 572 915 565 917 q 606 871 606 904 q 486 589 583 753 q 374 457 431 507 l 347 435 l 360 419 q 407 354 374 401 q 557 236 486 236 q 614 214 601 236 q 619 192 619 203 q 614 169 619 181 q 556 146 606 146 q 324 311 433 146 q 278 374 290 358 l 267 386 l 240 379 q 213 376 224 376 q 196 378 204 376 q 179 379 185 379 l 176 379 q 175 206 175 347 q 174 84 175 121 q 172 37 174 47 q 165 22 169 26 q 128 0 140 0 q 111 6 125 1 z "},"L":{"ha":558,"x_min":-37,"x_max":589,"o":"m 279 17 q 181 50 243 25 l 117 75 l 100 61 q 28 31 64 32 q -37 92 -29 31 q -31 121 -37 106 q 7 158 -19 143 q 60 174 33 174 q 82 193 76 174 q 149 493 133 293 q 151 622 151 539 q 144 876 151 760 q 142 918 142 906 q 146 940 142 933 q 190 965 160 965 q 228 942 215 965 q 238 879 233 931 q 244 756 242 828 q 246 617 246 683 q 243 499 246 547 q 182 188 228 306 q 172 163 175 172 q 168 151 168 153 q 315 100 228 125 q 360 96 336 96 q 506 132 432 96 q 543 144 528 144 q 558 140 550 144 q 589 100 589 125 q 583 81 589 90 q 469 22 560 51 q 358 8 418 8 q 279 17 314 8 z "},"M":{"ha":1136,"x_min":54,"x_max":1067,"o":"m 171 17 q 109 163 140 44 q 63 428 78 281 q 54 600 54 514 q 67 800 54 708 q 101 938 79 892 q 150 972 121 972 q 171 967 160 972 q 194 929 194 954 q 185 896 194 914 q 158 776 168 860 q 147 596 147 692 q 151 496 147 544 q 158 413 156 432 q 161 404 160 404 q 165 432 163 404 q 292 882 190 750 q 425 957 349 957 q 590 832 528 957 l 607 799 l 624 824 q 700 908 660 876 q 843 964 765 964 l 860 964 q 925 949 897 965 q 1063 692 1033 896 q 1067 551 1067 642 q 1063 390 1067 461 q 1011 44 1039 149 q 993 17 1007 24 q 967 10 981 10 q 924 35 939 10 q 921 47 921 40 q 931 107 921 63 q 972 547 972 322 q 964 714 972 658 q 933 813 956 769 q 846 876 904 876 q 658 693 746 876 l 643 657 l 647 624 q 654 508 654 565 q 640 356 654 428 q 557 232 619 232 q 506 267 522 232 q 497 293 499 278 q 496 361 496 308 q 526 585 496 472 q 544 669 544 646 q 536 710 544 688 q 467 849 508 804 q 433 869 449 865 l 426 869 q 347 799 388 869 q 283 614 307 729 q 254 243 254 497 l 254 119 q 253 54 254 71 q 249 33 251 38 q 204 4 231 4 q 171 17 188 4 z "},"N":{"ha":843,"x_min":65,"x_max":792,"o":"m 676 8 q 654 25 664 14 q 644 47 644 32 q 661 135 644 69 q 699 444 699 299 q 636 767 699 633 q 501 883 574 883 q 415 839 458 883 q 336 707 372 794 q 243 156 261 532 q 235 68 239 90 q 218 39 231 46 q 186 26 203 26 q 142 51 161 26 q 88 256 111 101 q 65 557 65 410 q 79 774 65 664 q 113 926 93 885 q 157 953 132 953 q 199 924 183 953 q 201 911 201 917 q 196 886 201 901 q 168 733 181 836 q 161 533 161 643 q 163 447 161 483 q 167 411 164 411 q 168 413 168 411 q 181 485 171 425 q 367 919 235 803 q 499 972 432 972 q 614 935 556 972 q 779 607 739 849 q 792 440 792 526 q 751 108 792 288 q 733 33 739 50 q 689 7 717 7 q 676 8 682 7 z "},"O":{"ha":782,"x_min":17,"x_max":735,"o":"m 300 -6 q 117 104 188 13 q 49 326 49 204 q 51 369 49 349 q 56 419 56 404 q 46 458 56 442 q 17 603 17 529 q 47 757 17 682 q 136 890 78 832 q 363 982 233 982 q 601 876 500 982 q 703 701 671 804 q 735 506 735 604 q 697 290 735 393 q 586 110 658 186 q 471 24 533 53 q 338 -8 404 -8 q 300 -6 318 -8 m 376 86 q 438 108 406 94 q 589 276 531 160 q 633 411 619 340 q 640 508 640 454 q 633 604 640 561 q 417 886 586 832 q 371 892 400 892 l 351 892 q 281 876 308 892 q 113 621 126 806 l 110 575 l 133 611 q 183 681 157 649 q 278 744 239 744 q 313 729 297 744 q 324 701 324 722 q 292 656 324 671 q 221 576 260 638 q 165 458 182 514 l 160 439 l 182 417 q 328 344 235 358 q 379 326 372 336 q 393 294 393 311 q 369 256 393 271 q 343 251 360 251 q 256 268 308 251 q 165 311 204 285 q 143 325 146 325 l 143 322 q 144 299 143 315 q 301 86 165 122 q 339 81 322 81 q 376 86 354 81 z "},"P":{"ha":689,"x_min":82,"x_max":661,"o":"m 111 1 q 96 12 101 4 q 88 60 90 19 q 85 200 86 100 q 83 486 85 300 q 82 778 82 671 q 82 874 82 836 q 83 932 82 913 q 85 954 83 951 q 129 985 96 985 q 160 969 153 985 q 172 953 169 960 q 174 928 174 947 q 176 900 174 906 q 201 915 176 900 q 363 964 267 964 q 488 936 442 964 q 649 736 604 876 q 661 640 660 706 l 661 615 q 617 417 661 503 q 456 229 557 296 q 301 183 378 183 q 204 206 249 183 q 181 218 185 217 q 180 206 181 218 q 178 172 179 193 q 178 124 178 150 q 174 25 178 44 q 153 0 169 6 q 133 -6 142 -6 q 111 1 124 -6 m 356 286 q 450 343 406 299 q 531 456 499 388 q 569 622 569 535 q 563 699 569 676 q 487 824 540 778 q 365 871 433 871 q 332 868 349 871 q 181 738 211 840 q 177 702 178 729 q 176 619 176 675 l 176 531 l 179 347 l 194 329 q 260 283 228 296 q 299 278 276 278 q 356 286 328 278 z "},"Q":{"ha":846,"x_min":53,"x_max":819,"o":"m 322 6 q 97 240 150 56 q 88 333 88 282 q 92 383 88 361 l 96 415 l 82 450 q 53 601 53 510 l 53 618 q 86 769 54 707 q 279 958 150 901 q 413 985 328 985 q 547 957 500 985 q 747 721 688 888 q 769 633 764 672 q 775 518 775 593 q 774 436 775 464 q 768 389 772 408 q 726 251 753 313 l 713 218 l 738 192 q 819 61 819 97 q 775 19 819 25 q 760 22 768 19 q 718 67 746 22 q 679 124 693 104 l 665 140 l 639 113 q 468 6 565 32 q 394 -1 433 -1 q 322 6 354 -1 m 465 97 q 514 122 490 108 q 558 159 535 136 q 582 188 582 182 l 582 189 q 563 199 581 193 q 513 211 544 204 q 440 225 482 218 q 204 301 268 251 q 183 313 186 313 q 182 307 182 313 q 196 239 182 288 q 344 90 238 122 q 389 86 364 86 q 465 97 429 86 m 646 301 q 683 465 674 375 q 685 514 685 489 q 654 698 685 611 q 569 836 624 785 q 408 900 489 900 q 393 899 400 900 q 226 815 293 886 q 144 633 158 743 q 143 613 143 624 q 150 550 143 571 q 169 574 153 550 q 272 671 214 629 q 351 700 321 700 q 364 699 358 700 q 397 658 397 685 q 390 638 397 649 q 372 619 382 625 q 336 604 361 615 q 207 454 256 556 l 197 431 l 211 413 q 297 350 246 376 q 456 311 338 331 q 615 274 582 288 q 625 269 621 269 q 646 301 636 269 z "},"R":{"ha":692,"x_min":82,"x_max":663,"o":"m 113 1 q 94 18 104 7 l 83 31 l 83 378 q 82 835 83 664 q 83 924 82 897 q 90 958 85 950 q 110 972 96 967 q 129 978 119 978 q 163 960 147 978 q 174 928 174 951 q 176 908 174 911 q 201 925 176 908 q 369 981 272 981 q 443 969 424 981 q 629 767 582 921 q 638 729 636 746 q 640 665 640 713 q 639 604 640 624 q 632 568 638 585 q 421 301 581 392 l 403 292 l 425 263 q 518 175 475 197 q 557 164 535 164 q 586 165 567 164 q 613 167 601 167 q 656 149 651 167 q 663 122 663 135 q 651 92 663 106 q 565 69 628 69 q 343 214 449 69 l 306 263 l 274 263 q 189 288 218 263 l 181 299 l 178 165 q 175 50 176 75 q 168 21 174 25 q 126 -1 150 -1 q 113 1 119 -1 m 404 401 q 510 517 472 447 q 549 663 549 586 q 488 832 549 767 q 368 888 435 888 q 285 867 328 888 q 178 742 204 819 q 174 532 174 674 q 178 376 174 410 q 193 386 181 376 q 243 401 215 401 q 319 375 281 401 l 333 365 l 353 374 q 404 401 375 382 z "},"S":{"ha":703,"x_min":29,"x_max":661,"o":"m 314 3 q 164 74 226 15 q 86 217 96 133 q 85 236 85 228 q 108 279 85 271 q 131 286 121 286 q 151 279 140 286 q 179 226 174 275 q 222 142 188 176 q 357 89 276 89 q 503 149 447 89 q 551 267 551 206 q 535 333 551 303 q 486 381 518 364 q 325 403 456 399 q 169 423 221 407 q 82 478 118 439 q 29 617 29 538 q 31 643 29 631 q 247 936 63 838 q 401 975 328 975 q 558 923 490 975 q 650 776 625 871 q 661 681 661 729 q 646 592 661 622 q 611 574 632 574 q 593 578 601 574 q 564 613 564 592 q 565 664 564 621 q 567 696 567 681 q 544 794 567 753 q 406 886 499 886 q 288 856 351 886 q 210 797 246 838 q 156 729 171 760 q 125 618 125 679 q 179 515 125 539 q 340 490 210 494 q 493 472 453 486 q 639 321 608 436 q 644 265 644 297 q 638 203 644 231 q 397 3 585 35 q 356 -1 374 -1 q 314 3 336 -1 z "},"T":{"ha":563,"x_min":-10,"x_max":708,"o":"m 304 8 q 283 26 292 14 q 278 53 281 29 q 276 165 276 76 q 276 460 276 253 l 276 881 l 249 878 q 86 844 154 868 q 38 831 50 831 q 28 829 32 829 q 6 842 17 829 q -10 874 -10 851 q 97 943 -10 924 q 354 974 201 972 q 413 975 386 975 q 615 958 524 975 q 683 944 665 951 q 704 917 700 936 q 708 903 708 908 q 703 888 708 896 q 683 867 696 874 q 661 861 678 861 q 589 869 642 861 q 417 885 494 885 l 371 885 l 371 461 q 371 164 371 253 q 369 52 371 75 q 363 26 367 29 q 324 3 343 3 l 322 3 q 304 8 318 3 z "},"U":{"ha":796,"x_min":60,"x_max":776,"o":"m 707 11 q 629 129 671 43 q 607 199 619 154 l 593 244 l 582 225 q 317 19 453 19 q 289 22 303 19 q 67 369 110 56 q 60 506 60 428 q 67 650 60 585 q 108 860 82 771 q 160 965 135 949 q 185 971 171 971 q 210 964 199 971 q 231 928 231 944 q 217 888 231 919 q 170 713 188 819 q 153 503 153 606 q 156 428 153 464 q 243 150 172 228 q 315 113 276 113 q 424 171 365 113 q 536 339 485 231 l 563 394 l 561 443 q 560 569 560 500 q 564 771 560 699 q 671 974 592 974 q 685 972 678 974 q 736 921 719 964 q 749 822 749 883 q 679 446 749 672 l 663 394 l 668 363 q 757 93 694 176 q 776 51 776 69 q 772 32 776 42 q 729 6 756 6 q 707 11 718 6 z "},"V":{"ha":629,"x_min":22,"x_max":697,"o":"m 258 15 q 222 77 239 21 q 160 343 206 133 q 43 844 81 703 q 22 928 25 906 l 22 936 q 35 961 22 953 q 67 975 44 975 q 118 922 107 975 q 250 367 160 785 q 294 165 290 188 q 303 185 296 165 q 322 235 311 204 q 583 886 513 751 q 618 951 606 936 q 644 967 631 967 q 656 968 651 968 q 683 954 674 968 q 697 928 697 943 q 671 856 697 907 q 404 183 596 708 q 342 41 365 76 q 290 6 319 6 q 258 15 269 6 z "},"W":{"ha":1013,"x_min":63,"x_max":960,"o":"m 647 10 q 510 132 569 33 q 497 158 503 147 q 492 171 492 169 q 490 175 492 175 q 482 167 488 175 q 465 144 476 160 q 383 56 425 86 q 281 19 335 18 q 245 22 256 19 q 215 35 235 25 q 65 354 90 97 q 63 442 63 390 q 74 642 63 544 q 140 931 101 826 q 196 982 164 982 q 210 979 203 982 q 242 936 242 965 q 235 908 242 924 q 165 624 194 821 q 158 458 158 553 q 165 303 158 364 q 257 115 193 150 q 278 108 269 108 q 293 111 283 108 q 372 174 333 124 q 419 254 393 203 q 446 319 446 306 q 440 371 446 328 q 435 490 435 422 q 439 590 435 551 q 493 733 457 704 q 529 750 510 750 q 540 749 535 750 q 600 618 600 742 q 599 569 600 596 q 558 354 588 464 q 547 307 547 322 q 550 288 547 299 q 594 172 564 229 q 658 104 624 125 q 683 97 671 97 q 783 189 735 97 q 856 426 832 281 q 867 594 867 506 q 856 765 867 683 q 825 890 847 831 l 810 939 l 817 954 q 858 981 833 981 q 890 968 876 981 q 956 710 933 908 q 960 613 960 671 q 950 424 960 506 q 728 14 892 69 q 679 7 703 7 q 647 10 663 7 z "},"X":{"ha":617,"x_min":21,"x_max":708,"o":"m 500 25 q 326 260 426 97 q 302 299 310 288 q 290 310 294 310 l 289 308 q 160 88 250 246 q 128 33 139 47 q 111 15 118 18 q 92 11 101 11 q 58 25 74 11 q 47 54 47 38 q 60 97 47 72 q 183 315 94 167 l 240 411 l 208 478 q 38 878 111 681 q 21 938 21 924 l 21 942 q 56 981 29 972 l 63 981 q 100 967 82 981 q 113 940 103 964 q 136 883 124 917 q 301 507 253 588 q 361 597 301 507 q 541 847 460 743 q 649 963 622 951 q 664 965 656 965 q 708 919 700 965 q 706 903 708 911 q 674 861 700 893 q 486 614 590 767 q 353 410 388 469 l 353 408 q 366 378 353 403 q 400 319 379 353 q 445 248 421 285 q 492 179 469 211 q 532 126 515 147 q 583 49 583 76 q 569 19 583 31 q 538 6 563 6 q 500 25 515 6 z "},"Y":{"ha":714,"x_min":60,"x_max":676,"o":"m 253 15 q 107 103 154 38 q 90 140 90 119 q 93 158 90 153 q 106 171 96 164 q 128 182 114 182 l 139 182 q 183 154 160 185 q 311 100 229 100 l 318 100 q 457 149 397 100 q 540 285 517 199 q 550 390 550 311 q 551 475 551 467 q 549 479 551 479 q 522 446 544 479 q 467 376 494 407 q 274 274 365 274 q 156 325 208 274 q 79 475 104 376 q 60 644 60 544 q 61 693 60 667 q 121 972 71 929 q 149 979 136 979 q 179 965 165 979 q 193 936 193 953 q 186 907 193 924 q 160 778 171 875 q 154 667 154 729 q 165 515 154 578 q 224 386 185 425 q 271 365 242 365 l 279 365 q 386 428 328 365 q 518 628 465 507 l 532 661 l 533 758 q 579 965 532 936 q 614 979 589 979 q 676 900 671 979 l 676 883 q 639 686 676 808 l 629 654 l 636 578 q 644 407 644 499 q 642 320 644 342 q 633 272 640 299 q 514 78 600 144 q 400 19 458 38 q 307 11 358 11 q 253 15 275 11 z "},"Z":{"ha":733,"x_min":-31,"x_max":733,"o":"m 451 17 q 260 69 382 21 l 199 93 l 167 74 q 49 35 100 35 q -24 74 -1 35 q -31 97 -31 88 q -29 108 -31 103 q 14 168 -22 142 q 58 188 35 182 q 128 193 82 193 l 183 193 l 242 251 q 428 479 333 342 q 621 826 581 707 q 625 850 625 843 q 619 864 625 858 q 592 881 611 874 q 482 893 549 893 q 351 881 413 893 q 236 827 283 864 q 189 754 189 790 q 143 708 189 714 q 117 717 129 708 q 97 757 97 729 q 99 778 97 767 q 156 874 107 828 q 481 979 254 979 q 704 904 667 979 q 714 865 714 896 l 714 847 q 706 785 714 811 q 669 703 697 758 q 318 197 519 415 q 279 157 279 157 q 319 140 279 157 q 485 101 410 101 q 660 146 565 101 q 690 153 678 153 q 721 139 708 153 q 733 110 733 125 q 714 75 733 90 q 579 24 656 44 q 474 15 522 15 q 451 17 461 15 z "},"[":{"ha":211,"x_min":0,"x_max":211,"o":"m 33 -39 q 14 -19 19 -33 q 7 51 8 -6 q 4 240 6 107 q 0 739 3 488 l 0 869 q 1 978 0 957 q 7 1003 3 1000 q 35 1023 15 1018 q 110 1028 54 1028 l 182 1029 l 196 1015 q 211 986 211 1007 l 211 982 q 135 935 211 932 l 92 933 l 93 776 q 99 335 96 610 l 100 47 l 139 49 l 151 49 q 187 43 176 49 q 204 22 197 38 q 208 4 208 14 q 193 -29 208 -12 q 143 -43 188 -42 q 78 -46 101 -46 q 33 -39 42 -46 z "},"\\":{"ha":504,"x_min":0,"x_max":504,"o":"m 426 11 q 409 42 422 15 q 371 121 396 68 q 307 257 346 174 q 213 460 268 340 q 68 771 126 643 q 4 913 10 899 q 0 933 0 924 q 17 967 0 953 q 46 978 31 978 q 75 967 61 978 q 96 930 79 963 q 144 830 113 897 q 226 654 176 763 q 435 203 360 367 q 470 126 454 161 q 495 69 486 92 q 504 44 504 47 q 481 3 504 22 q 456 -3 467 -3 q 426 11 438 -3 z "},"]":{"ha":211,"x_min":0,"x_max":211,"o":"m 15 -33 q 0 -4 0 -25 l 0 0 q 78 47 0 50 l 119 49 l 118 206 q 113 647 115 372 l 111 935 l 72 933 l 60 933 q 24 939 35 933 q 7 960 14 944 q 3 978 3 969 q 19 1013 3 996 q 39 1023 26 1021 q 97 1026 51 1025 q 139 1028 122 1028 q 177 1022 167 1028 q 196 1001 188 1017 q 202 981 200 997 q 205 912 204 965 q 207 742 206 858 q 211 243 210 494 l 211 113 q 210 3 211 25 q 204 -21 208 -18 q 176 -41 196 -36 q 101 -46 157 -46 l 29 -47 l 15 -33 z "},"^":{"ha":249,"x_min":0,"x_max":249,"o":"m 26 782 q 0 824 0 797 q 11 858 0 829 q 37 922 22 886 q 65 984 51 957 q 83 1018 78 1011 q 119 1033 100 1033 q 156 1018 139 1033 q 208 922 169 1000 q 249 826 249 846 l 249 822 q 206 782 239 782 q 174 793 186 782 q 146 838 163 804 q 131 867 138 854 q 124 879 125 879 q 117 868 122 879 q 104 840 111 857 q 64 782 83 786 q 47 776 56 776 q 26 782 38 776 z "},"_":{"ha":483,"x_min":0,"x_max":483,"o":"m 22 -6 q 0 36 0 11 q 8 61 0 50 q 30 78 15 74 q 104 82 44 82 q 247 81 154 82 q 404 78 357 79 q 463 71 451 76 q 479 53 475 65 q 483 35 483 43 q 468 1 483 17 l 456 -11 l 244 -11 q 109 -10 156 -11 q 44 -8 63 -10 q 22 -6 26 -7 z "},"`":{"ha":208,"x_min":0,"x_max":208,"o":"m 118 813 q 6 972 33 864 q 0 1008 0 994 q 14 1043 0 1031 q 46 1054 24 1054 q 76 1043 69 1054 q 92 1017 89 1031 q 119 938 100 972 q 178 885 136 911 q 208 840 208 864 q 190 806 208 822 q 165 796 179 796 q 118 813 146 796 z "},"a":{"ha":606,"x_min":-3,"x_max":601,"o":"m 418 -18 q 389 22 389 4 q 404 81 389 33 q 436 213 436 186 q 404 219 436 219 q 343 218 385 219 q 208 211 254 215 l 168 206 l 169 186 q 203 67 181 121 q 213 29 213 44 q 186 -11 213 1 q 165 -17 175 -17 q 82 147 114 -17 q 75 173 78 165 q 69 181 72 181 q 47 176 64 179 l 43 176 q 1 206 13 176 q -3 224 -3 215 q 43 274 -3 254 l 64 281 l 67 347 q 90 513 68 439 q 260 757 139 697 q 287 767 276 765 q 328 768 297 768 q 369 766 357 768 q 394 757 381 764 q 517 593 476 715 q 544 383 544 525 l 544 299 l 558 296 q 590 280 579 293 q 601 250 601 267 q 586 217 601 233 q 553 206 581 206 l 532 206 l 521 154 q 474 -1 496 46 q 432 -21 456 -21 q 418 -18 425 -21 m 446 314 l 450 329 q 451 363 451 339 q 443 503 451 426 q 346 676 414 653 q 331 678 338 678 q 307 674 321 678 q 257 639 285 669 q 171 451 196 575 q 158 313 158 351 l 158 304 q 167 301 158 301 q 200 304 176 301 q 344 311 247 308 l 446 314 z "},"b":{"ha":535,"x_min":57,"x_max":504,"o":"m 254 -11 q 214 -3 242 -8 q 164 3 181 3 l 158 3 q 113 24 126 3 q 58 400 72 104 q 57 446 57 421 q 64 613 57 525 q 78 722 71 700 q 115 744 92 744 q 150 731 133 744 q 164 692 164 719 q 163 665 164 681 q 161 646 161 653 q 163 639 161 639 q 167 644 167 643 q 182 676 167 649 q 261 757 215 732 q 324 768 268 768 q 363 766 353 768 q 390 756 374 764 q 494 615 467 710 q 504 538 504 579 q 499 479 504 506 q 438 347 483 410 l 418 321 l 426 314 q 501 172 501 254 q 479 90 501 131 q 351 -3 438 25 q 271 -12 310 -12 q 254 -11 261 -12 m 342 94 q 390 133 374 110 q 407 179 407 156 q 360 249 407 219 q 342 254 350 254 q 310 243 331 254 q 260 226 288 232 q 236 224 246 224 q 215 228 226 224 l 197 235 l 197 185 q 200 114 197 143 l 203 93 l 226 88 q 275 82 250 82 q 342 94 313 82 m 222 335 q 278 350 246 344 q 331 372 315 353 q 401 481 379 415 q 410 535 410 504 l 410 553 q 394 618 410 593 q 326 679 364 679 q 311 676 318 679 q 228 533 260 649 q 197 332 197 381 q 199 325 197 325 q 206 328 200 325 q 222 335 213 331 z "},"c":{"ha":586,"x_min":35,"x_max":581,"o":"m 256 -6 q 42 243 92 24 q 35 339 35 283 q 44 454 35 403 q 306 763 108 724 q 338 765 322 765 q 457 714 406 765 q 515 554 515 658 q 514 518 515 529 q 508 500 513 507 q 468 475 489 475 q 429 496 451 475 q 422 550 425 508 q 410 619 421 599 q 388 654 397 643 q 336 672 365 672 q 200 588 268 672 q 128 344 128 482 q 129 318 128 332 q 178 148 135 211 q 286 85 222 85 q 317 89 301 85 q 421 144 369 104 q 475 199 444 164 q 532 242 508 242 q 550 238 540 242 q 581 196 581 219 q 525 115 581 171 q 301 -7 417 -1 l 288 -7 q 256 -6 269 -7 z "},"d":{"ha":656,"x_min":58,"x_max":607,"o":"m 244 11 q 210 22 219 19 q 204 24 207 24 q 188 15 199 24 q 165 7 176 7 q 157 8 161 7 q 119 32 133 10 q 92 113 106 54 q 58 457 58 231 q 75 696 58 640 q 128 760 82 760 q 169 732 157 760 q 172 715 172 725 q 169 690 172 707 q 153 564 160 647 l 151 536 l 163 565 q 371 765 235 751 l 382 765 q 498 715 444 765 q 582 575 551 664 q 607 400 607 501 l 607 382 q 593 269 606 313 q 378 13 539 69 q 308 3 346 3 q 244 11 275 3 m 357 106 q 493 264 451 142 q 513 403 513 311 q 473 594 513 517 q 379 671 433 671 q 349 664 364 671 q 219 414 257 617 q 206 210 206 308 q 210 140 206 165 q 242 111 206 122 q 308 96 279 96 q 357 106 332 96 z "},"e":{"ha":606,"x_min":-15,"x_max":586,"o":"m 251 -7 q 53 238 93 31 l 49 268 l 35 267 l 31 267 q -15 311 -8 267 l -15 318 q 26 360 -11 349 q 46 370 42 363 q 53 406 50 378 q 151 660 71 549 q 240 738 192 711 q 338 764 288 764 q 463 710 406 764 q 546 442 544 631 q 549 368 546 394 q 550 360 550 364 q 543 342 550 351 q 518 322 535 325 q 436 318 501 318 q 199 300 324 318 q 153 292 164 294 q 142 282 142 290 q 143 269 142 278 q 239 96 163 136 q 297 83 254 83 q 356 94 329 83 q 500 214 407 106 q 540 238 521 238 q 560 233 550 238 q 586 196 586 221 q 568 153 586 175 q 394 10 479 49 q 286 -10 339 -10 q 251 -7 268 -10 m 228 396 q 372 408 294 404 l 453 414 l 453 439 q 421 610 453 531 q 364 667 397 650 q 336 671 351 671 q 289 660 314 671 q 203 574 242 632 q 147 404 161 494 q 146 389 146 393 q 149 385 146 385 q 154 386 150 385 q 228 396 169 389 z "},"f":{"ha":553,"x_min":-14,"x_max":532,"o":"m 171 4 q 154 19 161 10 q 104 176 133 65 q 95 211 99 197 q 90 226 92 225 l 86 226 q 60 224 79 226 q 33 222 43 222 q -1 238 8 222 q -14 267 -14 251 q -7 290 -14 279 q 47 315 0 310 l 79 319 l 79 379 q 188 688 79 583 q 254 738 221 724 q 353 763 306 763 q 397 757 375 763 q 522 631 490 729 q 532 558 532 596 q 524 501 532 522 q 481 471 507 471 q 458 475 469 471 q 436 519 436 479 q 438 540 436 529 l 438 558 q 349 669 438 667 q 224 586 275 669 q 172 385 172 503 l 172 365 l 174 332 l 283 329 q 393 324 368 328 q 425 304 418 319 q 432 281 432 294 q 425 256 432 267 q 406 240 418 244 q 354 236 393 236 q 292 238 331 236 q 225 239 249 239 q 199 238 207 239 q 189 236 190 238 l 189 235 q 195 202 189 228 q 210 146 201 176 q 226 92 218 115 q 238 42 238 58 q 228 14 238 24 q 192 -1 211 -1 q 171 4 181 -1 z "},"g":{"ha":594,"x_min":33,"x_max":565,"o":"m 217 4 q 115 67 153 19 q 104 101 104 83 q 131 143 104 129 q 149 147 140 147 q 190 125 168 147 q 225 101 210 106 q 258 97 242 97 q 343 123 303 97 q 400 192 383 149 q 415 274 415 249 q 414 281 415 279 q 392 267 410 281 q 225 204 307 204 q 178 210 200 204 q 93 260 128 221 q 33 426 33 322 q 83 610 33 528 q 221 736 133 693 q 308 757 265 757 l 325 757 q 401 726 378 753 q 415 693 415 717 q 371 644 415 650 q 346 653 358 644 q 313 661 332 661 q 197 603 261 661 q 125 428 125 515 q 128 399 125 413 q 185 308 140 331 q 222 301 200 301 q 289 317 254 301 q 403 413 353 347 q 407 437 406 415 q 408 499 408 458 q 433 643 410 611 q 497 686 463 686 q 543 664 522 686 q 565 582 565 647 q 528 439 565 514 l 508 399 l 508 314 q 476 133 511 189 q 325 8 429 43 q 258 0 293 0 q 217 4 235 0 z "},"h":{"ha":592,"x_min":6,"x_max":578,"o":"m 111 8 q 89 24 97 13 q 82 42 83 29 q 81 100 81 56 q 80 167 81 144 q 78 198 79 190 q 75 206 78 206 l 71 203 q 53 199 63 199 q 20 212 35 199 q 6 244 6 225 q 7 254 6 249 q 56 294 15 283 l 81 300 l 83 513 q 87 673 85 625 q 93 733 89 721 q 108 749 97 744 q 135 756 121 756 q 158 750 149 756 q 172 736 168 744 q 177 697 176 728 q 178 589 178 665 l 178 519 l 176 313 l 188 315 q 358 325 288 325 l 404 325 l 407 525 q 410 676 408 631 q 416 733 411 721 q 431 749 421 744 q 456 756 442 756 q 481 749 471 756 q 493 738 489 744 q 499 713 497 732 q 500 646 500 693 l 500 318 l 522 315 q 574 288 565 311 q 578 268 578 278 q 561 235 578 250 q 521 224 557 224 l 496 224 l 496 135 q 492 41 496 63 q 474 13 489 19 q 449 6 463 6 q 424 13 435 6 q 407 35 411 19 q 403 94 403 50 l 403 138 l 404 229 l 382 231 q 353 232 374 232 q 194 224 282 232 l 175 221 l 174 128 q 171 57 172 82 q 167 28 169 32 q 126 6 151 6 q 111 8 119 6 z "},"i":{"ha":221,"x_min":61,"x_max":156,"o":"m 89 6 q 70 21 76 10 q 63 78 64 32 q 61 236 61 124 l 61 307 q 63 514 61 454 q 69 589 64 574 q 86 608 74 604 q 110 617 97 617 q 131 611 118 617 q 147 598 142 608 q 154 542 153 588 q 156 386 156 497 l 156 308 q 155 144 156 204 q 153 56 154 83 q 150 26 151 29 q 108 1 133 1 q 89 6 99 1 m 86 674 q 61 715 61 686 q 75 746 61 736 q 107 758 82 758 q 139 746 131 758 q 151 714 151 738 q 122 672 151 685 q 106 668 113 668 q 86 674 97 668 z "},"j":{"ha":503,"x_min":15,"x_max":450,"o":"m 175 7 q 88 54 128 14 q 15 243 21 122 l 15 258 q 21 303 15 289 q 43 324 26 317 q 61 328 53 328 q 74 326 67 328 q 99 310 89 321 q 107 294 106 303 q 108 261 108 286 q 133 147 110 190 q 197 97 158 100 l 203 97 q 269 129 239 97 q 358 443 358 231 q 357 499 358 469 q 356 538 356 522 q 360 572 356 561 q 376 588 365 582 q 400 593 389 593 q 442 567 426 593 q 449 538 447 558 q 450 446 450 518 q 445 319 450 361 q 425 226 440 276 q 229 7 365 38 q 203 3 213 3 q 175 7 192 3 m 376 667 q 350 708 350 683 q 379 753 350 736 q 397 757 388 757 q 432 740 417 757 q 442 710 442 735 q 429 676 442 681 q 397 661 414 661 q 376 667 388 661 z "},"k":{"ha":483,"x_min":65,"x_max":467,"o":"m 65 38 l 65 297 q 68 640 65 513 l 71 724 l 82 738 q 114 753 96 753 q 150 735 133 753 q 157 704 156 733 q 160 563 158 675 l 161 399 l 182 397 l 192 397 q 228 419 210 397 q 368 664 324 511 q 415 726 383 728 l 419 726 q 461 703 444 726 q 467 679 467 694 q 450 608 467 654 q 308 367 401 465 l 276 333 l 286 321 q 353 256 322 274 q 383 246 367 246 l 394 246 q 447 200 443 246 q 389 149 447 154 l 379 149 q 228 243 307 149 q 183 285 196 285 l 176 283 q 160 279 163 282 q 157 163 160 279 q 154 76 156 111 q 151 36 153 42 q 110 10 139 10 q 79 24 88 10 l 65 38 z "},"l":{"ha":464,"x_min":-3,"x_max":493,"o":"m 278 21 q 183 54 258 22 l 138 74 l 121 56 q 58 22 90 22 q 6 51 29 22 q -3 82 -3 64 q 10 124 -3 104 q 61 163 28 150 q 90 231 78 161 q 96 404 96 283 q 92 608 96 504 q 89 683 89 657 q 92 722 89 710 q 106 739 96 733 q 131 747 117 747 q 176 721 160 747 q 193 367 193 492 q 178 192 193 274 q 174 161 174 168 l 174 158 q 282 115 221 138 q 338 107 311 107 q 413 126 375 107 q 447 136 432 136 q 468 131 458 136 q 493 88 493 113 q 485 63 493 74 q 404 21 461 38 q 342 15 378 15 q 278 21 306 15 z "},"m":{"ha":813,"x_min":57,"x_max":760,"o":"m 153 17 q 92 164 121 22 q 57 503 57 314 q 97 738 57 719 q 124 746 111 746 q 163 722 147 746 q 168 704 168 717 q 160 646 168 690 q 150 510 150 586 q 151 446 150 478 l 154 386 l 163 438 q 258 689 194 613 q 351 735 303 735 q 381 731 367 735 q 447 678 417 717 q 464 658 463 658 q 483 679 467 658 q 588 738 532 738 l 597 738 q 753 493 717 724 q 760 376 760 444 q 753 236 760 301 q 714 36 735 94 q 675 14 692 14 q 631 51 649 14 l 631 56 q 640 125 631 74 q 665 367 665 236 q 649 542 665 490 q 589 644 617 644 q 532 581 571 644 q 507 506 507 533 q 508 494 507 500 q 514 349 514 438 q 511 257 514 294 q 483 106 501 150 q 432 69 461 69 q 401 81 415 69 q 379 114 386 92 q 368 224 368 156 q 397 475 368 339 l 408 524 l 400 553 q 349 640 372 640 q 308 597 339 640 q 235 221 247 481 q 224 63 229 99 q 203 19 218 26 q 174 13 189 13 q 153 17 163 13 z "},"n":{"ha":610,"x_min":47,"x_max":586,"o":"m 456 25 q 442 53 442 33 q 451 101 442 69 q 492 357 492 228 q 450 579 492 499 q 381 649 417 649 q 350 638 365 649 q 211 197 246 549 q 201 83 204 110 q 193 51 197 57 q 151 28 175 28 q 115 42 132 28 q 67 191 86 74 q 47 436 47 308 q 50 518 47 478 q 94 732 60 708 q 124 743 108 743 q 168 714 153 743 q 169 701 169 707 q 164 676 169 692 q 142 476 147 615 q 140 422 140 443 q 142 400 140 401 q 147 417 143 401 q 158 456 151 433 q 250 665 193 594 q 322 725 282 706 q 379 736 333 736 l 386 736 q 440 726 418 736 q 488 688 463 715 q 561 551 536 638 q 586 360 586 464 q 565 168 586 267 q 528 38 544 78 q 486 15 511 15 q 456 25 469 15 z "},"o":{"ha":674,"x_min":14,"x_max":801,"o":"m 240 -14 q 75 157 117 21 q 65 242 65 193 q 76 340 65 294 l 85 378 l 65 397 q 14 526 14 454 q 53 651 14 590 q 149 739 93 710 q 267 768 206 768 q 447 694 363 768 q 533 574 501 647 q 558 535 550 535 q 564 536 561 535 q 706 565 617 554 q 753 569 739 569 q 771 567 765 569 q 801 522 801 549 q 779 483 801 500 q 717 471 765 478 q 581 442 625 457 q 576 406 576 444 l 576 374 q 554 208 576 268 q 365 -7 500 47 q 288 -18 328 -18 q 240 -14 261 -18 m 350 90 q 476 278 446 139 q 483 375 483 331 q 482 400 483 396 l 481 400 q 436 388 472 400 q 217 339 313 339 l 174 340 l 168 322 q 161 249 161 306 q 163 197 161 211 q 169 169 164 182 q 219 101 186 125 q 290 76 251 76 q 350 90 319 76 m 281 440 q 460 500 399 471 l 460 503 q 414 594 460 521 q 325 663 376 642 q 265 672 304 672 q 201 660 215 672 q 133 601 158 638 q 108 528 108 565 q 115 492 108 508 q 126 474 125 474 q 143 494 129 474 q 214 567 176 546 q 246 575 233 575 q 276 563 267 575 q 289 532 289 553 q 261 486 289 501 q 218 436 218 449 q 229 433 218 433 q 281 440 247 433 z "},"p":{"ha":644,"x_min":50,"x_max":621,"o":"m 139 -14 q 121 0 128 -8 q 63 256 92 53 q 50 479 50 364 q 72 715 50 640 q 113 740 88 740 q 143 729 128 740 q 160 694 160 718 q 156 664 160 683 q 142 453 142 526 q 143 435 142 439 q 144 433 144 433 q 157 467 149 433 q 233 640 185 569 q 371 760 297 729 q 431 767 397 767 q 493 757 468 767 q 603 639 569 719 q 621 519 621 583 q 608 421 621 468 q 429 201 563 269 q 308 174 369 174 q 242 183 272 174 q 210 193 213 193 q 207 106 210 193 q 206 31 207 49 q 199 7 204 13 q 156 -18 181 -18 q 139 -14 147 -18 m 349 269 q 528 493 499 317 q 529 522 529 508 q 500 631 529 585 q 429 678 471 678 q 419 676 424 678 q 303 577 356 664 q 228 356 251 490 l 219 310 l 229 300 q 310 264 263 264 q 349 269 328 264 z "},"q":{"ha":608,"x_min":28,"x_max":582,"o":"m 472 -7 q 454 14 460 1 q 432 258 442 64 q 429 351 429 350 q 411 336 428 351 q 207 244 307 244 q 117 269 157 244 q 51 347 74 297 q 28 456 28 396 q 60 599 28 525 q 239 761 126 726 q 274 764 254 764 q 343 753 311 764 q 397 709 372 739 q 421 656 421 679 q 406 623 421 638 q 375 608 392 608 q 367 610 371 608 q 331 640 342 615 q 282 669 314 669 q 218 647 251 669 q 160 585 185 625 q 135 531 146 561 q 124 456 124 510 q 126 413 124 425 q 136 386 128 401 q 201 340 157 339 l 208 340 q 414 482 304 340 q 436 544 436 508 q 472 708 447 661 q 493 736 479 724 q 528 749 503 749 q 563 733 556 749 q 581 699 578 717 q 582 675 582 688 q 542 517 582 607 l 526 483 l 524 419 l 524 394 q 538 94 524 276 q 542 38 542 58 q 536 8 542 17 q 518 -8 531 -1 q 496 -15 507 -15 q 472 -7 485 -15 z "},"r":{"ha":601,"x_min":35,"x_max":594,"o":"m 117 -4 q 58 155 81 24 q 35 439 35 286 q 46 626 35 538 q 64 708 53 686 q 99 732 75 731 l 106 732 q 149 689 143 732 l 149 682 q 142 629 149 669 q 128 435 128 517 l 128 392 l 138 433 q 267 719 182 640 q 322 763 299 751 q 383 774 344 774 q 443 764 432 774 q 521 682 489 736 q 550 543 550 617 q 549 507 550 525 q 400 264 526 350 q 378 249 388 256 q 369 240 369 242 q 419 165 389 207 q 469 139 449 139 q 508 150 481 139 q 549 163 536 163 q 594 115 583 163 q 592 104 594 110 q 539 61 586 82 q 507 49 518 51 q 469 46 496 46 q 410 57 419 46 q 307 164 363 78 l 271 219 l 249 222 q 214 231 228 225 l 203 236 l 200 194 q 194 89 197 150 q 191 34 193 49 q 183 11 189 19 q 143 -11 167 -11 q 117 -4 131 -11 m 331 332 q 449 479 415 376 q 456 543 456 507 q 446 615 456 583 q 383 685 421 685 q 289 592 338 685 q 215 344 240 500 l 213 329 l 232 332 q 247 333 240 333 q 272 328 258 333 q 300 321 289 321 q 331 332 311 321 z "},"s":{"ha":506,"x_min":32,"x_max":464,"o":"m 199 1 q 110 79 140 24 q 90 171 90 125 q 111 238 90 217 q 139 246 125 246 q 176 224 161 246 q 185 175 185 219 q 193 125 185 132 q 244 93 210 93 q 331 142 292 97 q 371 233 371 188 q 367 258 371 246 q 240 292 356 292 q 131 314 186 292 q 57 382 82 338 q 32 482 32 426 q 75 628 32 551 q 185 740 121 694 q 283 769 225 769 l 294 769 q 356 761 349 769 q 426 688 403 733 q 447 571 447 633 q 425 472 447 507 q 393 460 421 460 q 361 472 368 460 q 349 496 349 479 q 350 511 349 501 q 351 583 350 535 q 350 624 351 613 q 343 646 349 636 q 293 675 331 675 q 197 628 244 672 q 132 522 149 583 q 125 478 125 499 q 146 418 125 440 q 275 386 161 390 q 440 321 407 383 q 464 232 464 282 q 460 189 464 211 q 360 38 436 99 q 251 -3 307 -3 q 199 1 217 -3 z "},"t":{"ha":525,"x_min":4,"x_max":536,"o":"m 228 0 q 210 14 219 4 l 200 25 l 201 265 l 201 376 q 201 449 201 419 q 201 494 201 478 q 199 510 200 510 q 190 511 197 511 q 74 500 157 511 q 50 499 58 499 q 32 501 39 499 q 4 543 4 518 q 31 581 4 567 q 163 599 58 590 l 200 601 l 201 676 q 205 744 203 729 q 214 763 207 758 q 249 778 229 778 q 286 760 271 778 q 293 738 292 753 q 296 675 294 724 l 297 603 l 510 603 l 524 589 q 536 558 536 575 q 518 525 536 539 q 491 519 513 521 q 404 517 469 518 q 351 515 375 515 q 313 513 328 514 q 297 511 299 513 q 295 477 296 510 q 294 389 294 444 q 293 267 293 333 q 291 122 292 175 q 289 44 290 68 q 286 17 288 19 q 244 -3 269 -3 q 228 0 236 -3 z "},"u":{"ha":625,"x_min":47,"x_max":585,"o":"m 517 0 q 454 106 486 15 l 442 143 l 417 111 q 318 26 372 53 q 290 16 301 18 q 251 14 279 14 q 212 16 222 14 q 186 26 201 18 q 72 192 108 69 q 47 411 47 285 q 63 615 47 508 q 111 763 79 758 q 132 768 122 768 q 153 763 142 768 q 176 717 176 746 q 172 694 176 706 q 144 515 157 636 q 142 425 142 474 q 150 271 142 335 q 244 108 179 124 l 251 108 q 326 151 285 108 q 400 265 367 193 l 419 306 l 417 367 q 415 428 415 394 q 426 613 415 524 q 482 756 443 722 q 517 771 500 771 q 542 764 529 771 q 572 732 561 756 q 585 654 585 714 l 585 636 q 532 342 585 507 l 514 286 l 518 249 q 561 92 532 154 q 578 39 578 60 q 554 3 578 14 q 532 -3 543 -3 q 517 0 525 -3 z "},"v":{"ha":542,"x_min":29,"x_max":533,"o":"m 253 0 q 176 85 211 11 q 101 325 142 158 q 53 556 76 432 q 29 711 29 681 q 58 760 29 751 q 75 763 67 763 q 106 749 92 763 q 117 725 113 743 q 132 647 122 707 q 253 147 186 328 q 263 122 258 132 q 269 111 268 111 q 282 129 274 111 q 301 177 290 147 q 324 243 313 207 q 346 315 336 279 q 426 643 389 465 q 441 708 435 681 q 450 740 447 736 q 489 760 465 760 q 519 749 507 760 q 533 717 533 740 q 518 619 533 690 q 363 81 432 231 q 268 -3 318 -3 q 253 0 261 -3 z "},"w":{"ha":869,"x_min":56,"x_max":822,"o":"m 192 11 q 101 104 140 33 q 56 372 56 193 q 78 608 56 496 q 132 753 101 719 q 161 763 146 763 q 193 751 179 763 q 208 719 208 738 q 200 690 208 707 q 149 371 149 557 q 189 139 149 215 q 233 97 208 97 q 254 104 243 97 q 351 251 304 135 l 364 285 l 357 331 q 349 454 349 397 q 381 624 349 567 q 431 651 403 651 q 467 638 450 651 q 489 601 483 624 q 494 513 494 578 q 469 313 494 392 l 461 285 l 471 253 q 581 99 529 99 q 656 167 618 99 q 717 338 694 235 q 732 478 732 411 q 729 522 732 503 q 697 661 725 594 q 682 708 682 696 q 688 728 682 718 q 728 753 703 753 q 771 726 753 753 q 814 599 796 678 q 822 476 822 551 q 814 347 822 400 q 640 19 765 86 q 582 6 624 6 q 526 18 540 6 q 428 118 469 50 q 416 138 421 129 q 410 146 411 146 q 403 138 408 146 q 390 118 397 129 q 294 19 347 53 q 240 6 272 6 l 231 6 q 192 11 207 6 z "},"x":{"ha":471,"x_min":-68,"x_max":460,"o":"m -54 25 q -68 50 -68 38 q -37 111 -68 69 q 69 271 -3 163 l 144 386 l 106 465 q 30 633 57 567 q 3 722 3 700 q 17 751 3 746 q 46 764 29 764 q 89 740 71 764 q 104 701 93 729 q 129 638 114 675 q 161 565 144 601 q 190 505 178 529 q 204 481 203 481 q 216 496 206 481 q 242 533 226 511 q 368 701 322 651 q 414 728 392 728 q 433 724 424 728 q 460 686 460 706 q 440 649 460 669 q 413 615 433 642 q 365 550 392 588 q 314 476 339 513 q 272 413 289 439 q 256 383 256 388 q 265 363 256 381 q 288 322 274 346 q 319 274 303 297 q 428 143 376 190 q 454 117 450 124 q 458 94 458 110 q 447 65 458 69 q 413 53 432 53 q 396 56 404 53 q 229 243 331 96 q 207 278 217 264 q 196 292 197 292 q 183 274 196 292 q 149 226 169 256 q 104 158 129 196 q 18 34 38 56 q -25 13 -1 13 q -54 25 -43 13 z "},"y":{"ha":585,"x_min":44,"x_max":546,"o":"m 208 7 q 83 100 128 29 q 69 140 69 122 q 75 161 69 151 q 114 183 90 183 q 140 175 128 183 q 164 144 151 167 q 265 89 193 90 l 268 89 q 363 119 322 89 q 421 201 404 150 q 431 289 431 224 q 432 333 432 315 q 431 351 432 350 q 421 343 429 351 q 400 322 413 335 q 242 249 326 249 l 232 249 q 96 331 146 253 q 56 421 68 372 q 44 544 44 469 q 56 678 44 619 q 88 757 68 738 q 119 767 94 767 q 163 738 156 767 q 167 725 167 732 q 158 693 167 715 q 138 535 138 617 q 147 442 138 482 q 224 339 171 356 q 239 338 231 338 q 375 440 301 338 q 408 500 401 476 q 414 586 414 524 q 438 721 414 696 q 483 749 461 749 q 528 725 504 749 q 546 658 546 703 q 521 526 546 604 l 510 497 l 519 407 q 525 294 525 343 q 507 162 525 213 q 449 71 489 111 q 333 7 400 21 q 269 1 306 1 q 208 7 233 1 z "},"z":{"ha":578,"x_min":-33,"x_max":594,"o":"m 314 1 q 189 44 258 13 q 142 64 151 63 q 114 50 138 64 q 35 26 69 26 q 21 28 28 26 q -19 53 -6 35 q -33 92 -33 71 q -22 131 -33 113 q 14 163 -10 150 q 83 176 49 176 q 103 175 94 176 l 124 171 l 153 203 q 211 272 181 236 q 282 374 242 313 q 361 498 322 435 q 426 609 400 561 q 453 667 453 657 l 453 668 q 407 671 446 671 l 376 671 q 215 646 250 671 q 171 600 176 629 q 140 561 163 571 q 124 557 132 557 q 82 586 99 557 q 76 606 76 594 q 79 622 76 611 q 125 697 88 663 q 379 765 186 765 q 476 758 444 765 q 526 733 507 751 q 551 681 551 714 q 481 514 551 628 q 242 163 346 286 l 217 133 l 242 122 q 308 99 281 106 q 379 93 336 93 q 444 97 422 93 q 507 121 465 101 q 549 135 539 135 q 594 88 590 135 q 581 56 594 71 q 469 8 546 31 q 368 -3 422 -3 q 314 1 336 -3 z "},"{":{"ha":268,"x_min":0,"x_max":268,"o":"m 174 -31 q 100 68 113 -12 q 93 186 96 99 q 79 350 90 303 q 36 415 68 397 q 0 465 0 435 q 15 519 0 486 q 67 714 46 569 q 149 975 96 915 q 222 1018 186 1018 q 265 988 251 1018 q 268 972 268 979 q 267 963 268 967 q 239 931 250 931 q 213 901 229 931 q 185 828 197 872 q 158 700 174 789 q 114 507 135 551 l 103 483 l 122 464 q 171 369 157 431 q 188 176 185 307 q 194 77 189 97 q 214 53 199 57 q 246 10 246 42 q 232 -21 246 -12 q 201 -35 222 -35 q 174 -31 188 -35 z "},"|":{"ha":94,"x_min":0,"x_max":94,"o":"m 36 -12 q 3 25 13 -3 q 0 418 0 121 q 3 881 0 714 l 6 967 l 17 978 q 49 992 32 992 q 68 988 58 992 q 83 978 78 985 q 91 942 89 972 q 94 836 93 911 q 94 617 94 761 l 94 18 l 86 7 q 50 -14 63 -14 l 49 -14 q 36 -12 47 -14 z "},"}":{"ha":268,"x_min":0,"x_max":268,"o":"m 18 -22 q 0 15 0 -6 q 1 24 0 19 q 29 56 19 56 q 56 85 40 56 q 83 157 71 114 q 110 286 93 197 q 154 479 133 435 l 164 501 l 144 522 q 96 617 110 556 q 79 810 82 679 q 74 909 78 889 q 53 933 69 929 q 22 976 22 943 q 36 1008 22 1000 q 60 1021 44 1021 q 74 1019 65 1021 q 168 918 153 1013 q 174 800 171 888 q 188 636 176 683 q 232 571 200 589 q 268 521 268 550 q 251 467 268 500 q 201 272 224 418 q 146 58 176 111 q 49 -31 103 -31 q 18 -22 26 -31 z "},"~":{"ha":433,"x_min":0,"x_max":433,"o":"m 253 471 q 189 499 231 478 q 125 521 149 521 q 97 511 103 521 q 47 474 71 474 q 0 518 4 474 q 1 529 0 524 q 44 590 7 565 q 124 615 81 615 q 232 582 168 615 q 292 560 271 560 q 318 568 306 560 q 344 597 335 575 q 388 631 363 631 q 419 617 404 631 q 433 593 433 608 l 433 585 q 396 510 433 550 q 328 471 367 481 q 290 465 308 465 q 253 471 272 465 z "},"":{"ha":94,"x_min":0,"x_max":94,"o":"m 26 7 q 8 24 13 10 q 1 110 3 38 q 0 361 0 182 q 1 581 0 510 q 3 676 1 651 q 7 704 4 700 q 49 729 24 729 q 92 701 75 729 q 94 682 93 699 q 94 629 94 665 q 94 532 94 593 l 94 363 q 93 111 94 183 q 85 24 92 39 q 65 7 79 10 q 46 1 54 1 q 26 7 36 1 m 29 889 q 0 932 0 906 q 13 961 0 949 q 47 978 31 978 q 78 965 65 978 q 92 929 92 951 l 92 924 q 75 897 89 907 q 44 886 61 886 q 29 889 36 886 z "},"":{"ha":469,"x_min":0,"x_max":469,"o":"m 113 172 q 100 201 100 181 q 104 228 100 214 q 106 236 106 232 q 97 246 106 240 q 67 274 85 256 q 17 365 33 310 q 0 481 0 419 q 17 606 0 543 q 68 721 35 668 q 285 856 150 844 l 317 857 l 328 888 q 346 926 338 917 q 381 940 361 940 q 413 928 397 940 q 425 899 425 917 q 414 850 425 882 l 400 810 l 407 794 q 414 771 414 781 q 408 750 414 761 q 386 729 403 736 q 364 701 371 726 q 293 493 351 667 l 229 307 l 243 310 q 288 328 257 314 q 361 385 321 342 q 411 428 399 422 q 421 429 415 429 q 453 417 439 429 q 469 383 469 400 q 424 314 469 358 q 228 214 335 224 l 197 211 l 192 194 q 144 158 178 158 q 113 172 122 158 m 182 460 q 254 669 221 576 l 285 761 l 268 760 q 176 707 221 751 q 106 578 129 654 q 94 482 94 529 q 106 393 94 433 q 122 356 111 374 q 138 338 133 338 l 139 338 q 153 375 140 340 q 182 460 165 410 z "},"":{"ha":567,"x_min":0,"x_max":567,"o":"m 274 22 q 221 38 249 28 q 168 57 192 50 l 147 64 l 126 50 q 58 28 90 28 q 33 33 44 28 q 0 79 0 53 q 23 124 0 103 q 86 153 46 146 q 113 175 104 153 q 128 257 128 204 q 108 428 128 317 q 86 596 86 563 q 64 603 86 607 q 7 628 22 603 q 0 650 0 639 q 6 672 0 660 q 60 697 11 697 l 92 700 l 101 739 q 331 971 156 932 q 385 976 358 976 q 489 952 442 976 q 557 886 536 928 q 567 844 567 864 q 550 807 567 819 q 522 799 536 799 q 501 803 511 799 q 474 840 478 813 q 433 881 468 868 q 383 889 408 889 q 290 860 335 889 q 217 781 244 832 q 189 706 189 721 q 201 703 189 704 q 232 701 214 701 q 286 697 269 701 q 308 678 303 692 q 315 654 315 665 q 301 624 315 639 l 288 610 l 179 607 l 182 571 q 201 440 188 529 q 221 258 221 324 q 208 168 221 206 q 203 144 203 150 q 206 138 203 139 q 321 104 256 117 l 338 104 q 476 143 406 104 q 522 157 503 157 q 563 129 551 157 q 565 114 565 121 q 500 54 565 83 q 349 18 431 18 l 325 18 q 274 22 290 18 z "},"":{"ha":307,"x_min":0,"x_max":307,"o":"m 36 293 q 11 332 11 307 q 25 374 11 351 q 38 400 38 390 q 36 408 38 404 q 13 522 13 467 q 33 622 13 575 q 40 642 40 635 q 17 675 40 653 q 0 714 0 689 q 29 757 0 747 q 44 760 38 760 q 90 732 67 760 l 113 708 l 132 713 q 153 714 142 714 q 193 707 176 714 q 214 725 196 707 q 263 757 239 757 q 283 751 272 757 q 307 713 307 740 q 279 658 307 683 q 263 633 263 642 l 263 631 q 279 535 279 588 q 256 418 279 471 l 247 403 l 260 385 q 282 335 282 354 q 268 304 282 318 q 236 290 253 290 q 192 318 213 290 l 178 338 l 146 338 l 114 336 l 100 317 q 56 289 79 289 q 36 293 46 289 m 161 444 q 188 536 188 485 q 176 592 188 567 q 153 619 164 619 q 139 613 146 619 q 115 572 124 599 q 107 515 107 544 q 126 440 107 471 q 142 431 133 431 q 161 444 150 431 z "},"":{"ha":543,"x_min":0,"x_max":543,"o":"m 131 22 q 64 58 93 33 q 35 104 35 82 q 81 149 35 142 l 88 149 q 119 131 103 149 q 147 112 133 117 q 190 107 160 107 q 292 132 247 107 l 314 143 l 300 158 q 286 188 286 174 q 347 238 286 236 l 368 238 l 350 240 q 310 286 310 254 q 321 315 310 301 q 371 336 338 335 q 381 340 379 336 q 382 363 382 343 q 378 390 382 386 q 369 383 376 390 q 350 365 361 376 q 189 285 268 285 q 108 308 147 285 q 0 621 0 383 l 0 654 q 43 940 11 846 q 90 974 61 974 q 121 963 107 974 q 136 932 136 949 q 132 913 136 924 q 105 781 115 867 q 94 617 94 694 q 100 525 94 564 q 190 375 124 375 q 272 418 226 375 q 357 531 317 460 l 378 565 l 378 636 q 392 836 378 756 q 439 949 406 926 q 474 961 447 961 q 526 931 511 961 q 542 846 542 899 q 488 589 542 740 l 472 549 l 472 443 l 474 338 l 496 336 q 538 311 528 335 q 543 289 543 300 q 528 258 543 271 q 490 244 514 244 q 468 240 478 244 l 467 239 q 479 238 467 238 q 539 188 533 238 q 528 157 539 167 q 474 143 524 142 l 433 142 l 419 124 q 288 32 374 60 q 200 18 251 18 l 178 18 q 132 22 147 18 l 131 22 z "},"":{"ha":99,"x_min":0,"x_max":99,"o":"m 31 -35 q 14 -19 22 -29 q 8 1 10 -17 q 6 88 7 18 q 6 325 6 158 q 7 539 6 465 q 10 640 8 613 q 13 669 11 667 q 51 692 28 692 q 80 683 67 692 q 97 660 93 675 q 98 628 97 657 q 99 554 99 600 q 97 318 99 461 l 96 -12 l 83 -25 q 49 -39 67 -39 q 31 -35 39 -39 m 32 749 q 10 769 15 756 q 1 828 4 783 q 0 874 0 856 q 3 910 0 899 q 17 929 7 921 q 47 940 32 940 q 71 935 58 940 q 94 840 96 932 l 94 808 q 93 781 94 789 q 89 768 92 772 q 47 746 71 746 q 32 749 40 746 z "},"":{"ha":406,"x_min":0,"x_max":406,"o":"m 133 -35 q 58 10 92 -26 q 0 169 0 81 q 2 199 0 193 q 14 214 4 206 q 44 228 22 228 q 86 204 72 228 q 93 165 90 196 q 139 63 101 90 q 164 56 150 56 q 225 79 192 56 q 282 143 258 103 q 311 242 311 197 q 301 282 311 267 q 200 321 282 313 q 43 372 81 331 q 4 463 4 410 q 26 547 4 504 l 36 565 l 25 582 q 1 671 1 619 q 33 797 1 729 q 213 947 96 921 q 243 950 229 950 q 347 903 303 950 q 406 743 406 833 q 403 714 406 721 q 392 699 401 707 q 361 685 385 685 q 319 708 335 685 q 313 746 315 718 q 267 850 304 824 q 242 857 256 857 q 181 833 214 857 q 124 769 149 810 q 94 671 94 715 q 104 631 94 646 q 206 592 124 600 q 363 540 326 581 q 401 449 401 501 q 379 365 401 408 l 369 347 l 381 331 q 406 238 406 283 q 351 76 406 169 q 263 -7 314 24 q 163 -37 213 -37 q 133 -35 147 -37 m 297 410 q 307 435 303 421 q 310 450 310 443 q 207 497 310 490 q 135 508 156 504 q 122 511 128 511 q 100 483 106 511 q 96 463 96 472 q 199 415 96 421 q 267 406 250 408 q 285 401 278 401 q 297 410 293 401 z "},"":{"ha":239,"x_min":0,"x_max":239,"o":"m 26 890 q 0 939 0 911 q 31 989 0 968 q 54 994 42 994 q 92 978 75 994 q 110 939 110 963 q 92 899 110 917 q 54 882 75 882 q 26 890 42 882 m 157 890 q 131 939 131 911 q 161 989 131 968 q 183 994 172 994 q 222 978 206 994 q 239 939 239 963 q 222 899 239 917 q 185 882 206 882 q 157 890 171 882 z "},"":{"ha":692,"x_min":32,"x_max":668,"o":"m 299 18 q 79 204 158 46 q 36 344 51 265 q 32 418 32 374 q 43 560 32 496 q 179 814 81 722 q 363 892 267 892 q 488 857 426 892 q 599 743 550 815 q 668 475 668 622 q 639 289 668 381 q 436 38 575 104 q 329 15 382 15 q 299 18 313 15 m 383 118 q 471 176 429 133 q 574 453 564 279 l 574 475 q 528 678 574 590 q 407 790 482 765 q 361 799 383 799 q 325 793 344 799 q 181 661 236 765 q 125 431 125 557 q 136 324 125 376 q 215 167 160 225 q 336 110 271 110 q 383 118 360 110 m 313 204 q 201 285 244 219 q 158 435 158 351 q 161 472 158 453 q 240 644 176 581 q 364 700 299 700 q 479 649 426 700 q 532 556 532 589 q 486 510 532 518 q 471 513 478 510 q 432 558 456 515 q 363 606 401 606 q 300 572 331 606 q 253 432 253 508 q 282 332 253 375 q 344 294 311 294 q 426 356 386 294 q 457 382 440 378 q 471 383 464 383 q 503 371 489 383 q 517 339 517 358 q 499 296 517 321 q 343 201 431 201 q 313 204 328 201 z "},"":{"ha":364,"x_min":0,"x_max":363,"o":"m 75 640 q 53 665 65 646 q 42 693 42 683 q 26 710 42 700 q 0 751 0 729 q 1 760 0 756 q 17 788 6 772 q 31 818 31 801 q 57 914 31 851 q 121 982 83 960 q 178 993 131 993 q 232 983 226 993 q 308 856 292 947 q 316 824 313 829 q 328 817 319 818 q 361 783 351 811 q 363 771 363 776 q 324 725 363 739 q 306 707 308 725 q 253 639 290 639 q 238 642 246 639 q 206 688 206 656 q 210 710 206 699 q 214 725 214 722 l 214 726 l 208 726 q 135 719 181 726 l 135 718 q 139 699 135 714 q 142 681 142 688 q 139 667 142 674 q 96 635 125 635 q 75 640 85 635 m 219 824 l 217 839 q 186 901 207 885 q 178 903 182 903 q 153 888 167 903 q 125 824 125 851 l 125 814 l 156 817 q 203 821 185 819 l 219 824 z "},"":{"ha":408,"x_min":0,"x_max":408,"o":"m 164 226 q 134 253 158 229 q 79 313 110 278 q 0 415 0 390 q 4 432 0 424 q 92 522 19 456 q 188 600 165 589 q 196 601 192 601 q 242 556 233 601 q 239 539 242 547 q 175 471 231 522 q 145 442 158 456 q 124 422 132 429 q 115 413 115 414 q 131 395 115 411 q 167 356 146 379 q 232 267 232 290 q 216 235 232 250 q 183 219 200 219 q 164 226 178 219 m 329 226 q 314 240 326 228 q 283 272 301 253 q 244 313 265 290 q 165 417 165 390 q 169 432 165 424 q 258 522 185 456 q 353 600 331 589 q 361 601 357 601 q 408 554 400 601 q 406 539 408 546 q 340 471 396 522 q 310 442 324 456 q 289 422 297 429 q 281 413 281 414 q 296 395 281 411 q 332 356 311 379 q 397 267 397 290 q 381 235 397 250 q 349 219 365 219 q 329 226 343 219 z "},"":{"ha":296,"x_min":0,"x_max":296,"o":"m 231 428 q 206 465 208 439 l 203 482 l 122 481 q 71 479 90 479 q 41 481 50 479 q 26 486 32 482 q 0 528 0 503 q 25 568 0 553 q 203 578 104 578 q 256 575 242 578 q 282 558 269 569 q 294 500 296 554 l 294 472 q 292 451 294 457 q 285 440 290 446 q 256 426 275 428 l 247 426 q 231 428 236 426 z "},"":{"ha":636,"x_min":0,"x_max":636,"o":"m 267 18 q 47 204 126 46 q 4 344 19 265 q 0 418 0 374 q 11 560 0 496 q 147 814 49 722 q 331 892 235 892 q 456 857 394 892 q 567 743 518 815 q 636 475 636 622 q 607 289 636 381 q 404 38 543 104 q 297 15 350 15 q 267 18 281 15 m 351 118 q 439 176 397 133 q 542 453 532 279 l 542 475 q 496 678 542 590 q 375 790 450 765 q 329 799 351 799 q 293 793 313 799 q 149 661 204 765 q 93 431 93 557 q 104 324 93 376 q 183 167 128 225 q 304 110 239 110 q 351 118 328 110 m 208 204 q 171 290 186 213 q 153 447 153 372 q 174 604 153 528 q 232 694 193 690 q 240 696 236 696 q 271 681 257 696 q 285 650 285 667 q 283 639 285 644 l 279 624 l 294 639 q 361 668 328 668 q 416 648 392 668 q 451 589 440 628 q 456 550 456 571 q 397 400 456 474 l 379 379 l 396 344 q 425 311 411 311 q 471 265 465 311 l 471 260 q 411 217 464 217 q 313 303 351 217 q 297 331 303 321 q 289 340 292 340 q 284 326 285 340 q 283 285 283 313 q 278 228 283 244 q 256 203 272 211 q 232 197 243 197 q 208 204 221 197 m 328 464 q 360 540 360 499 q 356 567 360 561 l 354 567 q 338 547 350 567 q 316 500 326 526 q 301 453 306 474 q 300 444 300 447 q 301 442 300 442 q 306 444 303 442 q 328 464 314 449 z "},"":{"ha":328,"x_min":0,"x_max":328,"o":"m 28 889 q 0 932 0 906 q 7 956 0 944 q 38 976 14 972 q 160 981 63 981 q 290 978 256 981 q 326 940 318 968 q 328 932 328 936 q 306 893 328 910 q 278 887 300 888 q 164 886 256 886 q 28 889 58 886 z "},"":{"ha":222,"x_min":0,"x_max":221,"o":"m 75 760 q 3 846 19 783 q 0 868 0 857 q 22 935 0 903 q 79 976 44 967 q 107 979 92 979 q 167 965 140 979 q 208 922 194 947 q 221 868 221 896 q 192 790 221 825 q 111 756 163 756 l 110 756 q 75 760 92 756 m 126 868 q 118 883 126 876 q 110 888 114 888 q 101 883 107 888 q 93 869 93 876 q 101 854 93 861 q 110 847 106 847 q 118 851 113 847 q 126 868 126 858 z "},"":{"ha":286,"x_min":-1,"x_max":326,"o":"m 26 153 q -1 196 -1 168 q 6 219 -1 208 q 37 240 13 236 q 158 243 61 243 q 289 242 254 243 q 325 204 317 232 q 326 196 326 200 q 304 157 326 174 q 276 150 299 151 q 163 149 254 149 q 97 151 126 150 q 48 152 67 151 q 26 153 29 153 m 143 258 q 119 287 124 265 q 115 392 115 308 l 115 492 l 83 492 q 45 497 57 492 q 26 515 33 501 q 21 536 21 526 q 42 576 21 560 q 83 582 49 582 l 115 582 l 115 625 q 119 682 115 658 q 164 717 135 717 q 194 704 181 717 l 208 693 l 210 639 l 213 585 l 250 583 q 300 569 294 585 q 315 538 315 554 q 310 518 315 528 q 249 492 306 492 l 213 490 l 210 388 q 205 283 210 304 q 181 257 200 261 q 163 251 169 251 q 143 258 154 251 z "},"":{"ha":194,"x_min":0,"x_max":194,"o":"m 29 654 q 1 693 4 665 q 0 703 0 699 q 32 742 0 715 q 78 790 64 771 q 104 867 104 836 l 104 872 l 101 885 l 89 876 q 56 864 74 864 q 24 878 38 864 q 11 906 11 892 q 39 951 11 931 q 101 971 67 971 q 128 968 115 971 q 186 919 164 957 q 193 899 192 910 q 194 861 194 889 q 188 805 194 826 q 164 756 182 783 l 150 733 l 161 731 q 190 693 190 718 q 163 654 190 667 q 96 649 139 649 q 29 654 51 649 z "},"":{"ha":214,"x_min":0,"x_max":214,"o":"m 43 658 q 3 686 11 667 q 0 701 0 694 q 29 739 0 725 q 44 742 35 742 q 69 739 53 742 q 94 736 86 736 q 110 740 104 736 l 122 747 l 101 746 q 54 768 67 746 q 49 788 49 778 q 76 826 49 808 q 101 851 94 838 q 108 868 108 864 q 106 871 108 871 q 97 867 103 871 q 67 856 82 856 q 51 858 60 856 q 21 897 21 871 q 53 950 21 924 q 107 968 79 968 q 171 942 142 968 q 201 872 201 911 q 190 824 201 849 l 183 807 l 193 799 q 214 747 214 776 q 186 688 214 714 q 96 654 150 654 q 43 658 65 654 z "},"":{"ha":208,"x_min":0,"x_max":208,"o":"m 18 769 q 0 804 0 786 q 32 849 0 828 q 89 901 74 874 q 118 981 108 935 q 132 1006 121 994 q 164 1017 139 1017 q 194 1006 188 1017 q 208 974 208 994 q 203 936 208 960 q 90 776 176 826 q 44 760 63 760 q 18 769 29 760 z "},"":{"ha":375,"x_min":0,"x_max":375,"o":"m 28 82 q 10 99 15 89 q 8 121 8 101 q 6 182 7 140 q 3 293 4 224 q 1 463 3 363 q 0 829 0 819 q 15 854 4 842 q 46 867 29 867 q 89 838 74 867 q 91 800 90 833 q 92 713 92 767 q 94 592 93 660 q 97 435 96 486 q 101 367 99 385 q 106 343 103 349 q 149 311 124 311 q 217 357 174 311 q 268 460 251 400 q 274 492 272 475 q 275 554 275 508 l 275 747 q 276 816 275 796 q 283 844 278 836 q 299 857 289 851 q 322 864 310 864 q 363 838 347 864 q 366 803 364 833 q 369 703 368 772 q 372 519 371 635 q 375 293 375 365 q 373 220 375 242 q 366 193 371 199 q 353 183 361 188 q 329 176 342 176 q 288 203 303 176 q 282 249 282 219 q 279 283 282 278 q 257 265 279 283 q 172 219 219 231 q 149 217 160 217 q 110 222 132 217 l 97 225 l 97 164 q 94 101 97 114 q 74 81 90 88 q 51 75 63 75 q 28 82 40 75 z "},"":{"ha":490,"x_min":0,"x_max":490,"o":"m 272 -39 q 249 -12 254 -33 q 244 82 244 8 l 242 174 l 214 181 q 22 361 76 218 q 0 494 0 425 q 35 678 0 588 q 135 836 71 769 q 346 935 226 929 q 365 936 356 936 q 449 918 414 936 q 469 905 463 913 q 480 859 476 897 q 485 723 483 821 q 488 439 486 625 q 490 60 490 169 q 490 7 490 25 q 489 -12 490 -11 q 446 -42 474 -42 q 426 -37 436 -42 q 410 -26 415 -35 q 401 19 404 -18 q 397 150 399 57 q 393 417 394 243 q 391 628 392 533 q 390 781 390 724 q 388 842 389 839 q 364 846 382 846 q 335 842 346 846 q 332 824 333 842 q 331 751 331 806 q 335 417 331 658 q 336 94 336 192 q 335 11 336 35 q 333 -15 335 -12 q 289 -43 317 -43 q 272 -39 281 -43 z "},"":{"ha":110,"x_min":0,"x_max":110,"o":"m 26 489 q 0 538 0 510 q 31 588 0 567 q 53 593 42 593 q 92 577 75 593 q 110 538 110 561 q 92 497 110 515 q 54 479 75 479 q 26 489 42 479 z "},"":{"ha":208,"x_min":0,"x_max":208,"o":"m 53 -236 q 7 -204 19 -221 q 0 -176 0 -190 q 13 -147 0 -156 q 44 -132 28 -132 q 67 -137 56 -132 q 93 -146 82 -146 q 108 -140 103 -146 q 113 -133 113 -136 q 94 -125 113 -128 q 43 -47 43 -122 q 45 -17 43 -24 q 57 -3 47 -11 q 89 11 64 11 q 121 -3 113 11 q 135 -32 135 -17 l 135 -36 q 149 -43 135 -37 q 199 -87 181 -56 q 208 -128 208 -107 q 188 -189 208 -160 q 133 -232 168 -218 q 83 -240 108 -240 q 53 -236 65 -240 z "},"":{"ha":161,"x_min":0,"x_max":161,"o":"m 88 651 q 72 676 76 658 q 68 735 68 694 q 65 817 68 776 l 63 849 l 44 849 q 13 861 19 849 q 0 889 0 871 q 56 951 0 921 q 106 974 85 974 q 133 965 122 974 q 154 931 150 957 q 160 807 158 906 q 161 724 161 754 q 157 669 161 681 q 142 651 153 657 q 115 646 131 646 q 88 651 99 646 z "},"":{"ha":242,"x_min":0,"x_max":242,"o":"m 94 649 q 19 715 47 665 q 0 807 0 756 q 6 858 0 833 q 51 945 18 915 q 124 975 85 975 q 178 958 151 975 q 222 904 204 940 q 242 814 242 860 q 186 674 242 732 q 117 646 153 646 q 94 649 106 646 m 138 757 q 147 813 147 767 q 138 867 147 857 q 122 885 131 885 q 106 865 115 885 q 96 808 96 861 q 106 753 96 758 q 119 738 113 738 q 138 757 128 738 z "},"":{"ha":408,"x_min":0,"x_max":408,"o":"m 36 228 q 11 268 11 247 q 76 356 11 289 q 112 394 97 378 q 126 413 126 411 q 119 422 126 414 q 98 442 111 429 q 68 471 85 456 q 3 539 13 522 q 0 554 0 546 q 33 600 0 583 q 44 601 39 601 q 151 521 71 601 q 212 462 189 486 q 239 432 235 438 q 243 417 243 424 q 164 313 243 390 q 108 253 132 278 q 78 225 83 229 q 58 219 68 219 q 36 228 47 219 m 201 228 q 176 268 176 247 q 242 356 176 289 q 277 394 263 378 q 292 413 292 411 q 284 422 292 414 q 263 442 276 429 q 233 471 250 456 q 168 539 178 522 q 165 554 165 546 q 199 600 165 583 q 211 601 204 601 q 317 521 238 601 q 378 462 354 486 q 404 432 401 438 q 408 417 408 424 q 329 313 408 390 q 273 253 297 278 q 243 225 249 229 q 224 219 233 219 q 201 228 213 219 z "},"":{"ha":526,"x_min":0,"x_max":526,"o":"m 408 729 q 432 689 432 717 l 432 681 q 321 553 432 625 q 107 333 138 431 q 94 261 94 297 q 100 214 94 238 q 190 110 122 143 q 272 90 226 90 q 294 92 283 90 q 360 107 331 92 q 433 181 417 133 q 476 219 444 217 l 479 219 q 522 194 508 219 q 526 174 526 185 q 503 113 526 146 q 411 35 469 65 q 290 6 357 6 l 267 6 q 142 36 199 6 q 74 86 108 50 q 0 254 0 157 q 1 275 0 265 q 32 390 3 338 q 122 510 60 451 q 261 618 167 557 q 339 690 339 668 q 364 729 339 714 q 386 736 375 736 q 408 729 397 736 m 406 975 q 429 936 429 958 q 422 910 429 924 q 400 892 414 900 q 383 886 392 886 q 372 889 378 886 q 340 917 342 901 q 338 935 338 932 q 363 974 338 960 q 386 979 375 979 q 406 975 396 979 z "},"":{"ha":814,"x_min":-6,"x_max":783,"o":"m 174 -8 q 100 156 138 14 q 89 197 89 196 q 61 192 88 197 q 38 186 46 186 q 21 192 31 186 q -6 232 -6 208 q -4 243 -6 238 q 49 281 3 268 l 75 289 l 72 310 q 69 382 69 333 q 75 521 69 458 q 240 890 110 754 q 383 975 308 956 q 446 981 413 981 q 500 975 478 981 q 736 650 681 919 q 743 517 743 600 q 735 361 743 428 q 731 314 731 326 l 731 311 q 742 308 733 308 q 760 301 749 308 q 783 265 783 288 q 772 236 783 250 q 736 221 765 222 l 711 219 l 703 178 q 678 70 689 113 q 664 21 668 28 q 622 1 647 1 q 594 11 607 1 q 578 43 578 24 q 582 65 578 53 q 617 232 607 169 q 594 235 615 233 q 542 238 572 236 q 464 240 503 240 q 378 238 424 240 q 288 231 331 235 q 217 224 246 228 q 185 217 189 219 q 183 213 183 215 q 199 149 183 197 q 231 63 214 100 q 240 29 240 38 q 215 -8 240 7 q 194 -14 204 -14 q 174 -8 185 -14 m 207 313 q 489 328 343 328 q 599 324 553 328 q 618 322 610 322 q 635 335 632 322 q 644 392 639 349 q 650 503 650 447 q 631 693 650 611 q 497 882 590 832 q 474 890 483 888 q 442 893 464 893 q 406 890 417 893 q 372 875 396 888 q 220 695 278 825 q 163 406 163 565 q 164 350 163 378 q 167 317 165 326 q 178 308 168 308 q 207 313 186 308 m 424 1042 q 311 1201 339 1093 q 306 1238 306 1224 q 319 1272 306 1260 q 351 1283 329 1283 q 382 1272 375 1283 q 397 1246 394 1260 q 425 1167 406 1201 q 483 1114 442 1140 q 514 1069 514 1093 q 496 1035 514 1051 q 469 1025 485 1025 q 424 1042 451 1025 z "},"":{"ha":814,"x_min":-6,"x_max":783,"o":"m 174 -8 q 100 156 138 14 q 89 197 89 196 q 61 192 88 197 q 38 186 46 186 q 21 192 31 186 q -6 232 -6 208 q -4 243 -6 238 q 49 281 3 268 l 75 289 l 72 310 q 69 382 69 333 q 75 521 69 458 q 240 890 110 754 q 383 975 308 956 q 446 981 413 981 q 500 975 478 981 q 736 650 681 919 q 743 517 743 600 q 735 361 743 428 q 731 314 731 326 l 731 311 q 742 308 733 308 q 760 301 749 308 q 783 265 783 288 q 772 236 783 250 q 736 221 765 222 l 711 219 l 703 178 q 678 70 689 113 q 664 21 668 28 q 622 1 647 1 q 594 11 607 1 q 578 43 578 24 q 582 65 578 53 q 617 232 607 169 q 594 235 615 233 q 542 238 572 236 q 464 240 503 240 q 378 238 424 240 q 288 231 331 235 q 217 224 246 228 q 185 217 189 219 q 183 213 183 215 q 199 149 183 197 q 231 63 214 100 q 240 29 240 38 q 215 -8 240 7 q 194 -14 204 -14 q 174 -8 185 -14 m 207 313 q 489 328 343 328 q 599 324 553 328 q 618 322 610 322 q 635 335 632 322 q 644 392 639 349 q 650 503 650 447 q 631 693 650 611 q 497 882 590 832 q 474 890 483 888 q 442 893 464 893 q 406 890 417 893 q 372 875 396 888 q 220 695 278 825 q 163 406 163 565 q 164 350 163 378 q 167 317 165 326 q 178 308 168 308 q 207 313 186 308 m 381 1035 q 363 1068 363 1050 q 394 1114 363 1093 q 451 1167 436 1140 q 481 1246 471 1201 q 494 1272 483 1260 q 526 1283 501 1283 q 557 1272 550 1283 q 571 1239 571 1260 q 565 1201 571 1224 q 453 1042 539 1093 q 407 1025 425 1025 q 381 1035 392 1025 z "},"":{"ha":814,"x_min":-6,"x_max":783,"o":"m 174 -8 q 100 156 138 14 q 89 197 89 196 q 61 192 88 197 q 38 186 46 186 q 21 192 31 186 q -6 232 -6 208 q -4 243 -6 238 q 49 281 3 268 l 75 289 l 72 310 q 69 382 69 333 q 75 521 69 458 q 240 890 110 754 q 383 975 308 956 q 446 981 413 981 q 500 975 478 981 q 736 650 681 919 q 743 517 743 600 q 735 361 743 428 q 731 314 731 326 l 731 311 q 742 308 733 308 q 760 301 749 308 q 783 265 783 288 q 772 236 783 250 q 736 221 765 222 l 711 219 l 703 178 q 678 70 689 113 q 664 21 668 28 q 622 1 647 1 q 594 11 607 1 q 578 43 578 24 q 582 65 578 53 q 617 232 607 169 q 594 235 615 233 q 542 238 572 236 q 464 240 503 240 q 378 238 424 240 q 288 231 331 235 q 217 224 246 228 q 185 217 189 219 q 183 213 183 215 q 199 149 183 197 q 231 63 214 100 q 240 29 240 38 q 215 -8 240 7 q 194 -14 204 -14 q 174 -8 185 -14 m 207 313 q 489 328 343 328 q 599 324 553 328 q 618 322 610 322 q 635 335 632 322 q 644 392 639 349 q 650 503 650 447 q 631 693 650 611 q 497 882 590 832 q 474 890 483 888 q 442 893 464 893 q 406 890 417 893 q 372 875 396 888 q 220 695 278 825 q 163 406 163 565 q 164 350 163 378 q 167 317 165 326 q 178 308 168 308 q 207 313 186 308 m 332 1028 q 313 1090 313 1050 q 349 1206 313 1144 q 453 1271 389 1268 l 468 1271 q 504 1263 490 1271 q 588 1146 568 1232 q 593 1094 593 1118 q 574 1031 593 1053 q 544 1019 568 1019 q 497 1072 496 1019 q 499 1088 497 1079 l 499 1103 q 492 1142 499 1126 q 460 1179 478 1179 q 454 1178 457 1179 q 417 1136 433 1169 q 408 1097 408 1122 l 408 1081 q 404 1040 408 1051 q 388 1022 400 1029 q 363 1015 375 1015 q 332 1028 346 1015 z "},"":{"ha":814,"x_min":-6,"x_max":783,"o":"m 174 -8 q 100 156 138 14 q 89 197 89 196 q 61 192 88 197 q 38 186 46 186 q 21 192 31 186 q -6 232 -6 208 q -4 243 -6 238 q 49 281 3 268 l 75 289 l 72 310 q 69 382 69 333 q 75 521 69 458 q 240 890 110 754 q 383 975 308 956 q 446 981 413 981 q 500 975 478 981 q 736 650 681 919 q 743 517 743 600 q 735 361 743 428 q 731 314 731 326 l 731 311 q 742 308 733 308 q 760 301 749 308 q 783 265 783 288 q 772 236 783 250 q 736 221 765 222 l 711 219 l 703 178 q 678 70 689 113 q 664 21 668 28 q 622 1 647 1 q 594 11 607 1 q 578 43 578 24 q 582 65 578 53 q 617 232 607 169 q 594 235 615 233 q 542 238 572 236 q 464 240 503 240 q 378 238 424 240 q 288 231 331 235 q 217 224 246 228 q 185 217 189 219 q 183 213 183 215 q 199 149 183 197 q 231 63 214 100 q 240 29 240 38 q 215 -8 240 7 q 194 -14 204 -14 q 174 -8 185 -14 m 207 313 q 489 328 343 328 q 599 324 553 328 q 618 322 610 322 q 635 335 632 322 q 644 392 639 349 q 650 503 650 447 q 631 693 650 611 q 497 882 590 832 q 474 890 483 888 q 442 893 464 893 q 406 890 417 893 q 372 875 396 888 q 220 695 278 825 q 163 406 163 565 q 164 350 163 378 q 167 317 165 326 q 178 308 168 308 q 207 313 186 308 m 493 1024 q 429 1051 471 1031 q 365 1074 389 1074 q 338 1064 343 1074 q 288 1026 311 1026 q 240 1071 244 1026 q 242 1082 240 1076 q 284 1143 247 1118 q 364 1168 321 1168 q 472 1135 408 1168 q 532 1113 511 1113 q 558 1121 546 1113 q 585 1149 575 1128 q 628 1183 603 1183 q 660 1169 644 1183 q 674 1146 674 1161 l 674 1138 q 636 1063 674 1103 q 568 1024 607 1033 q 531 1018 549 1018 q 493 1024 513 1018 z "},"":{"ha":814,"x_min":-6,"x_max":783,"o":"m 174 -8 q 100 156 138 14 q 89 197 89 196 q 61 192 88 197 q 38 186 46 186 q 21 192 31 186 q -6 232 -6 208 q -4 243 -6 238 q 49 281 3 268 l 75 289 l 72 310 q 69 382 69 333 q 75 521 69 458 q 240 890 110 754 q 383 975 308 956 q 446 981 413 981 q 500 975 478 981 q 736 650 681 919 q 743 517 743 600 q 735 361 743 428 q 731 314 731 326 l 731 311 q 742 308 733 308 q 760 301 749 308 q 783 265 783 288 q 772 236 783 250 q 736 221 765 222 l 711 219 l 703 178 q 678 70 689 113 q 664 21 668 28 q 622 1 647 1 q 594 11 607 1 q 578 43 578 24 q 582 65 578 53 q 617 232 607 169 q 594 235 615 233 q 542 238 572 236 q 464 240 503 240 q 378 238 424 240 q 288 231 331 235 q 217 224 246 228 q 185 217 189 219 q 183 213 183 215 q 199 149 183 197 q 231 63 214 100 q 240 29 240 38 q 215 -8 240 7 q 194 -14 204 -14 q 174 -8 185 -14 m 207 313 q 489 328 343 328 q 599 324 553 328 q 618 322 610 322 q 635 335 632 322 q 644 392 639 349 q 650 503 650 447 q 631 693 650 611 q 497 882 590 832 q 474 890 483 888 q 442 893 464 893 q 406 890 417 893 q 372 875 396 888 q 220 695 278 825 q 163 406 163 565 q 164 350 163 378 q 167 317 165 326 q 178 308 168 308 q 207 313 186 308 m 356 1033 q 329 1081 329 1054 q 360 1132 329 1111 q 382 1138 371 1138 q 422 1121 404 1138 q 439 1081 439 1104 q 422 1042 439 1060 q 383 1024 404 1024 q 356 1033 371 1024 m 486 1033 q 460 1081 460 1054 q 490 1132 460 1111 q 513 1138 501 1138 q 551 1121 533 1138 q 568 1081 568 1104 q 551 1042 568 1060 q 514 1024 535 1024 q 486 1033 500 1024 z "},"":{"ha":814,"x_min":-6,"x_max":783,"o":"m 174 -8 q 100 156 138 14 q 89 197 89 196 q 61 192 88 197 q 38 186 46 186 q 21 192 31 186 q -6 232 -6 208 q -4 243 -6 238 q 49 281 3 268 l 75 289 l 72 310 q 69 382 69 333 q 75 521 69 458 q 240 890 110 754 q 383 975 308 956 q 446 981 413 981 q 500 975 478 981 q 736 650 681 919 q 743 517 743 600 q 735 361 743 428 q 731 314 731 326 l 731 311 q 742 308 733 308 q 760 301 749 308 q 783 265 783 288 q 772 236 783 250 q 736 221 765 222 l 711 219 l 703 178 q 678 70 689 113 q 664 21 668 28 q 622 1 647 1 q 594 11 607 1 q 578 43 578 24 q 582 65 578 53 q 617 232 607 169 q 594 235 615 233 q 542 238 572 236 q 464 240 503 240 q 378 238 424 240 q 288 231 331 235 q 217 224 246 228 q 185 217 189 219 q 183 213 183 215 q 199 149 183 197 q 231 63 214 100 q 240 29 240 38 q 215 -8 240 7 q 194 -14 204 -14 q 174 -8 185 -14 m 207 313 q 489 328 343 328 q 599 324 553 328 q 618 322 610 322 q 635 335 632 322 q 644 392 639 349 q 650 503 650 447 q 631 693 650 611 q 497 882 590 832 q 474 890 483 888 q 442 893 464 893 q 406 890 417 893 q 372 875 396 888 q 220 695 278 825 q 163 406 163 565 q 164 350 163 378 q 167 317 165 326 q 178 308 168 308 q 207 313 186 308 m 513 1231 q 553 1187 540 1213 q 567 1133 567 1161 q 538 1056 567 1090 q 457 1021 508 1021 l 456 1021 q 421 1025 438 1021 q 349 1111 365 1049 q 346 1133 346 1122 q 368 1200 346 1168 q 425 1242 390 1232 q 453 1244 438 1244 q 513 1231 486 1244 m 472 1133 q 464 1149 472 1144 q 456 1153 460 1153 q 447 1149 453 1153 q 439 1135 439 1142 q 447 1119 439 1126 q 456 1113 451 1113 q 464 1117 458 1113 q 472 1133 472 1124 z "},"":{"ha":1225,"x_min":-11,"x_max":1229,"o":"m 179 -47 q 111 124 150 -21 q 103 153 107 140 q 99 165 100 165 q 68 156 94 165 q 32 146 46 146 q 11 151 21 146 q -11 193 -11 168 q -1 221 -11 208 q 64 251 19 239 l 83 257 l 81 290 q 76 388 76 332 q 85 536 76 475 q 132 707 101 633 q 270 896 185 828 q 449 964 356 964 q 506 957 476 964 q 611 899 564 943 q 692 789 661 853 l 710 751 l 724 774 q 949 943 811 910 q 999 949 975 949 q 1139 900 1079 949 q 1221 765 1199 851 q 1229 697 1229 733 q 1227 663 1229 669 q 1215 647 1225 656 q 1183 633 1207 633 q 1151 647 1161 633 q 1138 679 1138 654 q 1104 803 1138 756 q 1014 857 1071 851 l 1003 857 q 856 790 925 857 q 763 622 788 724 q 757 546 757 589 q 763 474 757 503 q 806 388 776 425 l 815 376 l 850 392 q 950 417 894 417 q 1019 400 1000 417 q 1050 354 1047 382 q 1051 339 1051 346 q 1031 293 1051 314 q 913 249 993 249 l 897 249 q 843 257 863 251 q 828 261 833 261 q 817 254 822 261 q 781 167 786 221 l 781 154 q 790 118 781 132 q 935 49 831 49 q 1060 82 983 46 q 1104 97 1089 97 q 1125 92 1114 97 q 1150 49 1150 78 q 1090 -4 1150 19 q 972 -40 1024 -36 q 933 -43 953 -43 q 789 -7 854 -43 q 713 69 738 28 l 701 86 q 697 76 700 86 q 692 50 694 65 q 631 -44 674 -44 q 607 -37 619 -44 q 583 1 583 -25 q 590 32 583 15 q 608 117 599 53 q 619 190 618 181 q 602 199 619 196 q 554 203 585 201 q 486 206 524 206 q 240 190 371 206 q 208 185 221 188 q 193 182 194 183 l 193 181 q 200 151 193 176 q 215 99 207 126 q 231 53 224 71 q 250 4 244 19 q 253 -11 253 -4 q 236 -44 253 -29 q 206 -56 222 -56 q 179 -47 192 -56 m 240 285 q 496 299 378 299 q 604 293 567 299 q 635 290 626 290 l 639 290 q 644 310 640 292 q 650 354 647 328 q 660 501 660 425 q 654 593 660 554 q 593 775 639 697 q 510 856 558 831 q 447 868 500 868 q 407 865 418 868 q 374 851 396 863 q 233 701 288 808 q 171 407 171 586 l 171 369 q 174 294 172 313 q 182 276 176 276 l 185 276 q 240 285 194 279 m 743 319 q 742 321 742 321 q 740 317 740 321 q 742 311 740 311 l 743 311 q 744 315 744 313 q 743 319 744 317 z "},"":{"ha":674,"x_min":44,"x_max":671,"o":"m 199 739 q 140 499 143 633 q 139 463 139 481 q 181 251 139 342 q 267 126 214 171 q 376 81 319 81 q 403 83 390 81 q 551 196 486 101 q 579 232 569 224 q 607 240 589 240 q 638 228 626 240 q 653 199 653 215 q 614 124 653 172 q 508 26 565 64 q 426 -4 472 6 q 435 -31 435 -15 q 449 -37 436 -35 q 499 -82 479 -50 q 508 -121 508 -101 q 488 -184 508 -154 q 432 -228 467 -214 q 385 -235 408 -235 q 353 -231 367 -235 q 306 -199 319 -217 q 300 -171 300 -185 q 311 -142 300 -150 q 343 -126 326 -126 q 367 -133 354 -126 q 392 -140 382 -140 q 407 -135 401 -140 q 413 -128 413 -131 q 393 -119 413 -122 q 343 -43 343 -115 q 347 -8 343 -11 q 339 -7 343 -8 q 127 152 210 17 q 44 474 44 288 q 117 781 44 643 q 242 931 168 879 q 396 983 315 983 q 574 910 488 983 q 639 831 607 878 q 671 768 671 785 q 657 735 671 750 q 624 721 643 721 q 569 768 590 721 q 488 861 533 831 q 394 892 442 892 q 290 853 340 892 q 199 739 239 815 z "},"":{"ha":613,"x_min":53,"x_max":621,"o":"m 282 -7 q 82 157 121 22 q 78 194 78 175 q 135 346 78 267 q 136 349 136 347 q 128 361 136 353 q 60 503 82 414 q 53 575 53 533 q 61 667 53 622 q 206 910 94 818 q 393 981 300 981 q 557 908 486 981 q 621 731 621 833 q 619 697 621 706 q 611 682 617 689 q 576 665 594 665 q 544 678 558 665 q 531 713 531 690 q 497 836 531 789 q 406 889 463 883 q 390 890 397 890 q 244 818 315 890 q 164 686 189 763 q 146 579 146 631 q 172 464 146 517 q 197 419 188 433 l 207 408 l 242 425 q 342 450 286 450 q 413 432 392 450 q 443 388 439 415 l 443 375 q 424 325 443 346 q 306 281 385 281 l 290 281 q 235 289 254 283 q 219 294 224 294 q 208 288 214 294 q 172 200 178 253 l 172 188 q 183 150 172 165 q 322 82 222 82 l 328 82 q 451 115 393 82 q 496 129 482 129 q 517 124 507 129 q 543 82 543 108 q 535 58 543 69 q 403 -1 492 25 q 318 -8 363 -8 q 282 -7 299 -8 m 376 1043 q 264 1203 292 1094 q 258 1239 258 1225 q 272 1274 258 1261 q 304 1285 282 1285 q 335 1274 328 1285 q 350 1247 347 1261 q 378 1168 358 1203 q 436 1115 394 1142 q 467 1071 467 1094 q 449 1036 467 1053 q 422 1026 438 1026 q 376 1043 404 1026 z "},"":{"ha":613,"x_min":53,"x_max":621,"o":"m 282 -7 q 82 157 121 22 q 78 194 78 175 q 135 346 78 267 q 136 349 136 347 q 128 361 136 353 q 60 503 82 414 q 53 575 53 533 q 61 667 53 622 q 206 910 94 818 q 393 981 300 981 q 557 908 486 981 q 621 731 621 833 q 619 697 621 706 q 611 682 617 689 q 576 665 594 665 q 544 678 558 665 q 531 713 531 690 q 497 836 531 789 q 406 889 463 883 q 390 890 397 890 q 244 818 315 890 q 164 686 189 763 q 146 579 146 631 q 172 464 146 517 q 197 419 188 433 l 207 408 l 242 425 q 342 450 286 450 q 413 432 392 450 q 443 388 439 415 l 443 375 q 424 325 443 346 q 306 281 385 281 l 290 281 q 235 289 254 283 q 219 294 224 294 q 208 288 214 294 q 172 200 178 253 l 172 188 q 183 150 172 165 q 322 82 222 82 l 328 82 q 451 115 393 82 q 496 129 482 129 q 517 124 507 129 q 543 82 543 108 q 535 58 543 69 q 403 -1 492 25 q 318 -8 363 -8 q 282 -7 299 -8 m 335 1028 q 317 1061 317 1043 q 349 1107 317 1086 q 406 1160 390 1133 q 435 1239 425 1194 q 449 1265 438 1253 q 481 1276 456 1276 q 511 1265 504 1276 q 525 1232 525 1253 q 519 1194 525 1217 q 407 1035 493 1086 q 361 1018 379 1018 q 335 1028 346 1018 z "},"":{"ha":613,"x_min":53,"x_max":621,"o":"m 282 -7 q 82 157 121 22 q 78 194 78 175 q 135 346 78 267 q 136 349 136 347 q 128 361 136 353 q 60 503 82 414 q 53 575 53 533 q 61 667 53 622 q 206 910 94 818 q 393 981 300 981 q 557 908 486 981 q 621 731 621 833 q 619 697 621 706 q 611 682 617 689 q 576 665 594 665 q 544 678 558 665 q 531 713 531 690 q 497 836 531 789 q 406 889 463 883 q 390 890 397 890 q 244 818 315 890 q 164 686 189 763 q 146 579 146 631 q 172 464 146 517 q 197 419 188 433 l 207 408 l 242 425 q 342 450 286 450 q 413 432 392 450 q 443 388 439 415 l 443 375 q 424 325 443 346 q 306 281 385 281 l 290 281 q 235 289 254 283 q 219 294 224 294 q 208 288 214 294 q 172 200 178 253 l 172 188 q 183 150 172 165 q 322 82 222 82 l 328 82 q 451 115 393 82 q 496 129 482 129 q 517 124 507 129 q 543 82 543 108 q 535 58 543 69 q 403 -1 492 25 q 318 -8 363 -8 q 282 -7 299 -8 m 272 1033 q 253 1096 253 1056 q 289 1211 253 1150 q 393 1276 329 1274 l 408 1276 q 444 1268 431 1276 q 528 1151 508 1238 q 533 1100 533 1124 q 514 1036 533 1058 q 485 1025 508 1025 q 438 1078 436 1025 q 439 1093 438 1085 l 439 1108 q 432 1147 439 1132 q 400 1185 418 1185 q 394 1183 397 1185 q 357 1142 374 1175 q 349 1103 349 1128 l 349 1086 q 344 1046 349 1057 q 328 1028 340 1035 q 303 1021 315 1021 q 272 1033 286 1021 z "},"":{"ha":613,"x_min":53,"x_max":621,"o":"m 282 -7 q 82 157 121 22 q 78 194 78 175 q 135 346 78 267 q 136 349 136 347 q 128 361 136 353 q 60 503 82 414 q 53 575 53 533 q 61 667 53 622 q 206 910 94 818 q 393 981 300 981 q 557 908 486 981 q 621 731 621 833 q 619 697 621 706 q 611 682 617 689 q 576 665 594 665 q 544 678 558 665 q 531 713 531 690 q 497 836 531 789 q 406 889 463 883 q 390 890 397 890 q 244 818 315 890 q 164 686 189 763 q 146 579 146 631 q 172 464 146 517 q 197 419 188 433 l 207 408 l 242 425 q 342 450 286 450 q 413 432 392 450 q 443 388 439 415 l 443 375 q 424 325 443 346 q 306 281 385 281 l 290 281 q 235 289 254 283 q 219 294 224 294 q 208 288 214 294 q 172 200 178 253 l 172 188 q 183 150 172 165 q 322 82 222 82 l 328 82 q 451 115 393 82 q 496 129 482 129 q 517 124 507 129 q 543 82 543 108 q 535 58 543 69 q 403 -1 492 25 q 318 -8 363 -8 q 282 -7 299 -8 m 310 1028 q 283 1075 283 1049 q 314 1126 283 1106 q 336 1132 325 1132 q 376 1115 358 1132 q 393 1075 393 1099 q 376 1036 393 1054 q 338 1018 358 1018 q 310 1028 325 1018 m 440 1028 q 414 1075 414 1049 q 444 1126 414 1106 q 467 1132 456 1132 q 505 1115 488 1132 q 522 1075 522 1099 q 506 1036 522 1054 q 468 1018 489 1018 q 440 1028 454 1018 z "},"":{"ha":267,"x_min":19,"x_max":228,"o":"m 138 663 q 25 822 53 714 q 19 858 19 844 q 33 892 19 881 q 65 904 43 904 q 96 892 89 904 q 111 867 108 881 q 139 788 119 821 q 197 735 156 760 q 228 690 228 714 q 210 656 228 672 q 183 646 199 646 q 138 663 165 646 m 136 6 q 117 21 124 10 q 110 78 111 32 q 108 236 108 124 l 108 386 q 110 537 108 493 q 116 592 111 581 q 132 608 121 604 q 156 617 144 617 q 176 611 165 617 q 194 598 189 608 q 201 542 200 588 q 203 383 203 496 l 203 308 q 202 144 203 204 q 200 56 201 83 q 197 26 199 29 q 156 1 181 1 q 136 6 146 1 z "},"":{"ha":243,"x_min":42,"x_max":250,"o":"m 60 656 q 42 689 42 671 q 74 735 42 714 q 131 788 115 760 q 160 867 150 821 q 174 892 163 881 q 206 904 181 904 q 236 892 229 904 q 250 860 250 881 q 244 822 250 846 q 132 663 218 713 q 86 646 104 646 q 60 656 71 646 m 99 6 q 80 21 86 10 q 72 78 74 32 q 71 236 71 124 l 71 307 q 72 514 71 454 q 78 589 74 574 q 96 608 83 604 q 119 617 107 617 q 140 611 128 617 q 157 598 151 608 q 164 542 163 588 q 165 386 165 497 l 165 308 q 165 144 165 204 q 163 56 164 83 q 160 26 161 29 q 118 1 143 1 q 99 6 108 1 z "},"":{"ha":311,"x_min":19,"x_max":300,"o":"m 39 603 q 19 665 19 625 q 56 781 19 719 q 160 846 96 843 l 175 846 q 211 838 197 846 q 294 721 275 807 q 300 669 300 693 q 281 606 300 628 q 251 594 275 594 q 204 647 203 594 q 206 663 204 654 l 206 678 q 199 717 206 701 q 167 754 185 754 q 161 753 164 754 q 124 711 140 744 q 115 672 115 697 l 115 656 q 111 615 115 626 q 94 597 107 604 q 69 590 82 590 q 39 603 53 590 m 140 6 q 122 21 128 10 q 114 78 115 32 q 113 236 113 124 l 113 307 q 114 514 113 454 q 120 589 115 574 q 138 608 125 604 q 161 617 150 617 q 182 611 171 617 q 199 598 193 608 q 206 542 204 588 q 207 386 207 497 l 207 308 q 206 144 207 204 q 205 56 206 83 q 203 26 204 29 q 160 1 186 1 q 140 6 150 1 z "},"":{"ha":265,"x_min":13,"x_max":251,"o":"m 39 633 q 13 682 13 654 q 43 732 13 713 q 67 738 54 738 q 105 722 88 738 q 122 682 122 706 q 105 642 122 660 q 67 625 88 625 q 39 633 54 625 m 169 633 q 143 682 143 654 q 174 732 143 713 q 196 738 185 738 q 235 722 218 738 q 251 682 251 706 q 235 642 251 660 q 197 625 218 625 q 169 633 183 625 m 103 6 q 84 21 90 10 q 76 78 78 32 q 75 236 75 124 l 75 386 q 76 537 75 493 q 83 592 78 581 q 99 608 88 604 q 122 617 111 617 q 143 611 132 617 q 161 598 156 608 q 168 542 167 588 q 169 383 169 496 l 169 308 q 169 144 169 204 q 167 56 168 83 q 164 26 165 29 q 122 1 147 1 q 103 6 113 1 z "},"":{"ha":665,"x_min":22,"x_max":643,"o":"m 140 -32 q 121 -19 129 -26 q 106 1 111 -11 q 101 52 101 13 q 100 183 100 92 q 97 428 100 328 l 94 500 l 79 500 q 28 529 44 500 q 22 546 22 539 q 26 560 22 551 q 78 594 39 594 l 96 594 l 96 742 q 100 899 96 865 q 146 936 111 922 q 211 943 169 943 q 319 932 267 943 q 624 611 550 864 q 643 464 643 539 q 575 196 643 319 q 306 -19 483 40 q 207 -35 267 -35 l 181 -35 q 140 -32 149 -35 m 282 68 q 478 217 407 113 q 549 464 549 322 q 484 704 549 603 q 308 842 419 806 q 214 856 249 856 l 204 856 l 190 853 l 193 596 l 211 597 l 219 597 q 278 551 271 597 q 271 526 278 539 q 221 503 264 506 l 193 501 l 192 463 l 192 425 q 193 236 192 358 l 196 50 l 219 51 q 282 68 246 54 z "},"":{"ha":843,"x_min":65,"x_max":792,"o":"m 676 8 q 654 25 664 14 q 644 47 644 32 q 661 135 644 69 q 699 444 699 299 q 636 767 699 633 q 501 883 574 883 q 415 839 458 883 q 336 707 372 794 q 243 156 261 532 q 235 68 239 90 q 218 39 231 46 q 186 26 203 26 q 142 51 161 26 q 88 256 111 101 q 65 557 65 410 q 79 774 65 664 q 113 926 93 885 q 157 953 132 953 q 199 924 183 953 q 201 911 201 917 q 196 886 201 901 q 168 733 181 836 q 161 533 161 643 q 163 447 161 483 q 167 411 164 411 q 168 413 168 411 q 181 485 171 425 q 367 919 235 803 q 499 972 432 972 q 614 935 556 972 q 779 607 739 849 q 792 440 792 526 q 751 108 792 288 q 733 33 739 50 q 689 7 717 7 q 676 8 682 7 m 456 1028 q 392 1056 433 1035 q 328 1078 351 1078 q 300 1068 306 1078 q 250 1031 274 1031 q 203 1075 207 1031 q 204 1086 203 1081 q 247 1147 210 1122 q 326 1172 283 1172 q 435 1139 371 1172 q 494 1117 474 1117 q 521 1125 508 1117 q 547 1153 538 1132 q 590 1188 565 1188 q 622 1174 607 1188 q 636 1150 636 1165 l 636 1142 q 599 1067 636 1107 q 531 1028 569 1038 q 493 1022 511 1022 q 456 1028 475 1022 z "},"":{"ha":749,"x_min":17,"x_max":735,"o":"m 300 -6 q 117 104 188 13 q 49 326 49 204 q 51 369 49 349 q 56 419 56 404 q 46 458 56 442 q 17 603 17 529 q 47 757 17 682 q 136 890 78 832 q 363 982 233 982 q 601 876 500 982 q 703 701 671 804 q 735 506 735 604 q 697 290 735 393 q 586 110 658 186 q 471 24 533 53 q 338 -8 404 -8 q 300 -6 318 -8 m 376 86 q 438 108 406 94 q 589 276 531 160 q 633 411 619 340 q 640 508 640 454 q 633 604 640 561 q 417 886 586 832 q 371 892 400 892 l 351 892 q 281 876 308 892 q 113 621 126 806 l 110 575 l 133 611 q 183 681 157 649 q 278 744 239 744 q 313 729 297 744 q 324 701 324 722 q 292 656 324 671 q 221 576 260 638 q 165 458 182 514 l 160 439 l 182 417 q 328 344 235 358 q 379 326 372 336 q 393 294 393 311 q 369 256 393 271 q 343 251 360 251 q 256 268 308 251 q 165 311 204 285 q 143 325 146 325 l 143 322 q 144 299 143 315 q 301 86 165 122 q 339 81 322 81 q 376 86 354 81 m 375 1044 q 263 1204 290 1096 q 257 1240 257 1226 q 271 1275 257 1263 q 303 1286 281 1286 q 333 1275 326 1286 q 349 1249 346 1263 q 376 1169 357 1204 q 435 1117 393 1143 q 465 1072 465 1096 q 447 1038 465 1054 q 421 1028 436 1028 q 375 1044 403 1028 z "},"":{"ha":749,"x_min":17,"x_max":735,"o":"m 300 -6 q 117 104 188 13 q 49 326 49 204 q 51 369 49 349 q 56 419 56 404 q 46 458 56 442 q 17 603 17 529 q 47 757 17 682 q 136 890 78 832 q 363 982 233 982 q 601 876 500 982 q 703 701 671 804 q 735 506 735 604 q 697 290 735 393 q 586 110 658 186 q 471 24 533 53 q 338 -8 404 -8 q 300 -6 318 -8 m 376 86 q 438 108 406 94 q 589 276 531 160 q 633 411 619 340 q 640 508 640 454 q 633 604 640 561 q 417 886 586 832 q 371 892 400 892 l 351 892 q 281 876 308 892 q 113 621 126 806 l 110 575 l 133 611 q 183 681 157 649 q 278 744 239 744 q 313 729 297 744 q 324 701 324 722 q 292 656 324 671 q 221 576 260 638 q 165 458 182 514 l 160 439 l 182 417 q 328 344 235 358 q 379 326 372 336 q 393 294 393 311 q 369 256 393 271 q 343 251 360 251 q 256 268 308 251 q 165 311 204 285 q 143 325 146 325 l 143 322 q 144 299 143 315 q 301 86 165 122 q 339 81 322 81 q 376 86 354 81 m 333 1035 q 315 1068 315 1050 q 347 1114 315 1093 q 404 1167 389 1140 q 433 1246 424 1201 q 447 1272 436 1260 q 479 1283 454 1283 q 510 1272 503 1283 q 524 1239 524 1260 q 518 1201 524 1224 q 406 1042 492 1093 q 360 1025 378 1025 q 333 1035 344 1025 z "},"":{"ha":749,"x_min":17,"x_max":735,"o":"m 300 -6 q 117 104 188 13 q 49 326 49 204 q 51 369 49 349 q 56 419 56 404 q 46 458 56 442 q 17 603 17 529 q 47 757 17 682 q 136 890 78 832 q 363 982 233 982 q 601 876 500 982 q 703 701 671 804 q 735 506 735 604 q 697 290 735 393 q 586 110 658 186 q 471 24 533 53 q 338 -8 404 -8 q 300 -6 318 -8 m 376 86 q 438 108 406 94 q 589 276 531 160 q 633 411 619 340 q 640 508 640 454 q 633 604 640 561 q 417 886 586 832 q 371 892 400 892 l 351 892 q 281 876 308 892 q 113 621 126 806 l 110 575 l 133 611 q 183 681 157 649 q 278 744 239 744 q 313 729 297 744 q 324 701 324 722 q 292 656 324 671 q 221 576 260 638 q 165 458 182 514 l 160 439 l 182 417 q 328 344 235 358 q 379 326 372 336 q 393 294 393 311 q 369 256 393 271 q 343 251 360 251 q 256 268 308 251 q 165 311 204 285 q 143 325 146 325 l 143 322 q 144 299 143 315 q 301 86 165 122 q 339 81 322 81 q 376 86 354 81 m 265 1035 q 246 1097 246 1057 q 282 1213 246 1151 q 386 1278 322 1275 l 401 1278 q 438 1269 424 1278 q 521 1153 501 1239 q 526 1101 526 1125 q 507 1038 526 1060 q 478 1026 501 1026 q 431 1079 429 1026 q 432 1094 431 1086 l 432 1110 q 425 1149 432 1133 q 393 1186 411 1186 q 388 1185 390 1186 q 350 1143 367 1176 q 342 1104 342 1129 l 342 1088 q 338 1047 342 1058 q 321 1029 333 1036 q 296 1022 308 1022 q 265 1035 279 1022 z "},"":{"ha":749,"x_min":17,"x_max":735,"o":"m 300 -6 q 117 104 188 13 q 49 326 49 204 q 51 369 49 349 q 56 419 56 404 q 46 458 56 442 q 17 603 17 529 q 47 757 17 682 q 136 890 78 832 q 363 982 233 982 q 601 876 500 982 q 703 701 671 804 q 735 506 735 604 q 697 290 735 393 q 586 110 658 186 q 471 24 533 53 q 338 -8 404 -8 q 300 -6 318 -8 m 376 86 q 438 108 406 94 q 589 276 531 160 q 633 411 619 340 q 640 508 640 454 q 633 604 640 561 q 417 886 586 832 q 371 892 400 892 l 351 892 q 281 876 308 892 q 113 621 126 806 l 110 575 l 133 611 q 183 681 157 649 q 278 744 239 744 q 313 729 297 744 q 324 701 324 722 q 292 656 324 671 q 221 576 260 638 q 165 458 182 514 l 160 439 l 182 417 q 328 344 235 358 q 379 326 372 336 q 393 294 393 311 q 369 256 393 271 q 343 251 360 251 q 256 268 308 251 q 165 311 204 285 q 143 325 146 325 l 143 322 q 144 299 143 315 q 301 86 165 122 q 339 81 322 81 q 376 86 354 81 m 431 1036 q 367 1064 408 1043 q 303 1086 326 1086 q 275 1076 281 1086 q 225 1039 249 1039 q 178 1083 182 1039 q 179 1094 178 1089 q 222 1156 185 1131 q 301 1181 258 1181 q 410 1147 346 1181 q 469 1125 449 1125 q 496 1133 483 1125 q 522 1161 513 1140 q 565 1196 540 1196 q 597 1182 582 1196 q 611 1158 611 1174 l 611 1150 q 574 1075 611 1115 q 506 1036 544 1046 q 468 1031 486 1031 q 431 1036 450 1031 z "},"":{"ha":749,"x_min":17,"x_max":735,"o":"m 300 -6 q 117 104 188 13 q 49 326 49 204 q 51 369 49 349 q 56 419 56 404 q 46 458 56 442 q 17 603 17 529 q 47 757 17 682 q 136 890 78 832 q 363 982 233 982 q 601 876 500 982 q 703 701 671 804 q 735 506 735 604 q 697 290 735 393 q 586 110 658 186 q 471 24 533 53 q 338 -8 404 -8 q 300 -6 318 -8 m 376 86 q 438 108 406 94 q 589 276 531 160 q 633 411 619 340 q 640 508 640 454 q 633 604 640 561 q 417 886 586 832 q 371 892 400 892 l 351 892 q 281 876 308 892 q 113 621 126 806 l 110 575 l 133 611 q 183 681 157 649 q 278 744 239 744 q 313 729 297 744 q 324 701 324 722 q 292 656 324 671 q 221 576 260 638 q 165 458 182 514 l 160 439 l 182 417 q 328 344 235 358 q 379 326 372 336 q 393 294 393 311 q 369 256 393 271 q 343 251 360 251 q 256 268 308 251 q 165 311 204 285 q 143 325 146 325 l 143 322 q 144 299 143 315 q 301 86 165 122 q 339 81 322 81 q 376 86 354 81 m 304 1038 q 278 1085 278 1058 q 308 1136 278 1115 q 331 1142 319 1142 q 370 1125 353 1142 q 388 1085 388 1108 q 370 1046 388 1064 q 332 1028 353 1028 q 304 1038 319 1028 m 435 1038 q 408 1085 408 1058 q 439 1136 408 1115 q 461 1142 450 1142 q 499 1125 482 1142 q 517 1085 517 1108 q 500 1046 517 1064 q 463 1028 483 1028 q 435 1038 449 1028 z "},"":{"ha":289,"x_min":0,"x_max":289,"o":"m 22 311 q 0 350 0 328 q 1 360 0 356 q 46 438 10 376 q 74 484 63 464 q 86 506 86 504 q 74 527 86 507 q 43 576 61 547 q 8 633 17 617 q 0 660 0 650 q 46 707 0 701 q 74 697 60 707 q 113 642 85 686 q 134 608 125 621 q 144 594 143 594 q 155 608 146 594 q 175 642 164 621 q 235 706 215 710 q 243 707 239 707 q 281 686 264 707 q 289 664 289 676 q 244 576 289 639 q 214 527 226 547 q 201 506 201 507 q 213 484 201 504 q 243 438 225 464 q 286 360 281 376 q 288 350 288 356 q 265 311 288 328 q 242 303 253 303 q 176 365 214 303 q 155 398 164 385 q 144 411 146 411 q 133 398 143 411 q 111 365 124 385 q 46 303 75 303 q 22 311 35 303 z "},"":{"ha":797,"x_min":44,"x_max":760,"o":"m 231 -112 q 207 -74 207 -96 q 218 -32 207 -65 q 226 0 226 -6 l 226 1 q 76 260 94 88 q 75 296 75 278 q 78 343 75 317 q 82 393 82 378 q 72 432 82 415 q 44 578 44 481 q 56 679 44 661 q 317 949 119 896 q 376 956 340 956 l 400 956 q 485 942 451 956 q 512 932 500 936 q 525 928 524 928 q 531 937 526 928 q 540 961 535 946 q 579 1015 556 1013 q 592 1017 586 1017 q 625 1003 611 1017 q 639 975 639 993 q 625 918 639 957 l 608 869 l 632 844 q 758 528 742 724 q 760 482 760 504 q 696 204 760 336 q 497 -3 622 60 q 360 -33 442 -33 l 317 -35 l 306 -65 q 258 -118 289 -118 l 256 -118 q 231 -112 243 -118 m 403 60 q 464 82 431 68 q 615 250 557 133 q 658 386 646 315 q 665 482 665 428 q 658 578 665 535 q 586 756 635 689 l 575 768 l 497 528 q 465 426 479 472 q 441 348 451 381 q 425 296 431 315 q 419 272 419 276 q 410 242 419 258 q 347 57 371 149 q 358 54 349 54 q 403 60 374 54 m 281 160 q 295 208 289 188 q 301 231 301 229 q 279 242 301 235 q 190 285 233 257 q 169 299 172 299 q 168 292 168 299 q 178 221 168 269 q 232 117 193 161 q 254 94 253 94 q 264 113 257 94 q 281 160 271 132 m 340 347 q 499 836 499 836 q 442 860 479 849 q 396 865 425 865 l 376 865 q 306 850 333 865 q 138 594 153 779 l 136 549 l 158 585 q 304 717 244 717 q 338 703 322 717 q 349 675 349 696 q 318 629 349 644 q 247 549 286 611 q 192 432 208 488 l 186 413 l 207 390 q 296 332 250 350 q 325 324 315 324 q 340 347 338 324 z "},"":{"ha":796,"x_min":60,"x_max":776,"o":"m 707 11 q 629 129 671 43 q 607 199 619 154 l 593 244 l 582 225 q 317 19 453 19 q 289 22 303 19 q 67 369 110 56 q 60 506 60 428 q 67 650 60 585 q 108 860 82 771 q 160 965 135 949 q 185 971 171 971 q 210 964 199 971 q 231 928 231 944 q 217 888 231 919 q 170 713 188 819 q 153 503 153 606 q 156 428 153 464 q 243 150 172 228 q 315 113 276 113 q 424 171 365 113 q 536 339 485 231 l 563 394 l 561 443 q 560 569 560 500 q 564 771 560 699 q 671 974 592 974 q 685 972 678 974 q 736 921 719 964 q 749 822 749 883 q 679 446 749 672 l 663 394 l 668 363 q 757 93 694 176 q 776 51 776 69 q 772 32 776 42 q 729 6 756 6 q 707 11 718 6 m 436 976 q 324 1136 351 1028 q 318 1172 318 1158 q 332 1207 318 1194 q 364 1218 342 1218 q 394 1207 388 1218 q 410 1181 407 1194 q 438 1101 418 1136 q 496 1049 454 1075 q 526 1004 526 1028 q 508 969 526 986 q 482 960 497 960 q 436 976 464 960 z "},"":{"ha":796,"x_min":60,"x_max":776,"o":"m 707 11 q 629 129 671 43 q 607 199 619 154 l 593 244 l 582 225 q 317 19 453 19 q 289 22 303 19 q 67 369 110 56 q 60 506 60 428 q 67 650 60 585 q 108 860 82 771 q 160 965 135 949 q 185 971 171 971 q 210 964 199 971 q 231 928 231 944 q 217 888 231 919 q 170 713 188 819 q 153 503 153 606 q 156 428 153 464 q 243 150 172 228 q 315 113 276 113 q 424 171 365 113 q 536 339 485 231 l 563 394 l 561 443 q 560 569 560 500 q 564 771 560 699 q 671 974 592 974 q 685 972 678 974 q 736 921 719 964 q 749 822 749 883 q 679 446 749 672 l 663 394 l 668 363 q 757 93 694 176 q 776 51 776 69 q 772 32 776 42 q 729 6 756 6 q 707 11 718 6 m 369 965 q 351 999 351 981 q 383 1044 351 1024 q 440 1097 425 1071 q 469 1176 460 1132 q 483 1203 472 1190 q 515 1214 490 1214 q 546 1203 539 1214 q 560 1169 560 1190 q 554 1132 560 1154 q 442 972 528 1024 q 396 956 414 956 q 369 965 381 956 z "},"":{"ha":796,"x_min":60,"x_max":776,"o":"m 707 11 q 629 129 671 43 q 607 199 619 154 l 593 244 l 582 225 q 317 19 453 19 q 289 22 303 19 q 67 369 110 56 q 60 506 60 428 q 67 650 60 585 q 108 860 82 771 q 160 965 135 949 q 185 971 171 971 q 210 964 199 971 q 231 928 231 944 q 217 888 231 919 q 170 713 188 819 q 153 503 153 606 q 156 428 153 464 q 243 150 172 228 q 315 113 276 113 q 424 171 365 113 q 536 339 485 231 l 563 394 l 561 443 q 560 569 560 500 q 564 771 560 699 q 671 974 592 974 q 685 972 678 974 q 736 921 719 964 q 749 822 749 883 q 679 446 749 672 l 663 394 l 668 363 q 757 93 694 176 q 776 51 776 69 q 772 32 776 42 q 729 6 756 6 q 707 11 718 6 m 326 999 q 307 1061 307 1021 q 343 1176 307 1115 q 447 1242 383 1239 l 463 1242 q 499 1233 485 1242 q 582 1117 563 1203 q 588 1065 588 1089 q 568 1001 588 1024 q 539 990 563 990 q 492 1043 490 990 q 493 1058 492 1050 l 493 1074 q 486 1113 493 1097 q 454 1150 472 1150 q 449 1149 451 1150 q 411 1107 428 1140 q 403 1068 403 1093 l 403 1051 q 399 1011 403 1022 q 382 993 394 1000 q 357 986 369 986 q 326 999 340 986 z "},"":{"ha":796,"x_min":60,"x_max":776,"o":"m 707 11 q 629 129 671 43 q 607 199 619 154 l 593 244 l 582 225 q 317 19 453 19 q 289 22 303 19 q 67 369 110 56 q 60 506 60 428 q 67 650 60 585 q 108 860 82 771 q 160 965 135 949 q 185 971 171 971 q 210 964 199 971 q 231 928 231 944 q 217 888 231 919 q 170 713 188 819 q 153 503 153 606 q 156 428 153 464 q 243 150 172 228 q 315 113 276 113 q 424 171 365 113 q 536 339 485 231 l 563 394 l 561 443 q 560 569 560 500 q 564 771 560 699 q 671 974 592 974 q 685 972 678 974 q 736 921 719 964 q 749 822 749 883 q 679 446 749 672 l 663 394 l 668 363 q 757 93 694 176 q 776 51 776 69 q 772 32 776 42 q 729 6 756 6 q 707 11 718 6 m 344 1000 q 318 1047 318 1021 q 349 1099 318 1078 q 371 1104 360 1104 q 410 1088 393 1104 q 428 1047 428 1071 q 410 1008 428 1026 q 372 990 393 990 q 344 1000 360 990 m 475 1000 q 449 1047 449 1021 q 479 1099 449 1078 q 501 1104 490 1104 q 540 1088 522 1104 q 557 1047 557 1071 q 540 1008 557 1026 q 503 990 524 990 q 475 1000 489 990 z "},"":{"ha":714,"x_min":60,"x_max":676,"o":"m 253 15 q 107 103 154 38 q 90 140 90 119 q 93 158 90 153 q 106 171 96 164 q 128 182 114 182 l 139 182 q 183 154 160 185 q 311 100 229 100 l 318 100 q 457 149 397 100 q 540 285 517 199 q 550 390 550 311 q 551 475 551 467 q 549 479 551 479 q 522 446 544 479 q 467 376 494 407 q 274 274 365 274 q 156 325 208 274 q 79 475 104 376 q 60 644 60 544 q 61 693 60 667 q 121 972 71 929 q 149 979 136 979 q 179 965 165 979 q 193 936 193 953 q 186 907 193 924 q 160 778 171 875 q 154 667 154 729 q 165 515 154 578 q 224 386 185 425 q 271 365 242 365 l 279 365 q 386 428 328 365 q 518 628 465 507 l 532 661 l 533 758 q 579 965 532 936 q 614 979 589 979 q 676 900 671 979 l 676 883 q 639 686 676 808 l 629 654 l 636 578 q 644 407 644 499 q 642 320 644 342 q 633 272 640 299 q 514 78 600 144 q 400 19 458 38 q 307 11 358 11 q 253 15 275 11 m 318 988 q 300 1021 300 1003 q 332 1067 300 1046 q 389 1119 374 1093 q 418 1199 408 1154 q 432 1225 421 1213 q 464 1236 439 1236 q 494 1225 488 1236 q 508 1192 508 1213 q 503 1154 508 1176 q 390 994 476 1046 q 344 978 363 978 q 318 988 329 978 z "},"":{"ha":482,"x_min":75,"x_max":460,"o":"m 114 76 q 93 90 104 79 q 79 122 82 101 q 76 486 79 139 q 75 708 75 631 q 76 809 75 781 q 83 846 78 838 q 94 858 88 854 q 122 865 106 865 q 147 860 138 865 q 164 836 160 851 q 168 783 168 821 q 169 745 168 754 q 172 736 169 736 l 176 738 q 257 751 218 751 q 393 694 336 751 q 460 517 460 632 q 394 313 460 404 q 215 207 310 207 q 186 210 200 207 l 172 213 l 172 160 q 171 113 172 124 q 164 96 169 101 q 128 75 140 75 l 126 75 q 114 76 122 75 m 253 310 q 357 449 326 346 q 368 518 368 482 q 357 581 368 553 q 253 657 328 657 q 179 631 210 657 q 173 613 175 628 q 171 538 171 599 l 171 453 l 172 319 l 189 308 q 217 299 203 299 q 253 310 232 299 z "},"":{"ha":690,"x_min":61,"x_max":668,"o":"m 142 -53 q 100 26 118 -44 q 61 382 61 174 q 85 633 61 551 q 231 907 129 825 q 394 968 311 968 q 424 965 408 968 q 571 892 513 954 q 640 719 640 821 l 640 704 q 540 471 643 615 q 486 369 486 393 q 489 360 486 364 q 503 344 492 353 q 549 311 514 335 q 665 154 656 240 q 668 124 668 139 q 615 1 668 56 q 482 -54 564 -54 l 463 -54 q 350 -19 397 -53 q 319 13 324 -3 q 315 31 315 21 q 361 74 315 65 q 404 58 372 74 q 478 39 443 39 q 543 61 515 39 q 574 128 574 90 q 550 192 574 160 q 497 232 535 204 q 406 314 424 282 q 396 369 396 319 q 407 432 396 419 q 464 525 422 463 q 546 714 546 636 l 546 728 q 464 856 542 817 q 394 872 429 872 q 281 825 335 872 q 163 535 190 746 q 156 379 156 472 q 163 215 156 286 q 206 0 176 94 q 207 -14 207 -8 q 203 -31 207 -21 q 163 -58 188 -58 q 142 -53 153 -58 z "},"":{"ha":606,"x_min":-3,"x_max":601,"o":"m 418 -18 q 389 22 389 4 q 404 81 389 33 q 436 213 436 186 q 404 219 436 219 q 343 218 385 219 q 208 211 254 215 l 168 206 l 169 186 q 203 67 181 121 q 213 29 213 44 q 186 -11 213 1 q 165 -17 175 -17 q 82 147 114 -17 q 75 173 78 165 q 69 181 72 181 q 47 176 64 179 l 43 176 q 1 206 13 176 q -3 224 -3 215 q 43 274 -3 254 l 64 281 l 67 347 q 90 513 68 439 q 260 757 139 697 q 287 767 276 765 q 328 768 297 768 q 369 766 357 768 q 394 757 381 764 q 517 593 476 715 q 544 383 544 525 l 544 299 l 558 296 q 590 280 579 293 q 601 250 601 267 q 586 217 601 233 q 553 206 581 206 l 532 206 l 521 154 q 474 -1 496 46 q 432 -21 456 -21 q 418 -18 425 -21 m 446 314 l 450 329 q 451 363 451 339 q 443 503 451 426 q 346 676 414 653 q 331 678 338 678 q 307 674 321 678 q 257 639 285 669 q 171 451 196 575 q 158 313 158 351 l 158 304 q 167 301 158 301 q 200 304 176 301 q 344 311 247 308 l 446 314 m 321 803 q 208 963 236 854 q 203 999 203 985 q 217 1033 203 1021 q 249 1044 226 1044 q 279 1033 272 1044 q 294 1007 292 1021 q 322 928 303 963 q 381 875 339 901 q 411 831 411 854 q 393 796 411 813 q 367 786 382 786 q 321 803 349 786 z "},"":{"ha":606,"x_min":-3,"x_max":601,"o":"m 418 -18 q 389 22 389 4 q 404 81 389 33 q 436 213 436 186 q 404 219 436 219 q 343 218 385 219 q 208 211 254 215 l 168 206 l 169 186 q 203 67 181 121 q 213 29 213 44 q 186 -11 213 1 q 165 -17 175 -17 q 82 147 114 -17 q 75 173 78 165 q 69 181 72 181 q 47 176 64 179 l 43 176 q 1 206 13 176 q -3 224 -3 215 q 43 274 -3 254 l 64 281 l 67 347 q 90 513 68 439 q 260 757 139 697 q 287 767 276 765 q 328 768 297 768 q 369 766 357 768 q 394 757 381 764 q 517 593 476 715 q 544 383 544 525 l 544 299 l 558 296 q 590 280 579 293 q 601 250 601 267 q 586 217 601 233 q 553 206 581 206 l 532 206 l 521 154 q 474 -1 496 46 q 432 -21 456 -21 q 418 -18 425 -21 m 446 314 l 450 329 q 451 363 451 339 q 443 503 451 426 q 346 676 414 653 q 331 678 338 678 q 307 674 321 678 q 257 639 285 669 q 171 451 196 575 q 158 313 158 351 l 158 304 q 167 301 158 301 q 200 304 176 301 q 344 311 247 308 l 446 314 m 267 796 q 249 829 249 811 q 281 875 249 854 q 338 928 322 901 q 367 1007 357 963 q 381 1033 369 1021 q 413 1044 388 1044 q 443 1033 436 1044 q 457 1000 457 1021 q 451 963 457 985 q 339 803 425 854 q 293 786 311 786 q 267 796 278 786 z "},"":{"ha":606,"x_min":-3,"x_max":601,"o":"m 418 -18 q 389 22 389 4 q 404 81 389 33 q 436 213 436 186 q 404 219 436 219 q 343 218 385 219 q 208 211 254 215 l 168 206 l 169 186 q 203 67 181 121 q 213 29 213 44 q 186 -11 213 1 q 165 -17 175 -17 q 82 147 114 -17 q 75 173 78 165 q 69 181 72 181 q 47 176 64 179 l 43 176 q 1 206 13 176 q -3 224 -3 215 q 43 274 -3 254 l 64 281 l 67 347 q 90 513 68 439 q 260 757 139 697 q 287 767 276 765 q 328 768 297 768 q 369 766 357 768 q 394 757 381 764 q 517 593 476 715 q 544 383 544 525 l 544 299 l 558 296 q 590 280 579 293 q 601 250 601 267 q 586 217 601 233 q 553 206 581 206 l 532 206 l 521 154 q 474 -1 496 46 q 432 -21 456 -21 q 418 -18 425 -21 m 446 314 l 450 329 q 451 363 451 339 q 443 503 451 426 q 346 676 414 653 q 331 678 338 678 q 307 674 321 678 q 257 639 285 669 q 171 451 196 575 q 158 313 158 351 l 158 304 q 167 301 158 301 q 200 304 176 301 q 344 311 247 308 l 446 314 m 213 792 q 193 854 193 814 q 229 969 193 908 q 333 1035 269 1032 l 349 1035 q 385 1026 371 1035 q 468 910 449 996 q 474 858 474 882 q 454 794 474 817 q 425 783 449 783 q 378 836 376 783 q 379 851 378 843 l 379 867 q 372 906 379 890 q 340 943 358 943 q 335 942 338 943 q 297 900 314 933 q 289 861 289 886 l 289 844 q 285 804 289 815 q 268 786 281 793 q 243 779 256 779 q 213 792 226 779 z "},"":{"ha":606,"x_min":-3,"x_max":601,"o":"m 418 -18 q 389 22 389 4 q 404 81 389 33 q 436 213 436 186 q 404 219 436 219 q 343 218 385 219 q 208 211 254 215 l 168 206 l 169 186 q 203 67 181 121 q 213 29 213 44 q 186 -11 213 1 q 165 -17 175 -17 q 82 147 114 -17 q 75 173 78 165 q 69 181 72 181 q 47 176 64 179 l 43 176 q 1 206 13 176 q -3 224 -3 215 q 43 274 -3 254 l 64 281 l 67 347 q 90 513 68 439 q 260 757 139 697 q 287 767 276 765 q 328 768 297 768 q 369 766 357 768 q 394 757 381 764 q 517 593 476 715 q 544 383 544 525 l 544 299 l 558 296 q 590 280 579 293 q 601 250 601 267 q 586 217 601 233 q 553 206 581 206 l 532 206 l 521 154 q 474 -1 496 46 q 432 -21 456 -21 q 418 -18 425 -21 m 446 314 l 450 329 q 451 363 451 339 q 443 503 451 426 q 346 676 414 653 q 331 678 338 678 q 307 674 321 678 q 257 639 285 669 q 171 451 196 575 q 158 313 158 351 l 158 304 q 167 301 158 301 q 200 304 176 301 q 344 311 247 308 l 446 314 m 383 803 q 319 831 361 810 q 256 853 279 853 q 228 843 233 853 q 178 806 201 806 q 131 850 135 806 q 132 861 131 856 q 174 922 138 897 q 254 947 211 947 q 363 914 299 947 q 422 892 401 892 q 449 900 436 892 q 475 928 465 907 q 518 963 493 963 q 550 949 535 963 q 564 925 564 940 l 564 917 q 526 842 564 882 q 458 803 497 813 q 421 797 439 797 q 383 803 403 797 z "},"":{"ha":606,"x_min":-3,"x_max":601,"o":"m 418 -18 q 389 22 389 4 q 404 81 389 33 q 436 213 436 186 q 404 219 436 219 q 343 218 385 219 q 208 211 254 215 l 168 206 l 169 186 q 203 67 181 121 q 213 29 213 44 q 186 -11 213 1 q 165 -17 175 -17 q 82 147 114 -17 q 75 173 78 165 q 69 181 72 181 q 47 176 64 179 l 43 176 q 1 206 13 176 q -3 224 -3 215 q 43 274 -3 254 l 64 281 l 67 347 q 90 513 68 439 q 260 757 139 697 q 287 767 276 765 q 328 768 297 768 q 369 766 357 768 q 394 757 381 764 q 517 593 476 715 q 544 383 544 525 l 544 299 l 558 296 q 590 280 579 293 q 601 250 601 267 q 586 217 601 233 q 553 206 581 206 l 532 206 l 521 154 q 474 -1 496 46 q 432 -21 456 -21 q 418 -18 425 -21 m 446 314 l 450 329 q 451 363 451 339 q 443 503 451 426 q 346 676 414 653 q 331 678 338 678 q 307 674 321 678 q 257 639 285 669 q 171 451 196 575 q 158 313 158 351 l 158 304 q 167 301 158 301 q 200 304 176 301 q 344 311 247 308 l 446 314 m 229 815 q 203 863 203 836 q 233 914 203 893 q 256 919 244 919 q 295 903 278 919 q 313 863 313 886 q 295 824 313 842 q 257 806 278 806 q 229 815 244 806 m 360 815 q 333 863 333 836 q 364 914 333 893 q 386 919 375 919 q 424 903 407 919 q 442 863 442 886 q 425 824 442 842 q 388 806 408 806 q 360 815 374 806 z "},"":{"ha":606,"x_min":-3,"x_max":601,"o":"m 418 -18 q 389 22 389 4 q 404 81 389 33 q 436 213 436 186 q 404 219 436 219 q 343 218 385 219 q 208 211 254 215 l 168 206 l 169 186 q 203 67 181 121 q 213 29 213 44 q 186 -11 213 1 q 165 -17 175 -17 q 82 147 114 -17 q 75 173 78 165 q 69 181 72 181 q 47 176 64 179 l 43 176 q 1 206 13 176 q -3 224 -3 215 q 43 274 -3 254 l 64 281 l 67 347 q 90 513 68 439 q 260 757 139 697 q 287 767 276 765 q 328 768 297 768 q 369 766 357 768 q 394 757 381 764 q 517 593 476 715 q 544 383 544 525 l 544 299 l 558 296 q 590 280 579 293 q 601 250 601 267 q 586 217 601 233 q 553 206 581 206 l 532 206 l 521 154 q 474 -1 496 46 q 432 -21 456 -21 q 418 -18 425 -21 m 446 314 l 450 329 q 451 363 451 339 q 443 503 451 426 q 346 676 414 653 q 331 678 338 678 q 307 674 321 678 q 257 639 285 669 q 171 451 196 575 q 158 313 158 351 l 158 304 q 167 301 158 301 q 200 304 176 301 q 344 311 247 308 l 446 314 m 385 1004 q 426 960 413 986 q 439 907 439 935 q 410 829 439 864 q 329 794 381 794 l 328 794 q 293 799 310 794 q 221 885 238 822 q 218 907 218 896 q 240 974 218 942 q 297 1015 263 1006 q 325 1018 310 1018 q 385 1004 358 1018 m 344 907 q 336 922 344 918 q 328 926 332 926 q 319 922 325 926 q 311 908 311 915 q 319 893 311 900 q 328 886 324 886 q 336 890 331 886 q 344 907 344 897 z "},"":{"ha":1004,"x_min":-10,"x_max":985,"o":"m 411 86 q 382 126 382 106 q 386 147 382 131 q 397 183 390 164 q 429 315 429 289 q 404 322 429 324 q 336 321 385 322 q 201 314 247 318 l 161 310 l 163 289 q 196 169 174 224 q 206 132 206 149 q 179 92 206 104 q 160 88 168 88 q 75 250 107 88 q 69 276 71 268 q 64 283 67 283 l 63 283 q 40 281 56 281 l 33 281 q -6 308 6 281 q -10 326 -10 318 q 36 376 -10 357 l 57 385 l 60 450 q 83 617 61 542 q 253 860 132 800 q 280 870 269 868 q 321 872 290 872 q 362 870 350 872 q 388 861 374 868 q 485 757 446 831 q 506 713 501 725 q 508 706 506 706 q 515 713 510 706 q 533 740 521 721 q 628 835 574 803 q 736 867 682 867 q 860 814 804 867 q 943 544 942 735 q 947 472 946 490 q 949 464 949 468 q 940 444 949 454 q 915 424 932 428 q 835 421 899 421 q 597 403 722 421 q 551 395 563 397 q 540 385 540 393 q 542 372 540 381 q 636 200 560 239 q 694 188 653 188 q 754 197 732 188 q 899 317 804 210 q 939 340 919 340 q 958 336 949 340 q 983 297 983 324 l 983 290 q 914 200 985 271 q 697 96 815 96 l 678 96 q 528 168 589 97 l 501 196 l 488 154 q 447 88 468 89 q 426 82 435 82 q 411 86 419 82 m 439 418 l 443 432 q 444 467 444 442 q 436 606 444 531 q 339 779 407 757 q 322 782 329 782 q 300 776 314 782 q 250 742 278 774 q 164 554 189 678 q 151 415 151 456 l 151 407 q 161 406 151 406 q 193 407 171 406 q 338 415 240 413 l 439 418 m 626 500 q 771 513 693 507 l 851 517 l 851 543 q 819 713 847 647 q 763 769 796 754 q 735 774 749 774 q 688 764 711 774 q 601 676 640 736 q 544 508 558 597 l 544 494 q 546 488 544 486 q 551 489 549 488 q 626 500 567 492 z "},"":{"ha":586,"x_min":35,"x_max":581,"o":"m 550 238 q 581 196 581 219 q 525 115 581 171 q 329 -3 428 13 q 333 -25 333 -12 q 347 -32 333 -26 q 397 -76 379 -43 q 407 -115 407 -96 q 386 -178 407 -149 q 331 -221 365 -207 q 283 -229 307 -229 q 251 -224 265 -229 q 206 -192 218 -211 q 199 -165 199 -179 q 211 -135 199 -142 q 243 -119 226 -119 q 265 -126 254 -119 q 293 -135 282 -135 q 307 -129 301 -135 q 311 -121 311 -124 q 293 -114 311 -115 q 242 -36 242 -111 q 244 -4 242 -8 q 42 243 89 33 q 35 339 35 283 q 44 454 35 403 q 306 763 108 724 q 338 765 322 765 q 457 714 406 765 q 515 554 515 658 q 514 518 515 529 q 508 500 513 507 q 468 475 489 475 q 429 496 451 475 q 422 550 425 508 q 410 619 421 599 q 388 654 397 643 q 336 672 365 672 q 200 588 268 672 q 128 344 128 482 q 129 318 128 332 q 178 148 135 211 q 286 85 222 85 q 317 89 301 85 q 421 144 369 104 q 475 199 444 164 q 532 242 508 242 q 550 238 540 242 z "},"":{"ha":606,"x_min":-15,"x_max":586,"o":"m 251 -7 q 53 238 93 31 l 49 268 l 35 267 l 31 267 q -15 311 -8 267 l -15 318 q 26 360 -11 349 q 46 370 42 363 q 53 406 50 378 q 151 660 71 549 q 240 738 192 711 q 338 764 288 764 q 463 710 406 764 q 546 442 544 631 q 549 368 546 394 q 550 360 550 364 q 543 342 550 351 q 518 322 535 325 q 436 318 501 318 q 199 300 324 318 q 153 292 164 294 q 142 282 142 290 q 143 269 142 278 q 239 96 163 136 q 297 83 254 83 q 356 94 329 83 q 500 214 407 106 q 540 238 521 238 q 560 233 550 238 q 586 196 586 221 q 568 153 586 175 q 394 10 479 49 q 286 -10 339 -10 q 251 -7 268 -10 m 228 396 q 372 408 294 404 l 453 414 l 453 439 q 421 610 453 531 q 364 667 397 650 q 336 671 351 671 q 289 660 314 671 q 203 574 242 632 q 147 404 161 494 q 146 389 146 393 q 149 385 146 385 q 154 386 150 385 q 228 396 169 389 m 315 817 q 203 976 231 868 q 197 1013 197 999 q 211 1047 197 1035 q 243 1058 221 1058 q 274 1047 267 1058 q 289 1021 286 1035 q 317 942 297 976 q 375 889 333 915 q 406 844 406 868 q 388 810 406 826 q 361 800 376 800 q 315 817 343 800 z "},"":{"ha":606,"x_min":-15,"x_max":586,"o":"m 251 -7 q 53 238 93 31 l 49 268 l 35 267 l 31 267 q -15 311 -8 267 l -15 318 q 26 360 -11 349 q 46 370 42 363 q 53 406 50 378 q 151 660 71 549 q 240 738 192 711 q 338 764 288 764 q 463 710 406 764 q 546 442 544 631 q 549 368 546 394 q 550 360 550 364 q 543 342 550 351 q 518 322 535 325 q 436 318 501 318 q 199 300 324 318 q 153 292 164 294 q 142 282 142 290 q 143 269 142 278 q 239 96 163 136 q 297 83 254 83 q 356 94 329 83 q 500 214 407 106 q 540 238 521 238 q 560 233 550 238 q 586 196 586 221 q 568 153 586 175 q 394 10 479 49 q 286 -10 339 -10 q 251 -7 268 -10 m 228 396 q 372 408 294 404 l 453 414 l 453 439 q 421 610 453 531 q 364 667 397 650 q 336 671 351 671 q 289 660 314 671 q 203 574 242 632 q 147 404 161 494 q 146 389 146 393 q 149 385 146 385 q 154 386 150 385 q 228 396 169 389 m 249 808 q 231 842 231 824 q 263 888 231 867 q 319 940 304 914 q 349 1019 339 975 q 363 1046 351 1033 q 394 1057 369 1057 q 425 1046 418 1057 q 439 1013 439 1033 q 433 975 439 997 q 321 815 407 867 q 275 799 293 799 q 249 808 260 799 z "},"":{"ha":606,"x_min":-15,"x_max":586,"o":"m 251 -7 q 53 238 93 31 l 49 268 l 35 267 l 31 267 q -15 311 -8 267 l -15 318 q 26 360 -11 349 q 46 370 42 363 q 53 406 50 378 q 151 660 71 549 q 240 738 192 711 q 338 764 288 764 q 463 710 406 764 q 546 442 544 631 q 549 368 546 394 q 550 360 550 364 q 543 342 550 351 q 518 322 535 325 q 436 318 501 318 q 199 300 324 318 q 153 292 164 294 q 142 282 142 290 q 143 269 142 278 q 239 96 163 136 q 297 83 254 83 q 356 94 329 83 q 500 214 407 106 q 540 238 521 238 q 560 233 550 238 q 586 196 586 221 q 568 153 586 175 q 394 10 479 49 q 286 -10 339 -10 q 251 -7 268 -10 m 228 396 q 372 408 294 404 l 453 414 l 453 439 q 421 610 453 531 q 364 667 397 650 q 336 671 351 671 q 289 660 314 671 q 203 574 242 632 q 147 404 161 494 q 146 389 146 393 q 149 385 146 385 q 154 386 150 385 q 228 396 169 389 m 214 794 q 194 857 194 817 q 231 972 194 911 q 335 1038 271 1035 l 350 1038 q 386 1029 372 1038 q 469 913 450 999 q 475 861 475 885 q 456 797 475 819 q 426 786 450 786 q 379 839 378 786 q 381 854 379 846 l 381 869 q 374 908 381 893 q 342 946 360 946 q 336 944 339 946 q 299 903 315 936 q 290 864 290 889 l 290 847 q 286 807 290 818 q 269 789 282 796 q 244 782 257 782 q 214 794 228 782 z "},"":{"ha":606,"x_min":-15,"x_max":586,"o":"m 251 -7 q 53 238 93 31 l 49 268 l 35 267 l 31 267 q -15 311 -8 267 l -15 318 q 26 360 -11 349 q 46 370 42 363 q 53 406 50 378 q 151 660 71 549 q 240 738 192 711 q 338 764 288 764 q 463 710 406 764 q 546 442 544 631 q 549 368 546 394 q 550 360 550 364 q 543 342 550 351 q 518 322 535 325 q 436 318 501 318 q 199 300 324 318 q 153 292 164 294 q 142 282 142 290 q 143 269 142 278 q 239 96 163 136 q 297 83 254 83 q 356 94 329 83 q 500 214 407 106 q 540 238 521 238 q 560 233 550 238 q 586 196 586 221 q 568 153 586 175 q 394 10 479 49 q 286 -10 339 -10 q 251 -7 268 -10 m 228 396 q 372 408 294 404 l 453 414 l 453 439 q 421 610 453 531 q 364 667 397 650 q 336 671 351 671 q 289 660 314 671 q 203 574 242 632 q 147 404 161 494 q 146 389 146 393 q 149 385 146 385 q 154 386 150 385 q 228 396 169 389 m 251 793 q 225 840 225 814 q 256 892 225 871 q 278 897 267 897 q 317 881 300 897 q 335 840 335 864 q 317 801 335 819 q 279 783 300 783 q 251 793 267 783 m 382 793 q 356 840 356 814 q 386 892 356 871 q 408 897 397 897 q 447 881 429 897 q 464 840 464 864 q 447 801 464 819 q 410 783 431 783 q 382 793 396 783 z "},"":{"ha":249,"x_min":0,"x_max":208,"o":"m 118 663 q 6 822 33 714 q 0 858 0 844 q 14 892 0 881 q 46 904 24 904 q 76 892 69 904 q 92 867 89 881 q 119 788 100 821 q 178 735 136 760 q 208 690 208 714 q 190 656 208 672 q 164 646 179 646 q 118 663 146 646 m 117 6 q 98 21 104 10 q 90 78 92 32 q 89 236 89 124 l 89 386 q 90 537 89 493 q 97 592 92 581 q 113 608 101 604 q 136 617 125 617 q 157 611 146 617 q 175 598 169 608 q 182 542 181 588 q 183 383 183 496 l 183 308 q 183 144 183 204 q 181 56 182 83 q 178 26 179 29 q 136 1 161 1 q 117 6 126 1 z "},"":{"ha":229,"x_min":40,"x_max":249,"o":"m 58 656 q 40 689 40 671 q 72 735 40 714 q 129 788 114 760 q 158 867 149 821 q 172 892 161 881 q 204 904 179 904 q 235 892 228 904 q 249 860 249 881 q 243 822 249 846 q 131 663 217 713 q 85 646 103 646 q 58 656 69 646 m 97 6 q 78 21 85 10 q 71 78 72 32 q 69 236 69 124 l 69 307 q 71 514 69 454 q 77 589 72 574 q 94 608 82 604 q 118 617 106 617 q 139 611 126 617 q 156 598 150 608 q 163 542 161 588 q 164 386 164 497 l 164 308 q 163 144 164 204 q 161 56 163 83 q 158 26 160 29 q 117 1 142 1 q 97 6 107 1 z "},"":{"ha":300,"x_min":11,"x_max":292,"o":"m 31 603 q 11 665 11 625 q 47 781 11 719 q 151 846 88 843 l 167 846 q 203 838 189 846 q 286 721 267 807 q 292 669 292 693 q 272 606 292 628 q 243 594 267 594 q 196 647 194 594 q 197 663 196 654 l 197 678 q 190 717 197 701 q 158 754 176 754 q 153 753 156 754 q 115 711 132 744 q 107 672 107 697 l 107 656 q 103 615 107 626 q 86 597 99 604 q 61 590 74 590 q 31 603 44 590 m 132 6 q 113 21 119 10 q 106 78 107 32 q 104 236 104 124 l 104 307 q 106 514 104 454 q 112 589 107 574 q 129 608 117 604 q 153 617 142 617 q 174 611 163 617 q 190 598 185 608 q 197 542 196 588 q 199 386 199 497 l 199 308 q 198 144 199 204 q 197 56 197 83 q 194 26 196 29 q 151 1 178 1 q 132 6 142 1 z "},"":{"ha":258,"x_min":11,"x_max":250,"o":"m 38 633 q 11 682 11 654 q 42 732 11 713 q 65 738 53 738 q 103 722 86 738 q 121 682 121 706 q 103 642 121 660 q 65 625 86 625 q 38 633 53 625 m 168 633 q 142 682 142 654 q 172 732 142 713 q 194 738 183 738 q 233 722 217 738 q 250 682 250 706 q 233 642 250 660 q 196 625 217 625 q 168 633 182 625 m 101 6 q 83 21 89 10 q 75 78 76 32 q 74 236 74 124 l 74 386 q 75 537 74 493 q 81 592 76 581 q 97 608 86 604 q 121 617 110 617 q 142 611 131 617 q 160 598 154 608 q 167 542 165 588 q 168 383 168 496 l 168 308 q 167 144 168 204 q 165 56 167 83 q 163 26 164 29 q 121 1 146 1 q 101 6 111 1 z "},"":{"ha":490,"x_min":14,"x_max":451,"o":"m 143 96 q 22 229 51 125 q 14 300 14 263 q 46 450 14 374 q 154 588 85 533 q 300 649 224 642 l 335 651 l 322 675 q 300 706 310 706 q 274 688 292 706 q 229 665 254 665 q 199 678 207 665 q 185 710 185 688 q 203 747 185 735 q 217 767 217 763 q 215 768 217 768 q 208 769 213 769 q 181 761 197 769 q 161 756 171 756 q 119 786 135 756 q 115 804 115 796 q 150 851 115 832 q 206 861 174 861 q 285 846 247 861 l 300 838 l 315 853 q 363 876 340 876 q 393 861 379 876 q 406 829 406 854 q 388 792 406 804 l 371 774 l 385 754 q 438 629 417 706 q 451 517 451 588 l 451 489 q 425 319 451 394 q 244 101 367 150 q 179 92 214 92 q 143 96 158 92 m 228 196 q 346 382 308 239 q 357 485 356 411 l 358 556 l 318 554 q 256 542 275 554 q 115 365 151 486 q 108 301 108 335 q 115 246 108 268 q 185 185 139 185 q 228 196 204 185 z "},"":{"ha":610,"x_min":47,"x_max":586,"o":"m 456 25 q 442 53 442 33 q 451 101 442 69 q 492 357 492 228 q 450 579 492 499 q 381 649 417 649 q 350 638 365 649 q 211 197 246 549 q 201 83 204 110 q 193 51 197 57 q 151 28 175 28 q 115 42 132 28 q 67 191 86 74 q 47 436 47 308 q 50 518 47 478 q 94 732 60 708 q 124 743 108 743 q 168 714 153 743 q 169 701 169 707 q 164 676 169 692 q 142 476 147 615 q 140 422 140 443 q 142 400 140 401 q 147 417 143 401 q 158 456 151 433 q 250 665 193 594 q 322 725 282 706 q 379 736 333 736 l 386 736 q 440 726 418 736 q 488 688 463 715 q 561 551 536 638 q 586 360 586 464 q 565 168 586 267 q 528 38 544 78 q 486 15 511 15 q 456 25 469 15 m 326 790 q 263 818 304 797 q 199 840 222 840 q 171 831 176 840 q 121 793 144 793 q 74 838 78 793 q 75 849 74 843 q 117 910 81 885 q 197 935 154 935 q 306 901 242 935 q 365 879 344 879 q 392 888 379 879 q 418 915 408 894 q 461 950 436 950 q 493 936 478 950 q 507 913 507 928 l 507 904 q 469 829 507 869 q 401 790 440 800 q 364 785 382 785 q 326 790 346 785 z "},"":{"ha":674,"x_min":14,"x_max":801,"o":"m 240 -14 q 75 157 117 21 q 65 242 65 193 q 76 340 65 294 l 85 378 l 65 397 q 14 526 14 454 q 53 651 14 590 q 149 739 93 710 q 267 768 206 768 q 447 694 363 768 q 533 574 501 647 q 558 535 550 535 q 564 536 561 535 q 706 565 617 554 q 753 569 739 569 q 771 567 765 569 q 801 522 801 549 q 779 483 801 500 q 717 471 765 478 q 581 442 625 457 q 576 406 576 444 l 576 374 q 554 208 576 268 q 365 -7 500 47 q 288 -18 328 -18 q 240 -14 261 -18 m 350 90 q 476 278 446 139 q 483 375 483 331 q 482 400 483 396 l 481 400 q 436 388 472 400 q 217 339 313 339 l 174 340 l 168 322 q 161 249 161 306 q 163 197 161 211 q 169 169 164 182 q 219 101 186 125 q 290 76 251 76 q 350 90 319 76 m 281 440 q 460 500 399 471 l 460 503 q 414 594 460 521 q 325 663 376 642 q 265 672 304 672 q 201 660 215 672 q 133 601 158 638 q 108 528 108 565 q 115 492 108 508 q 126 474 125 474 q 143 494 129 474 q 214 567 176 546 q 246 575 233 575 q 276 563 267 575 q 289 532 289 553 q 261 486 289 501 q 218 436 218 449 q 229 433 218 433 q 281 440 247 433 m 279 825 q 167 985 194 876 q 161 1021 161 1007 q 175 1056 161 1043 q 207 1067 185 1067 q 238 1056 231 1067 q 253 1029 250 1043 q 281 950 261 985 q 339 897 297 924 q 369 853 369 876 q 351 818 369 835 q 325 808 340 808 q 279 825 307 808 z "},"":{"ha":674,"x_min":14,"x_max":801,"o":"m 240 -14 q 75 157 117 21 q 65 242 65 193 q 76 340 65 294 l 85 378 l 65 397 q 14 526 14 454 q 53 651 14 590 q 149 739 93 710 q 267 768 206 768 q 447 694 363 768 q 533 574 501 647 q 558 535 550 535 q 564 536 561 535 q 706 565 617 554 q 753 569 739 569 q 771 567 765 569 q 801 522 801 549 q 779 483 801 500 q 717 471 765 478 q 581 442 625 457 q 576 406 576 444 l 576 374 q 554 208 576 268 q 365 -7 500 47 q 288 -18 328 -18 q 240 -14 261 -18 m 350 90 q 476 278 446 139 q 483 375 483 331 q 482 400 483 396 l 481 400 q 436 388 472 400 q 217 339 313 339 l 174 340 l 168 322 q 161 249 161 306 q 163 197 161 211 q 169 169 164 182 q 219 101 186 125 q 290 76 251 76 q 350 90 319 76 m 281 440 q 460 500 399 471 l 460 503 q 414 594 460 521 q 325 663 376 642 q 265 672 304 672 q 201 660 215 672 q 133 601 158 638 q 108 528 108 565 q 115 492 108 508 q 126 474 125 474 q 143 494 129 474 q 214 567 176 546 q 246 575 233 575 q 276 563 267 575 q 289 532 289 553 q 261 486 289 501 q 218 436 218 449 q 229 433 218 433 q 281 440 247 433 m 217 819 q 199 853 199 835 q 231 899 199 878 q 288 951 272 925 q 317 1031 307 986 q 331 1057 319 1044 q 363 1068 338 1068 q 393 1057 386 1068 q 407 1024 407 1044 q 401 986 407 1008 q 289 826 375 878 q 243 810 261 810 q 217 819 228 810 z "},"":{"ha":674,"x_min":14,"x_max":801,"o":"m 240 -14 q 75 157 117 21 q 65 242 65 193 q 76 340 65 294 l 85 378 l 65 397 q 14 526 14 454 q 53 651 14 590 q 149 739 93 710 q 267 768 206 768 q 447 694 363 768 q 533 574 501 647 q 558 535 550 535 q 564 536 561 535 q 706 565 617 554 q 753 569 739 569 q 771 567 765 569 q 801 522 801 549 q 779 483 801 500 q 717 471 765 478 q 581 442 625 457 q 576 406 576 444 l 576 374 q 554 208 576 268 q 365 -7 500 47 q 288 -18 328 -18 q 240 -14 261 -18 m 350 90 q 476 278 446 139 q 483 375 483 331 q 482 400 483 396 l 481 400 q 436 388 472 400 q 217 339 313 339 l 174 340 l 168 322 q 161 249 161 306 q 163 197 161 211 q 169 169 164 182 q 219 101 186 125 q 290 76 251 76 q 350 90 319 76 m 281 440 q 460 500 399 471 l 460 503 q 414 594 460 521 q 325 663 376 642 q 265 672 304 672 q 201 660 215 672 q 133 601 158 638 q 108 528 108 565 q 115 492 108 508 q 126 474 125 474 q 143 494 129 474 q 214 567 176 546 q 246 575 233 575 q 276 563 267 575 q 289 532 289 553 q 261 486 289 501 q 218 436 218 449 q 229 433 218 433 q 281 440 247 433 m 164 811 q 144 874 144 833 q 181 989 144 928 q 285 1054 221 1051 l 300 1054 q 336 1046 322 1054 q 419 929 400 1015 q 425 878 425 901 q 406 814 425 836 q 376 803 400 803 q 329 856 328 803 q 331 871 329 863 l 331 886 q 324 925 331 910 q 292 963 310 963 q 286 961 289 963 q 249 919 265 953 q 240 881 240 906 l 240 864 q 236 824 240 835 q 219 806 232 813 q 194 799 207 799 q 164 811 178 799 z "},"":{"ha":674,"x_min":14,"x_max":801,"o":"m 240 -14 q 75 157 117 21 q 65 242 65 193 q 76 340 65 294 l 85 378 l 65 397 q 14 526 14 454 q 53 651 14 590 q 149 739 93 710 q 267 768 206 768 q 447 694 363 768 q 533 574 501 647 q 558 535 550 535 q 564 536 561 535 q 706 565 617 554 q 753 569 739 569 q 771 567 765 569 q 801 522 801 549 q 779 483 801 500 q 717 471 765 478 q 581 442 625 457 q 576 406 576 444 l 576 374 q 554 208 576 268 q 365 -7 500 47 q 288 -18 328 -18 q 240 -14 261 -18 m 350 90 q 476 278 446 139 q 483 375 483 331 q 482 400 483 396 l 481 400 q 436 388 472 400 q 217 339 313 339 l 174 340 l 168 322 q 161 249 161 306 q 163 197 161 211 q 169 169 164 182 q 219 101 186 125 q 290 76 251 76 q 350 90 319 76 m 281 440 q 460 500 399 471 l 460 503 q 414 594 460 521 q 325 663 376 642 q 265 672 304 672 q 201 660 215 672 q 133 601 158 638 q 108 528 108 565 q 115 492 108 508 q 126 474 125 474 q 143 494 129 474 q 214 567 176 546 q 246 575 233 575 q 276 563 267 575 q 289 532 289 553 q 261 486 289 501 q 218 436 218 449 q 229 433 218 433 q 281 440 247 433 m 335 807 q 271 835 313 814 q 207 857 231 857 q 179 847 185 857 q 129 810 153 810 q 82 854 86 810 q 83 865 82 860 q 126 926 89 901 q 206 951 163 951 q 314 918 250 951 q 374 896 353 896 q 400 904 388 896 q 426 932 417 911 q 469 967 444 967 q 501 953 486 967 q 515 929 515 944 l 515 921 q 478 846 515 886 q 410 807 449 817 q 372 801 390 801 q 335 807 354 801 z "},"":{"ha":674,"x_min":14,"x_max":801,"o":"m 240 -14 q 75 157 117 21 q 65 242 65 193 q 76 340 65 294 l 85 378 l 65 397 q 14 526 14 454 q 53 651 14 590 q 149 739 93 710 q 267 768 206 768 q 447 694 363 768 q 533 574 501 647 q 558 535 550 535 q 564 536 561 535 q 706 565 617 554 q 753 569 739 569 q 771 567 765 569 q 801 522 801 549 q 779 483 801 500 q 717 471 765 478 q 581 442 625 457 q 576 406 576 444 l 576 374 q 554 208 576 268 q 365 -7 500 47 q 288 -18 328 -18 q 240 -14 261 -18 m 350 90 q 476 278 446 139 q 483 375 483 331 q 482 400 483 396 l 481 400 q 436 388 472 400 q 217 339 313 339 l 174 340 l 168 322 q 161 249 161 306 q 163 197 161 211 q 169 169 164 182 q 219 101 186 125 q 290 76 251 76 q 350 90 319 76 m 281 440 q 460 500 399 471 l 460 503 q 414 594 460 521 q 325 663 376 642 q 265 672 304 672 q 201 660 215 672 q 133 601 158 638 q 108 528 108 565 q 115 492 108 508 q 126 474 125 474 q 143 494 129 474 q 214 567 176 546 q 246 575 233 575 q 276 563 267 575 q 289 532 289 553 q 261 486 289 501 q 218 436 218 449 q 229 433 218 433 q 281 440 247 433 m 193 822 q 167 869 167 843 q 197 921 167 900 q 219 926 208 926 q 259 910 242 926 q 276 869 276 893 q 259 831 276 849 q 221 813 242 813 q 193 822 208 813 m 324 822 q 297 869 297 843 q 328 921 297 900 q 350 926 339 926 q 388 910 371 926 q 406 869 406 893 q 389 831 406 849 q 351 813 372 813 q 324 822 338 813 z "},"":{"ha":451,"x_min":0,"x_max":394,"o":"m 178 332 q 156 374 156 349 q 164 399 156 388 q 201 418 181 418 q 233 404 218 418 q 247 374 247 389 q 233 340 247 354 q 200 326 219 326 q 178 332 189 326 m 151 472 q 49 475 74 474 q 21 481 25 476 q 0 521 0 496 q 22 558 0 549 q 44 565 29 564 q 107 567 58 567 q 274 563 182 565 l 367 561 l 379 549 q 394 515 394 533 q 388 492 394 504 q 326 469 381 469 l 311 469 q 151 472 278 469 m 178 619 q 156 661 156 636 q 164 686 156 675 q 201 706 181 706 q 233 692 218 706 q 247 661 247 676 q 233 628 247 642 q 200 614 219 614 q 178 619 189 614 z "},"":{"ha":576,"x_min":22,"x_max":599,"o":"m 135 172 q 122 194 122 181 q 124 207 122 199 q 128 235 126 226 l 128 238 q 110 257 128 246 q 52 327 72 283 q 32 422 32 371 q 35 456 32 439 q 49 517 40 489 l 58 544 l 49 560 q 22 650 22 603 q 83 790 22 724 q 257 865 163 865 q 294 863 276 865 q 332 858 326 858 l 333 858 q 350 888 340 858 q 368 926 361 917 q 403 940 383 940 q 435 928 419 940 q 447 899 447 917 q 436 849 447 882 l 422 807 l 440 785 q 497 692 478 739 l 506 667 l 518 678 q 554 692 536 692 q 592 671 576 692 q 599 651 599 661 q 553 583 599 628 l 524 553 l 519 515 q 349 244 499 324 q 244 217 286 217 l 221 217 l 215 197 q 167 158 203 158 q 135 172 144 158 m 307 321 q 393 408 360 349 q 413 455 404 431 q 421 486 421 479 l 421 488 l 419 488 q 401 483 415 488 q 343 467 382 476 l 301 456 l 279 386 q 254 310 258 324 q 253 306 253 307 q 257 304 253 304 q 267 306 260 304 q 307 321 283 310 m 185 400 q 201 457 201 444 q 190 465 201 468 q 163 474 186 465 q 138 481 140 481 q 131 461 133 481 q 128 422 128 442 l 128 408 q 153 339 131 364 q 158 335 156 335 q 167 348 161 335 q 185 400 172 361 m 244 575 q 255 606 251 596 q 258 619 258 617 q 257 621 258 621 q 251 619 256 621 q 232 614 240 614 q 199 590 221 610 q 178 564 178 569 q 197 553 178 561 q 225 546 217 546 l 226 546 q 244 575 235 546 m 397 576 q 416 588 408 582 q 424 594 424 593 l 424 599 q 400 682 424 621 q 389 699 392 699 q 386 697 388 699 q 376 672 383 693 q 360 626 369 651 q 345 580 351 600 q 339 557 339 560 q 342 556 339 556 q 397 576 353 556 m 183 686 q 229 699 208 699 q 264 686 250 699 q 278 675 278 675 q 294 724 278 675 l 311 772 l 300 775 q 258 778 283 778 q 200 765 217 778 q 118 671 131 733 q 115 650 115 657 q 119 642 115 642 q 139 656 125 642 q 183 686 160 674 z "},"":{"ha":625,"x_min":47,"x_max":585,"o":"m 517 0 q 454 106 486 15 l 442 143 l 417 111 q 318 26 372 53 q 290 16 301 18 q 251 14 279 14 q 212 16 222 14 q 186 26 201 18 q 72 192 108 69 q 47 411 47 285 q 63 615 47 508 q 111 763 79 758 q 132 768 122 768 q 153 763 142 768 q 176 717 176 746 q 172 694 176 706 q 144 515 157 636 q 142 425 142 474 q 150 271 142 335 q 244 108 179 124 l 251 108 q 326 151 285 108 q 400 265 367 193 l 419 306 l 417 367 q 415 428 415 394 q 426 613 415 524 q 482 756 443 722 q 517 771 500 771 q 542 764 529 771 q 572 732 561 756 q 585 654 585 714 l 585 636 q 532 342 585 507 l 514 286 l 518 249 q 561 92 532 154 q 578 39 578 60 q 554 3 578 14 q 532 -3 543 -3 q 517 0 525 -3 m 326 808 q 214 968 242 860 q 208 1004 208 990 q 222 1039 208 1026 q 254 1050 232 1050 q 285 1039 278 1050 q 300 1013 297 1026 q 328 933 308 968 q 386 881 344 907 q 417 836 417 860 q 399 801 417 818 q 372 792 388 792 q 326 808 354 792 z "},"":{"ha":625,"x_min":47,"x_max":585,"o":"m 517 0 q 454 106 486 15 l 442 143 l 417 111 q 318 26 372 53 q 290 16 301 18 q 251 14 279 14 q 212 16 222 14 q 186 26 201 18 q 72 192 108 69 q 47 411 47 285 q 63 615 47 508 q 111 763 79 758 q 132 768 122 768 q 153 763 142 768 q 176 717 176 746 q 172 694 176 706 q 144 515 157 636 q 142 425 142 474 q 150 271 142 335 q 244 108 179 124 l 251 108 q 326 151 285 108 q 400 265 367 193 l 419 306 l 417 367 q 415 428 415 394 q 426 613 415 524 q 482 756 443 722 q 517 771 500 771 q 542 764 529 771 q 572 732 561 756 q 585 654 585 714 l 585 636 q 532 342 585 507 l 514 286 l 518 249 q 561 92 532 154 q 578 39 578 60 q 554 3 578 14 q 532 -3 543 -3 q 517 0 525 -3 m 254 783 q 236 817 236 799 q 268 863 236 842 q 325 915 310 889 q 354 994 344 950 q 368 1021 357 1008 q 400 1032 375 1032 q 431 1021 424 1032 q 444 988 444 1008 q 439 950 444 972 q 326 790 413 842 q 281 774 299 774 q 254 783 265 774 z "},"":{"ha":625,"x_min":47,"x_max":585,"o":"m 517 0 q 454 106 486 15 l 442 143 l 417 111 q 318 26 372 53 q 290 16 301 18 q 251 14 279 14 q 212 16 222 14 q 186 26 201 18 q 72 192 108 69 q 47 411 47 285 q 63 615 47 508 q 111 763 79 758 q 132 768 122 768 q 153 763 142 768 q 176 717 176 746 q 172 694 176 706 q 144 515 157 636 q 142 425 142 474 q 150 271 142 335 q 244 108 179 124 l 251 108 q 326 151 285 108 q 400 265 367 193 l 419 306 l 417 367 q 415 428 415 394 q 426 613 415 524 q 482 756 443 722 q 517 771 500 771 q 542 764 529 771 q 572 732 561 756 q 585 654 585 714 l 585 636 q 532 342 585 507 l 514 286 l 518 249 q 561 92 532 154 q 578 39 578 60 q 554 3 578 14 q 532 -3 543 -3 q 517 0 525 -3 m 196 804 q 176 867 176 826 q 213 982 176 921 q 317 1047 253 1044 l 332 1047 q 368 1039 354 1047 q 451 922 432 1008 q 457 871 457 894 q 438 807 457 829 q 408 796 432 796 q 361 849 360 796 q 363 864 361 856 l 363 879 q 356 918 363 903 q 324 956 342 956 q 318 954 321 956 q 281 913 297 946 q 272 874 272 899 l 272 857 q 268 817 272 828 q 251 799 264 806 q 226 792 239 792 q 196 804 210 792 z "},"":{"ha":625,"x_min":47,"x_max":585,"o":"m 517 0 q 454 106 486 15 l 442 143 l 417 111 q 318 26 372 53 q 290 16 301 18 q 251 14 279 14 q 212 16 222 14 q 186 26 201 18 q 72 192 108 69 q 47 411 47 285 q 63 615 47 508 q 111 763 79 758 q 132 768 122 768 q 153 763 142 768 q 176 717 176 746 q 172 694 176 706 q 144 515 157 636 q 142 425 142 474 q 150 271 142 335 q 244 108 179 124 l 251 108 q 326 151 285 108 q 400 265 367 193 l 419 306 l 417 367 q 415 428 415 394 q 426 613 415 524 q 482 756 443 722 q 517 771 500 771 q 542 764 529 771 q 572 732 561 756 q 585 654 585 714 l 585 636 q 532 342 585 507 l 514 286 l 518 249 q 561 92 532 154 q 578 39 578 60 q 554 3 578 14 q 532 -3 543 -3 q 517 0 525 -3 m 221 813 q 194 860 194 833 q 225 911 194 890 q 247 917 236 917 q 287 900 269 917 q 304 860 304 883 q 287 821 304 839 q 249 803 269 803 q 221 813 236 803 m 351 813 q 325 860 325 833 q 356 911 325 890 q 378 917 367 917 q 416 900 399 917 q 433 860 433 883 q 417 821 433 839 q 379 803 400 803 q 351 813 365 803 z "},"":{"ha":585,"x_min":44,"x_max":546,"o":"m 208 7 q 83 100 128 29 q 69 140 69 122 q 75 161 69 151 q 114 183 90 183 q 140 175 128 183 q 164 144 151 167 q 265 89 193 90 l 268 89 q 363 119 322 89 q 421 201 404 150 q 431 289 431 224 q 432 333 432 315 q 431 351 432 350 q 421 343 429 351 q 400 322 413 335 q 242 249 326 249 l 232 249 q 96 331 146 253 q 56 421 68 372 q 44 544 44 469 q 56 678 44 619 q 88 757 68 738 q 119 767 94 767 q 163 738 156 767 q 167 725 167 732 q 158 693 167 715 q 138 535 138 617 q 147 442 138 482 q 224 339 171 356 q 239 338 231 338 q 375 440 301 338 q 408 500 401 476 q 414 586 414 524 q 438 721 414 696 q 483 749 461 749 q 528 725 504 749 q 546 658 546 703 q 521 526 546 604 l 510 497 l 519 407 q 525 294 525 343 q 507 162 525 213 q 449 71 489 111 q 333 7 400 21 q 269 1 306 1 q 208 7 233 1 m 250 763 q 232 796 232 778 q 264 842 232 821 q 321 894 306 868 q 350 974 340 929 q 364 1000 353 988 q 396 1011 371 1011 q 426 1000 419 1011 q 440 967 440 988 q 435 929 440 951 q 322 769 408 821 q 276 753 294 753 q 250 763 261 753 z "},"":{"ha":482,"x_min":71,"x_max":456,"o":"m 110 76 q 89 90 100 79 q 75 122 78 101 q 72 486 75 139 q 71 708 71 631 q 72 809 71 781 q 78 846 74 838 q 90 858 83 854 q 118 865 101 865 q 143 860 133 865 q 160 836 156 851 q 164 783 164 821 q 165 745 164 754 q 168 736 165 736 l 172 738 q 253 751 214 751 q 389 694 332 751 q 456 517 456 632 q 390 313 456 404 q 211 207 306 207 q 182 210 196 207 l 168 213 l 168 160 q 167 113 168 124 q 160 96 165 101 q 124 75 136 75 l 122 75 q 110 76 118 75 m 249 310 q 353 449 322 346 q 364 518 364 482 q 353 581 364 553 q 249 657 324 657 q 175 631 206 657 q 169 613 171 628 q 167 538 167 599 l 167 453 l 168 319 l 185 308 q 213 299 199 299 q 249 310 228 299 z "},"":{"ha":585,"x_min":44,"x_max":546,"o":"m 208 7 q 83 100 128 29 q 69 140 69 122 q 75 161 69 151 q 114 183 90 183 q 140 175 128 183 q 164 144 151 167 q 265 89 193 90 l 268 89 q 363 119 322 89 q 421 201 404 150 q 431 289 431 224 q 432 333 432 315 q 431 351 432 350 q 421 343 429 351 q 400 322 413 335 q 242 249 326 249 l 232 249 q 96 331 146 253 q 56 421 68 372 q 44 544 44 469 q 56 678 44 619 q 88 757 68 738 q 119 767 94 767 q 163 738 156 767 q 167 725 167 732 q 158 693 167 715 q 138 535 138 617 q 147 442 138 482 q 224 339 171 356 q 239 338 231 338 q 375 440 301 338 q 408 500 401 476 q 414 586 414 524 q 438 721 414 696 q 483 749 461 749 q 528 725 504 749 q 546 658 546 703 q 521 526 546 604 l 510 497 l 519 407 q 525 294 525 343 q 507 162 525 213 q 449 71 489 111 q 333 7 400 21 q 269 1 306 1 q 208 7 233 1 m 224 788 q 197 835 197 808 q 228 886 197 865 q 250 892 239 892 q 290 875 272 892 q 307 835 307 858 q 290 796 307 814 q 251 778 272 778 q 224 788 239 778 m 354 788 q 328 835 328 808 q 358 886 328 865 q 381 892 369 892 q 419 875 401 892 q 436 835 436 858 q 419 796 436 814 q 382 778 403 778 q 354 788 368 778 z "},"":{"ha":222,"x_min":63,"x_max":157,"o":"m 90 6 q 72 21 78 10 q 64 78 65 32 q 63 236 63 124 l 63 307 q 64 514 63 454 q 70 589 65 574 q 88 608 75 604 q 111 617 99 617 q 132 611 119 617 q 149 598 143 608 q 156 542 154 588 q 157 386 157 497 l 157 308 q 156 144 157 204 q 154 56 156 83 q 151 26 153 29 q 110 1 135 1 q 90 6 100 1 z "},"":{"ha":208,"x_min":0,"x_max":208,"o":"m 118 797 q 6 957 33 849 q 0 993 0 979 q 14 1028 0 1015 q 46 1039 24 1039 q 76 1028 69 1039 q 92 1001 89 1015 q 119 922 100 957 q 178 869 136 896 q 208 825 208 849 q 190 790 208 807 q 164 781 179 781 q 118 797 146 781 z "},"":{"ha":208,"x_min":0,"x_max":208,"o":"m 18 790 q 0 824 0 806 q 32 869 0 849 q 89 922 74 896 q 118 1001 108 957 q 132 1028 121 1015 q 164 1039 139 1039 q 194 1028 188 1039 q 208 994 208 1015 q 203 957 208 979 q 90 797 176 849 q 44 781 63 781 q 18 790 29 781 z "},"":{"ha":281,"x_min":0,"x_max":281,"o":"m 19 794 q 0 857 0 817 q 36 972 0 911 q 140 1038 76 1035 l 156 1038 q 192 1029 178 1038 q 275 913 256 999 q 281 861 281 885 q 261 797 281 819 q 232 786 256 786 q 185 839 183 786 q 186 854 185 846 l 186 869 q 179 908 186 893 q 147 946 165 946 q 142 944 144 946 q 104 903 121 936 q 96 864 96 889 l 96 847 q 92 807 96 818 q 75 789 88 796 q 50 782 63 782 q 19 794 33 782 z "},"":{"ha":433,"x_min":0,"x_max":433,"o":"m 253 832 q 189 860 231 839 q 125 882 149 882 q 97 872 103 882 q 47 835 71 835 q 0 879 4 835 q 1 890 0 885 q 44 951 7 926 q 124 976 81 976 q 232 943 168 976 q 292 921 271 921 q 318 929 306 921 q 344 957 335 936 q 388 992 363 992 q 419 978 404 992 q 433 954 433 969 l 433 946 q 396 871 433 911 q 328 832 367 842 q 290 826 308 826 q 253 832 272 826 z "},"":{"ha":328,"x_min":0,"x_max":328,"o":"m 28 865 q 0 908 0 882 q 7 932 0 921 q 38 953 14 949 q 160 957 63 957 q 290 954 256 957 q 326 917 318 946 q 328 908 328 913 q 306 869 328 886 q 278 863 300 864 q 164 863 256 863 q 28 865 58 863 z "},"":{"ha":110,"x_min":0,"x_max":110,"o":"m 26 863 q 0 910 0 883 q 31 961 0 940 q 53 967 42 967 q 92 950 75 967 q 110 910 110 933 q 92 871 110 889 q 54 853 75 853 q 26 863 42 853 z "},"":{"ha":239,"x_min":0,"x_max":239,"o":"m 26 863 q 0 910 0 883 q 31 961 0 940 q 53 967 42 967 q 92 950 75 967 q 110 910 110 933 q 92 871 110 889 q 54 853 75 853 q 26 863 42 853 m 157 863 q 131 910 131 883 q 161 961 131 940 q 183 967 172 967 q 222 950 204 967 q 239 910 239 933 q 222 871 239 889 q 185 853 206 853 q 157 863 171 853 z "},"":{"ha":222,"x_min":0,"x_max":221,"o":"m 167 1007 q 208 963 194 989 q 221 910 221 938 q 192 832 221 867 q 111 797 163 797 l 110 797 q 75 801 92 797 q 3 888 19 825 q 0 910 0 899 q 22 976 0 944 q 79 1018 44 1008 q 107 1021 92 1021 q 167 1007 140 1021 m 126 910 q 118 925 126 921 q 110 929 114 929 q 101 925 107 929 q 93 911 93 918 q 101 896 93 903 q 110 889 106 889 q 118 893 113 889 q 126 910 126 900 z "},"":{"ha":282,"x_min":0,"x_max":282,"o":"m 88 790 q 24 855 47 810 q 0 951 0 900 q 4 990 0 971 q 50 1033 13 1033 q 96 975 97 1033 l 96 964 q 94 943 94 951 q 101 910 94 925 q 136 874 118 874 l 139 874 q 178 917 161 882 q 186 972 186 929 l 186 988 q 190 1015 186 1007 q 206 1029 194 1022 q 232 1038 219 1038 q 279 989 265 1038 q 282 964 282 978 q 265 882 282 925 q 219 815 247 839 q 140 782 185 782 l 125 782 q 88 790 101 782 z "},"":{"ha":208,"x_min":0,"x_max":208,"o":"m 53 -236 q 7 -204 19 -221 q 0 -176 0 -190 q 13 -147 0 -156 q 44 -132 28 -132 q 67 -137 56 -132 q 93 -146 82 -146 q 108 -140 103 -146 q 113 -133 113 -136 q 94 -125 113 -128 q 43 -47 43 -122 q 45 -17 43 -24 q 57 -3 47 -11 q 89 11 64 11 q 121 -3 113 11 q 135 -32 135 -17 l 135 -36 q 149 -43 135 -37 q 199 -87 181 -56 q 208 -126 208 -107 q 188 -189 208 -160 q 132 -232 167 -218 q 83 -240 107 -240 q 53 -236 65 -240 z "},"":{"ha":504,"x_min":0,"x_max":504,"o":"m 26 471 q 0 511 0 488 q 25 553 0 536 q 69 558 28 557 q 254 558 111 558 l 472 557 l 485 547 q 504 510 504 531 q 503 500 504 504 q 488 476 500 488 l 474 464 l 256 464 q 72 465 114 464 q 26 471 31 467 z "},"":{"ha":747,"x_min":0,"x_max":747,"o":"m 14 482 q 0 514 0 489 q 13 544 0 538 l 26 557 l 154 560 q 342 563 228 563 q 501 561 422 563 l 721 561 l 733 549 q 747 514 747 532 q 743 496 747 504 q 725 476 738 486 l 711 468 l 26 468 l 14 482 z "},"":{"ha":126,"x_min":0,"x_max":126,"o":"m 36 819 q 0 889 0 843 q 19 964 0 924 q 75 1015 40 1015 q 117 992 107 1015 q 122 971 122 982 q 111 939 122 957 l 100 918 l 110 908 q 126 868 126 890 q 114 832 126 849 q 68 811 96 811 q 36 819 51 811 z "},"":{"ha":126,"x_min":0,"x_max":126,"o":"m 24 817 q 3 857 3 836 q 14 888 3 865 l 26 908 l 17 917 q 0 960 0 936 q 11 993 0 978 q 57 1015 31 1015 q 89 1007 74 1015 q 126 936 126 983 q 107 863 126 903 q 51 811 85 811 q 24 817 35 811 z "},"":{"ha":126,"x_min":0,"x_max":126,"o":"m 24 -37 q 3 1 3 -19 q 14 33 3 13 l 26 54 l 17 63 q 0 104 0 81 q 11 139 0 122 q 58 161 31 161 q 89 153 74 161 q 126 82 126 129 q 107 8 126 49 q 51 -44 85 -44 q 24 -37 35 -44 z "},"":{"ha":260,"x_min":0,"x_max":260,"o":"m 36 819 q 0 889 0 843 q 19 964 0 924 q 75 1015 40 1015 q 117 992 107 1015 q 122 971 122 982 q 111 939 122 957 l 100 918 l 110 908 q 126 868 126 890 q 114 832 126 849 q 68 811 96 811 q 36 819 51 811 m 169 819 q 133 890 133 843 q 153 964 133 924 q 208 1015 174 1015 q 251 992 240 1015 q 257 972 257 982 q 244 939 257 957 l 233 918 l 243 908 q 260 867 260 890 q 249 832 260 849 q 201 811 229 811 q 169 819 185 811 z "},"":{"ha":260,"x_min":0,"x_max":260,"o":"m 24 817 q 3 857 3 836 q 14 888 3 865 l 26 908 l 17 917 q 0 960 0 936 q 11 993 0 978 q 57 1015 31 1015 q 89 1007 74 1015 q 126 936 126 983 q 107 863 126 903 q 51 811 85 811 q 24 817 35 811 m 157 817 q 138 857 138 836 q 149 888 138 865 l 160 908 l 150 917 q 133 958 133 935 q 146 993 133 978 q 192 1015 165 1015 q 224 1007 208 1015 q 260 936 260 983 q 240 863 260 903 q 185 811 221 811 q 157 817 168 811 z "},"":{"ha":260,"x_min":0,"x_max":260,"o":"m 24 -33 q 3 6 3 -15 q 14 38 3 14 l 26 57 l 17 67 q 0 108 0 85 q 11 143 0 126 q 58 164 31 164 q 89 157 74 164 q 126 86 126 133 q 107 13 126 53 q 51 -40 85 -40 q 24 -33 35 -40 m 157 -33 q 138 6 138 -15 q 149 38 138 14 l 160 57 l 150 67 q 133 107 133 85 q 146 143 133 126 q 193 164 165 164 q 224 157 208 164 q 260 86 260 133 q 240 13 260 53 q 185 -40 221 -40 q 157 -33 168 -40 z "},"":{"ha":433,"x_min":0,"x_max":432,"o":"m 168 -50 l 165 636 l 26 636 l 14 649 q 0 679 0 658 q 8 708 0 699 q 36 726 18 722 q 104 731 54 731 l 165 731 l 165 844 q 169 959 165 935 q 185 992 172 983 q 213 1001 196 1001 q 233 996 222 1001 q 256 969 251 992 q 260 853 260 947 l 263 732 l 328 733 l 354 733 q 404 728 392 733 q 425 710 417 724 q 432 688 432 697 q 425 664 432 676 q 401 644 418 649 q 331 639 385 640 l 263 638 l 260 294 q 258 85 260 161 q 256 -22 257 10 q 253 -57 254 -54 q 211 -78 236 -78 q 182 -64 194 -78 l 168 -50 z "},"":{"ha":433,"x_min":0,"x_max":432,"o":"m 168 -50 l 165 238 l 118 238 q 62 242 78 238 q 39 261 46 247 q 32 289 32 274 q 38 311 32 301 q 61 328 46 324 q 117 332 76 332 l 165 332 l 165 636 l 26 636 l 14 649 q 0 681 0 658 q 8 708 0 697 q 36 726 18 722 q 104 731 54 731 l 165 731 l 165 844 q 169 959 165 935 q 185 992 172 983 q 213 1001 196 1001 q 233 996 222 1001 q 256 969 251 992 q 260 853 260 947 l 263 732 l 328 733 l 354 733 q 404 728 392 733 q 425 710 417 724 q 432 688 432 697 q 425 664 432 676 q 401 644 418 649 q 331 639 385 640 l 263 638 l 260 332 l 367 332 l 379 321 q 397 288 397 306 q 392 267 397 278 q 367 244 383 250 q 308 238 351 238 l 260 238 l 260 100 q 256 -40 260 -14 q 238 -71 253 -67 q 214 -78 225 -78 q 182 -64 197 -78 l 168 -50 z "},"":{"ha":189,"x_min":0,"x_max":189,"o":"m 64 400 q 4 463 22 421 q 0 496 0 479 q 53 586 0 554 q 94 596 74 596 q 160 566 132 596 q 189 496 189 536 q 176 447 189 472 q 133 404 160 422 q 89 397 114 397 q 64 400 75 397 z "},"":{"ha":365,"x_min":0,"x_max":365,"o":"m 26 -3 q 0 46 0 18 q 31 96 0 75 q 54 101 42 101 q 92 85 75 101 q 110 46 110 69 q 92 6 110 24 q 54 -11 75 -11 q 26 -3 42 -11 m 157 -3 q 131 46 131 18 q 161 96 131 75 q 183 101 172 101 q 222 85 206 101 q 239 46 239 69 q 222 6 239 24 q 185 -11 206 -11 q 157 -3 171 -11 m 282 -3 q 256 46 256 18 q 288 96 256 75 q 310 101 299 101 q 348 85 331 101 q 365 46 365 69 q 348 6 365 24 q 310 -11 331 -11 q 282 -3 297 -11 z "},"":{"ha":185,"x_min":0,"x_max":185,"o":"m 108 357 q 90 371 96 363 q 1 510 36 447 q 0 519 0 515 q 56 589 0 546 q 112 635 99 626 q 140 643 125 643 q 185 599 179 643 q 181 581 185 589 q 143 540 174 567 q 119 521 129 529 q 110 511 110 513 q 139 464 110 511 q 171 408 167 419 l 171 403 q 168 385 171 394 q 124 354 151 354 q 108 357 117 354 z "},"":{"ha":185,"x_min":0,"x_max":185,"o":"m 40 357 q 13 400 13 375 q 17 418 13 410 q 49 471 25 433 q 67 499 60 488 q 75 511 75 510 q 65 521 75 513 q 42 540 56 529 q 4 581 11 567 q 0 599 0 589 q 13 629 0 615 q 44 643 25 643 q 73 635 60 643 q 129 589 86 626 q 185 519 185 544 q 183 511 185 515 q 86 363 140 433 q 58 354 72 354 q 40 357 49 354 z "},"":{"ha":431,"x_min":0,"x_max":431,"o":"m 22 -112 q 0 -74 0 -96 q 13 -29 0 -71 q 49 85 26 13 q 103 252 72 158 q 168 453 133 346 q 339 982 321 926 q 389 1017 354 1017 l 394 1017 q 431 981 421 1008 q 423 947 431 975 q 397 860 415 919 q 346 700 378 800 q 265 451 314 600 q 181 188 219 307 q 118 -3 142 69 q 92 -82 94 -76 q 46 -118 75 -118 q 22 -112 33 -118 z "},"":{"ha":726,"x_min":0,"x_max":726,"o":"m 224 -18 q 206 17 213 -7 q 193 44 199 40 q 161 46 185 46 l 144 46 q 118 58 125 46 q 104 90 104 65 q 149 138 104 128 q 167 149 167 136 q 163 171 167 156 q 150 193 157 193 l 146 193 q 100 189 135 193 q 46 183 63 183 q 17 194 24 183 q 0 225 0 208 q 4 243 0 233 q 74 275 8 269 q 128 284 117 281 q 140 294 140 288 l 140 297 q 132 453 132 382 q 169 710 132 601 q 288 893 210 828 q 467 958 367 958 q 643 885 575 958 q 690 821 676 853 q 726 671 726 735 q 722 642 726 653 q 678 613 707 613 q 647 624 661 613 q 632 676 632 628 q 574 826 625 776 q 468 869 526 869 q 384 847 426 869 q 311 783 342 825 q 236 594 257 710 q 228 433 228 531 q 232 326 228 371 l 235 292 l 331 294 q 394 296 371 296 q 440 291 429 296 q 457 274 451 286 q 463 253 463 264 q 431 211 463 225 q 338 204 413 207 q 279 202 303 203 q 254 200 256 201 l 254 197 q 263 153 254 181 q 269 151 264 151 q 294 154 279 151 q 321 156 310 156 q 335 154 331 156 q 358 137 350 150 q 367 110 367 124 q 344 71 367 86 q 311 63 333 65 q 289 58 289 58 q 296 40 289 58 q 301 14 301 25 q 288 -17 301 -4 q 254 -31 282 -31 q 224 -18 229 -31 z "},"":{"ha":569,"x_min":0,"x_max":569,"o":"m 276 -4 q 224 11 253 1 q 172 29 194 21 l 150 38 l 129 24 q 61 0 92 0 q 38 6 47 0 q 4 53 4 25 q 26 98 4 76 q 89 126 49 119 q 115 149 108 125 q 131 239 131 182 q 119 358 131 288 q 110 399 114 392 q 89 407 107 407 l 75 407 q 6 436 13 407 q 0 453 0 446 q 4 468 0 458 q 63 501 11 501 l 93 503 l 93 515 q 92 553 93 526 l 89 576 l 68 576 q 11 601 26 576 q 3 624 3 613 q 8 646 3 633 q 64 671 15 669 l 94 672 l 106 713 q 335 944 158 904 q 388 950 361 950 q 493 926 446 950 q 561 858 540 901 q 569 819 569 838 q 553 779 569 793 q 525 771 539 771 q 506 775 515 771 q 478 814 482 785 q 438 854 472 840 q 388 863 413 863 q 292 834 338 863 q 221 754 247 806 q 192 678 192 694 q 205 676 192 676 q 236 675 218 675 q 289 670 272 675 q 313 651 306 665 q 318 629 318 640 q 304 597 318 613 l 292 582 l 238 581 l 185 579 l 185 564 q 188 525 185 550 l 190 504 l 288 504 l 301 489 q 314 457 314 478 q 244 411 314 407 q 207 410 215 411 l 207 407 q 213 365 207 397 q 225 243 225 297 q 211 142 225 185 q 206 117 206 124 q 208 111 206 113 q 325 78 261 89 q 342 76 333 76 q 481 117 410 76 q 526 131 507 131 q 567 103 556 131 q 569 88 569 94 q 503 28 569 57 q 351 -8 435 -8 l 328 -8 q 276 -4 294 -8 z "},"":{"ha":1486,"x_min":0,"x_max":1486,"o":"m 29 -35 q 14 -24 19 -32 q 6 24 8 -17 q 3 164 4 64 q 1 450 3 264 q 0 743 0 635 q 0 839 0 801 q 1 896 0 876 q 3 918 1 915 q 47 949 14 949 q 78 933 71 949 q 90 917 88 924 q 92 892 92 911 q 94 864 92 869 q 119 879 94 864 q 211 922 160 908 q 278 928 239 928 q 351 921 319 928 q 511 811 450 893 q 579 617 572 729 q 581 582 581 596 q 583 567 582 568 q 642 569 586 567 l 696 575 l 699 650 q 701 717 700 703 q 710 736 703 732 q 746 751 726 751 q 782 733 767 751 q 789 712 788 726 q 792 649 790 697 l 793 576 l 1006 576 l 1019 563 q 1033 532 1033 547 q 1015 499 1033 513 q 988 493 1010 494 q 900 490 967 492 q 849 488 872 489 q 810 487 825 488 q 794 485 796 486 q 792 465 793 483 q 791 412 792 446 q 790 334 790 378 q 789 240 789 290 q 788 95 789 149 q 785 17 786 42 q 782 -10 783 -7 q 744 -29 768 -29 q 708 -14 725 -29 l 696 -3 l 697 239 q 699 396 699 338 q 698 460 699 439 q 696 483 697 482 q 688 485 694 485 q 586 476 656 485 l 569 474 l 560 442 q 440 247 522 329 q 233 149 346 153 l 214 149 q 122 169 160 149 q 99 182 103 179 q 97 169 97 182 q 97 135 97 157 q 96 89 96 114 q 92 -10 96 8 q 71 -35 88 -29 q 50 -40 60 -40 q 29 -35 40 -40 m 274 250 q 368 308 324 264 q 449 419 417 351 q 488 586 488 499 q 481 663 488 643 q 404 790 458 743 q 282 836 350 836 q 250 833 267 836 q 99 701 129 804 q 95 666 96 693 q 94 583 94 639 l 94 494 l 97 311 l 113 293 q 178 247 146 261 q 217 242 194 242 q 274 250 246 242 m 1219 -25 q 1132 53 1164 -3 q 1111 143 1111 97 q 1133 211 1111 190 q 1160 219 1146 219 q 1199 197 1183 219 q 1207 149 1207 193 q 1215 99 1207 106 q 1267 67 1232 67 q 1353 116 1314 71 q 1392 206 1392 161 q 1388 232 1392 219 q 1263 265 1378 265 q 1153 288 1208 265 q 1079 356 1104 311 q 1054 456 1054 400 q 1096 601 1054 526 q 1207 714 1143 668 q 1317 743 1249 743 q 1378 733 1371 743 q 1449 661 1424 708 q 1469 546 1469 608 q 1446 444 1469 481 q 1415 433 1443 433 q 1382 446 1390 433 q 1371 472 1371 451 l 1371 485 q 1374 557 1374 519 q 1372 597 1374 586 q 1365 618 1371 608 q 1314 649 1354 649 q 1218 601 1265 646 q 1153 496 1171 557 q 1147 453 1147 474 q 1168 392 1147 415 q 1297 360 1182 364 q 1461 294 1429 357 q 1486 206 1486 256 q 1482 163 1486 185 q 1382 11 1458 72 q 1274 -29 1329 -29 q 1219 -25 1239 -29 z "},"":{"ha":586,"x_min":10,"x_max":649,"o":"m 414 -33 q 253 53 324 -21 q 144 235 179 125 q 115 388 115 340 q 110 419 115 414 q 74 424 104 424 q 25 436 32 422 q 10 469 10 453 q 14 488 10 479 q 79 518 22 518 l 117 519 l 119 544 l 82 546 q 32 560 38 544 q 18 592 18 575 q 21 607 18 599 q 94 639 26 640 l 142 640 l 150 668 q 424 960 235 906 q 479 967 450 967 q 631 921 561 967 q 649 885 649 906 q 635 851 649 867 q 606 838 622 838 q 564 851 590 838 q 481 874 521 874 q 403 853 443 874 q 283 735 335 815 q 256 681 269 711 q 242 643 242 650 q 253 641 242 642 q 282 639 265 640 q 353 607 343 640 q 357 589 357 599 q 342 557 357 572 q 324 548 336 550 q 274 544 313 546 l 215 543 l 213 518 l 272 517 q 324 515 313 517 q 342 506 336 513 q 356 482 351 496 q 358 468 358 475 q 353 451 358 461 q 328 428 344 435 q 261 422 311 422 l 206 422 l 208 396 q 344 94 231 182 q 447 60 385 60 q 506 68 492 60 q 560 86 546 86 q 571 85 565 86 q 603 42 603 69 q 563 -8 603 7 q 446 -36 503 -36 q 414 -33 429 -36 z "},"":{"ha":1547,"x_min":0,"x_max":1547,"o":"m 988 -28 q 822 142 864 6 q 813 231 813 181 q 822 325 813 281 l 832 364 l 813 383 q 761 513 761 440 q 800 638 761 576 q 895 724 839 694 q 1013 754 951 754 q 1193 679 1108 754 q 1281 560 1247 632 q 1304 521 1296 521 q 1311 522 1307 521 q 1451 551 1364 540 q 1497 554 1483 554 q 1518 551 1511 554 q 1547 508 1547 535 q 1525 469 1547 486 q 1464 457 1514 463 q 1328 426 1369 444 q 1323 413 1324 426 q 1322 360 1322 400 l 1322 340 q 1301 194 1322 251 q 1111 -21 1247 32 q 1033 -32 1075 -32 q 988 -28 1008 -32 m 1096 75 q 1222 264 1192 124 q 1231 360 1231 317 q 1228 386 1231 381 l 1226 386 q 1211 382 1224 386 q 1182 372 1199 378 q 971 325 1063 325 l 919 325 l 914 308 q 908 233 908 290 q 910 182 908 197 q 917 154 911 167 q 1038 61 960 61 q 1096 75 1067 61 m 1026 425 q 1207 486 1144 456 l 1207 488 q 1192 526 1207 496 q 1160 579 1176 557 q 1072 647 1122 626 q 1013 657 1057 657 q 976 655 986 657 q 949 644 965 653 q 879 587 904 624 q 854 513 854 550 q 861 476 854 493 q 874 458 869 458 q 890 481 876 458 q 960 553 924 531 q 993 561 979 561 q 1022 547 1013 561 q 1036 517 1036 538 q 1008 472 1036 486 q 981 446 997 464 q 965 422 965 428 q 979 419 965 418 q 1026 425 996 419 m 611 -10 q 589 6 599 -6 q 579 29 579 13 q 596 115 579 50 q 633 426 633 281 q 571 747 633 615 q 438 865 508 865 q 350 820 393 865 q 271 688 307 775 q 178 138 196 511 q 169 50 174 72 q 153 19 165 28 q 121 7 138 7 q 76 32 96 7 q 23 236 46 82 q 0 538 0 390 q 14 756 0 646 q 47 907 28 865 q 92 935 67 935 q 133 906 118 935 q 136 892 136 899 q 131 867 136 882 q 103 714 115 818 q 96 514 96 625 q 97 428 96 464 q 101 392 99 392 q 103 393 103 392 q 115 467 106 406 q 301 901 169 785 q 435 954 367 954 q 549 917 492 954 q 714 588 674 829 q 726 421 726 507 q 686 90 726 268 q 668 14 674 32 q 624 -11 653 -11 q 611 -10 618 -11 z "},"":{"ha":572,"x_min":0,"x_max":572,"o":"m 169 -26 q 44 53 89 -10 q 0 206 0 117 q 7 278 0 240 q 171 558 39 426 q 246 624 211 597 q 419 710 321 674 q 458 726 451 724 l 458 728 q 422 803 458 743 q 357 856 399 840 q 303 864 347 864 q 238 846 268 864 q 194 813 204 832 q 146 775 169 775 q 125 779 136 775 q 97 817 97 792 q 172 915 97 861 q 308 956 238 956 q 442 914 379 956 q 565 690 536 849 q 572 565 572 638 q 568 468 572 508 q 474 174 543 299 q 308 -1 406 49 q 196 -29 249 -29 q 169 -26 182 -29 m 267 81 q 398 229 342 119 q 474 483 454 339 q 479 593 479 544 q 476 632 479 626 q 456 626 474 632 q 418 610 439 619 q 379 594 397 601 q 110 299 188 500 q 98 258 100 272 q 96 207 96 243 q 98 159 96 172 q 106 133 100 146 q 200 64 139 64 q 267 81 231 64 z "},"":{"ha":646,"x_min":0,"x_max":646,"o":"m 131 -18 q 33 -14 54 -18 q 7 3 13 -10 q 0 18 0 6 q 17 88 0 32 q 84 290 35 143 q 229 717 133 438 q 283 870 260 807 q 308 940 306 933 q 347 961 324 961 q 382 947 365 961 q 392 930 386 944 q 410 871 397 915 q 449 735 424 826 q 519 486 475 643 q 569 310 546 392 q 609 165 592 228 q 636 64 626 101 q 646 24 646 26 q 625 -17 646 3 q 603 -20 622 -19 q 525 -21 585 -21 l 424 -21 q 131 -18 264 -21 m 536 75 q 526 117 536 78 q 499 214 515 157 q 406 547 460 351 q 377 649 390 603 q 356 723 364 694 q 346 754 347 751 q 343 757 344 757 l 342 754 q 110 74 110 76 q 285 71 110 74 q 497 69 429 71 l 515 69 q 532 71 528 69 q 536 75 536 72 z "},"":{"ha":640,"x_min":0,"x_max":640,"o":"m 139 -19 q 118 -7 129 -17 l 107 4 l 104 401 q 103 607 104 513 q 102 762 103 701 q 100 833 101 822 l 97 868 l 69 868 q 8 889 24 868 q 0 914 0 900 q 6 935 0 924 q 16 949 8 944 q 53 956 24 954 q 153 957 82 957 l 614 957 l 625 944 q 640 917 640 932 q 635 896 640 907 q 567 868 628 868 l 533 868 l 535 442 l 535 226 q 535 101 535 149 q 534 31 535 53 q 532 6 533 8 q 492 -21 517 -21 q 457 -6 474 -21 l 446 4 l 443 401 q 439 833 439 804 l 436 868 l 194 868 l 196 442 l 196 226 q 196 101 196 149 q 195 31 196 53 q 193 6 194 8 q 149 -21 176 -21 q 139 -19 143 -21 z "},"":{"ha":467,"x_min":0,"x_max":467,"o":"m 29 -11 q 8 7 17 -4 q 0 26 0 14 q 22 95 0 44 q 104 271 44 146 l 207 492 l 108 692 q 24 862 40 826 q 8 913 8 897 q 10 934 8 928 q 21 947 13 940 l 33 960 l 231 961 l 329 961 q 410 960 383 961 q 440 958 436 960 q 467 917 467 943 q 456 886 467 900 l 443 874 l 286 872 q 185 872 219 872 q 140 869 151 871 q 128 865 128 868 q 140 839 128 864 q 171 774 151 814 q 215 685 190 733 q 288 538 272 572 q 303 490 303 503 q 285 439 303 479 q 211 278 268 399 q 146 139 172 196 q 119 81 119 82 q 138 79 119 81 q 188 77 157 78 q 258 75 219 76 q 375 72 346 74 q 408 67 404 71 q 428 28 428 51 q 421 3 428 15 q 403 -12 415 -7 q 350 -17 390 -17 q 215 -18 310 -18 q 67 -17 99 -18 q 29 -11 35 -17 z "},"":{"ha":451,"x_min":0,"x_max":451,"o":"m 35 433 q 0 469 11 443 l 0 476 q 19 517 0 499 q 35 523 24 521 q 89 525 47 525 q 228 525 131 525 l 424 525 l 438 513 q 451 481 451 504 q 438 449 451 456 l 425 436 l 371 433 q 186 432 299 432 q 35 433 74 432 z "},"":{"ha":432,"x_min":0,"x_max":432,"o":"m 88 272 q 54 311 69 279 q 42 344 51 318 q 24 403 33 371 q 7 460 14 435 q 0 490 0 486 q 21 526 0 507 q 43 533 31 533 q 76 522 61 533 q 90 501 85 515 q 110 439 96 486 q 116 419 114 425 q 119 414 118 414 q 124 419 122 414 q 144 469 126 425 q 188 576 163 514 q 267 768 233 689 q 323 892 300 847 q 357 947 346 936 q 386 957 364 957 q 428 928 418 957 q 432 913 432 921 q 414 864 432 897 q 272 533 369 775 q 201 362 225 417 q 165 293 176 307 q 113 267 142 267 q 88 272 100 267 z "},"":{"ha":444,"x_min":0,"x_max":444,"o":"m 258 275 q 190 317 218 288 l 176 333 l 165 325 q 107 306 139 306 q 60 318 82 306 q 1 415 14 346 q 0 438 0 426 q 47 549 0 500 q 113 572 78 572 q 164 558 139 572 l 182 547 l 204 571 q 317 626 260 626 q 403 588 365 626 q 444 474 444 546 l 444 467 q 385 317 444 379 q 315 275 353 282 q 288 269 300 269 q 258 275 275 269 m 310 374 q 350 451 339 396 q 353 472 353 464 q 347 500 353 485 q 317 533 338 533 q 286 521 304 533 q 242 454 258 499 q 235 431 235 439 q 240 413 235 424 q 286 364 268 364 q 310 374 294 364 m 136 433 l 129 450 q 111 478 119 478 q 99 464 104 478 q 93 439 93 451 q 99 413 93 426 q 108 401 103 401 q 125 417 114 401 l 136 433 z "},"":{"ha":276,"x_min":0,"x_max":276,"o":"m 14 -83 q 0 -51 0 -76 q 13 -21 0 -28 q 47 -4 26 -6 q 75 1 68 -1 q 103 83 92 17 q 106 172 106 108 q 94 515 106 299 q 86 764 86 672 q 92 865 86 836 q 181 988 113 964 q 217 993 199 993 q 254 985 239 993 q 276 943 276 967 q 269 918 276 929 q 226 900 264 901 q 194 879 199 901 q 181 818 185 863 q 178 769 178 800 q 189 507 178 711 q 200 171 200 292 q 197 83 200 111 q 146 -58 188 -18 q 47 -97 110 -97 q 14 -83 21 -97 z "},"":{"ha":414,"x_min":0,"x_max":414,"o":"m 265 279 q 240 286 261 279 q 181 314 218 294 q 131 338 146 335 q 122 339 126 339 q 85 315 101 339 q 44 293 65 293 q 13 308 28 293 q 0 339 0 322 q 46 408 0 374 q 118 429 75 429 l 136 429 q 219 400 161 433 q 290 372 268 372 q 325 401 314 372 q 367 433 342 433 q 381 431 374 433 q 414 389 414 419 q 407 360 414 375 q 322 283 382 301 q 281 278 299 278 q 265 279 271 278 m 265 449 q 240 456 261 449 q 181 483 218 464 q 131 507 146 504 q 122 508 126 508 q 85 485 101 508 q 44 463 65 463 q 13 478 28 463 q 0 508 0 492 q 46 578 0 543 q 118 599 75 599 l 136 599 q 219 569 161 603 q 290 542 268 542 q 325 571 314 542 q 367 603 342 603 q 381 600 374 603 q 414 558 414 589 q 407 528 414 544 q 322 453 382 471 q 281 447 299 447 q 265 449 271 447 z "},"":{"ha":347,"x_min":1,"x_max":317,"o":"m 35 175 q 1 221 1 189 q 15 251 1 243 l 28 265 l 290 265 l 303 251 q 317 219 317 243 q 303 188 317 196 l 290 175 l 235 175 q 114 172 190 175 q 35 175 50 171 m 168 329 q 53 395 86 372 q 13 438 19 418 q 6 464 6 451 q 28 510 6 488 q 225 660 133 600 q 235 661 229 661 q 266 648 251 661 q 281 618 281 635 q 276 594 281 606 q 251 571 274 590 q 193 525 228 551 l 115 465 l 138 451 q 218 410 164 438 q 282 372 271 382 q 292 344 292 360 q 269 303 292 319 q 250 297 261 297 q 168 329 226 297 z "},"":{"ha":335,"x_min":4,"x_max":321,"o":"m 28 176 l 15 190 q 4 221 4 199 q 18 251 4 244 l 31 265 l 293 265 l 306 251 q 321 219 321 236 q 310 190 321 204 q 291 176 303 181 q 239 172 279 172 q 107 175 197 172 l 28 176 m 49 304 q 28 344 28 321 q 39 372 28 360 q 103 410 49 382 q 182 451 156 438 l 206 465 l 128 525 q 70 571 93 551 q 44 594 47 590 q 40 618 40 606 q 86 661 40 651 q 96 660 92 661 q 293 510 188 600 q 314 474 313 490 l 314 467 q 283 407 314 433 q 217 365 261 390 q 128 318 172 339 q 74 297 85 297 q 49 304 64 297 z "}}}
